<svg fill="none" height="212" viewBox="0 0 212 212" width="212" xmlns="http://www.w3.org/2000/svg" xmlns:xlink="http://www.w3.org/1999/xlink"><clipPath id="a"><path d="m0 0h212v212h-212z"/></clipPath><g clip-path="url(#a)"><path d="m206 0h-200c-3.31371 0-6 2.68629-6 6v200c0 3.314 2.68629 6 6 6h200c3.314 0 6-2.686 6-6v-200c0-3.31371-2.686-6-6-6z" fill="#f5f5f5"/><g fill="#010101"><path d="m43.91 123.85h2.34l4.84 12.56h-2.35l-1.19-3.32h-5.01l-1.18 3.33h-2.27zm-.77 7.57h3.84l-1.88-5.4h-.05z"/><path d="m60.31 136.42h-1.97v-1.27h-.04c-.54.92-1.52 1.5-2.59 1.51-2.37 0-3.4-1.2-3.4-3.57v-5.77h2.01v5.58c0 1.6.65 2.18 1.74 2.18 1.67 0 2.24-1.07 2.24-2.48v-5.28h2v9.09h.01z"/><path d="m64.25 133.5c.11 1.16.98 1.58 2.06 1.58.76 0 2.08-.16 2.02-1.2s-1.51-1.18-2.97-1.51-2.92-.84-2.92-2.69c0-1.99 2.15-2.6 3.8-2.6 1.87 0 3.55.77 3.8 2.8h-2.09c-.18-.95-.97-1.21-1.85-1.21-.58 0-1.65.14-1.65.93 0 .99 1.48 1.13 2.96 1.46s2.94.86 2.94 2.66c0 2.16-2.18 2.96-4.06 2.96-2.29 0-3.99-1.02-4.03-3.17h2.01-.02z"/><path d="m71.27 127.32h1.51v-2.73h2v2.73h1.81v1.49h-1.81v4.86c0 .83.07 1.25.97 1.25.28 0 .57 0 .84-.07v1.55c-.44.04-.86.11-1.3.11-2.09 0-2.48-.81-2.51-2.32v-5.37h-1.51v-1.49z"/><path d="m78.37 127.32h1.88v1.76h.04c.23-.97 1.42-2 2.66-2 .25 0 .51.02.76.05v1.93c-.29-.05-.57-.08-.86-.09-1.37 0-2.46 1.11-2.46 3.11v4.33h-2v-9.1h-.02z"/><path d="m92.49 134.39c0 .49.11.69.47.69.16 0 .33 0 .49-.04v1.39c-.41.13-.84.21-1.27.23-.81 0-1.39-.28-1.55-1.11-.79.77-2.08 1.11-3.15 1.11-1.64 0-3.11-.88-3.11-2.66 0-2.27 1.81-2.64 3.5-2.83 1.44-.26 2.73-.11 2.73-1.29 0-1.04-1.07-1.23-1.88-1.23-1.13 0-1.92.46-2.01 1.44h-2c.14-2.34 2.13-3.02 4.13-3.02 1.78 0 3.64.72 3.64 2.64v4.68zm-2-2.53c-.62.4-1.58.39-2.46.55s-1.64.46-1.64 1.51c0 .9 1.14 1.16 1.85 1.16.88 0 2.25-.46 2.25-1.73z"/><path d="m95.03 123.85h2v12.56h-2z"/><path d="m99.59 123.85h2v1.9h-2zm0 3.47h2v9.1h-2z"/><path d="m111.71 134.39c0 .49.11.69.47.69.16 0 .33 0 .49-.04v1.39c-.41.13-.84.21-1.27.23-.81 0-1.39-.28-1.55-1.11-.79.77-2.08 1.11-3.15 1.11-1.64 0-3.11-.88-3.11-2.66 0-2.27 1.81-2.64 3.5-2.83 1.44-.26 2.73-.11 2.73-1.29 0-1.04-1.07-1.23-1.88-1.23-1.13 0-1.92.46-2.01 1.44h-2c.14-2.34 2.13-3.02 4.13-3.02 1.78 0 3.64.72 3.64 2.64v4.68zm-2.01-2.53c-.62.4-1.58.39-2.46.55s-1.64.46-1.64 1.51c0 .9 1.14 1.16 1.85 1.16.88 0 2.25-.46 2.25-1.73z"/><path d="m114.19 127.32h1.9v1.34l.04.04c.59-1.01 1.67-1.62 2.83-1.62 1.97 0 3.22 1.06 3.22 3.1v6.25h-2.01v-5.72c-.04-1.42-.6-2.04-1.78-2.04-1.34 0-2.2 1.06-2.2 2.39v5.37h-2.01v-9.1z"/><path d="m129.71 132.23c0 1.93 1.43 2.69 3.18 2.69 1.93 0 2.66-.95 2.66-1.9s-.53-1.35-1.04-1.55c-.88-.33-2.02-.56-3.75-1.04-2.15-.58-2.78-1.88-2.78-3.18 0-2.52 2.32-3.69 4.59-3.69 2.62 0 4.82 1.39 4.82 4.01h-2.2c-.11-1.62-1.2-2.21-2.71-2.21-1.02 0-2.31.37-2.31 1.64 0 .88.6 1.37 1.5 1.62.19.05 2.97.77 3.62.97 1.44.4 2.44 1.71 2.45 3.2 0 2.81-2.5 3.94-5 3.94-2.87 0-5.19-1.37-5.24-4.49h2.21z"/><path d="m138.88 127.32h2.13l1.78 6.79h.04l1.71-6.79h2.02l1.64 6.79h.04l1.85-6.79h2.04l-2.85 9.1h-2.06l-1.69-6.76h-.04l-1.67 6.76h-2.11l-2.82-9.1z"/><path d="m153.77 123.85h2.01v1.9h-2.01zm0 3.47h2.01v9.1h-2.01z"/><path d="m159.78 133.5c.11 1.16.98 1.58 2.06 1.58.76 0 2.08-.16 2.02-1.2s-1.51-1.18-2.97-1.51-2.92-.84-2.92-2.69c0-1.99 2.15-2.6 3.8-2.6 1.87 0 3.55.77 3.8 2.8h-2.09c-.18-.95-.97-1.21-1.85-1.21-.58 0-1.65.14-1.65.93 0 .99 1.48 1.13 2.96 1.46s2.94.86 2.94 2.66c0 2.16-2.18 2.96-4.06 2.96-2.29 0-3.99-1.02-4.03-3.17h2-.01z"/><path d="m169.23 133.5c.11 1.16.98 1.58 2.06 1.58.76 0 2.08-.16 2.02-1.2s-1.51-1.18-2.97-1.51-2.92-.84-2.92-2.69c0-1.99 2.15-2.6 3.8-2.6 1.86 0 3.55.77 3.8 2.8h-2.09c-.18-.95-.97-1.21-1.85-1.21-.58 0-1.65.14-1.65.93 0 .99 1.48 1.13 2.96 1.46s2.94.86 2.94 2.66c0 2.16-2.18 2.96-4.06 2.96-2.29 0-3.99-1.02-4.03-3.17h2-.01z"/><path d="m46.37 149.91c-.32-1.45-1.52-2.29-2.89-2.29-2.5 0-3.55 2.08-3.55 4.14s1.06 4.14 3.55 4.14c1.74 0 2.85-1.35 3.02-3.02h.9c-.25 2.31-1.71 3.79-3.92 3.79-2.97 0-4.45-2.34-4.45-4.91s1.48-4.91 4.45-4.91c1.78 0 3.55 1.07 3.79 3.05h-.9z"/><path d="m48.76 147.06h.83v3.79h.03c.3-.82 1.22-1.37 2.18-1.37 1.92 0 2.5 1 2.5 2.63v4.38h-.83v-4.25c0-1.17-.38-2.06-1.73-2.06s-2.11 1-2.14 2.34v3.97h-.83v-9.42z"/><path d="m55.95 151.76c.08-1.6 1.2-2.29 2.76-2.29 1.2 0 2.51.37 2.51 2.19v3.62c-.03.24.14.47.38.5h.11c.09 0 .18-.02.26-.05v.7c-.18.04-.36.06-.54.05-.84 0-.98-.47-.98-1.19h-.03c-.58.88-1.17 1.39-2.48 1.39s-2.29-.62-2.29-1.99c0-1.91 1.86-1.98 3.65-2.19.69-.08 1.07-.18 1.07-.93 0-1.12-.8-1.41-1.78-1.41-1.03 0-1.79.47-1.82 1.58h-.83v.02zm4.43 1.01h-.04c-.11.2-.47.26-.7.3-1.41.25-3.17.24-3.17 1.57 0 .83.74 1.35 1.52 1.35 1.27 0 2.39-.81 2.37-2.14v-1.08z"/><path d="m63.03 149.68h.77v1.15h.04c.41-.85 1.29-1.38 2.23-1.35.9 0 1.7.44 1.95 1.33.39-.84 1.24-1.36 2.16-1.33 1.49 0 2.26.78 2.26 2.39v4.62h-.84v-4.57c0-1.12-.42-1.73-1.61-1.73-1.44 0-1.85 1.19-1.85 2.46v3.84h-.83v-4.62c.01-.92-.37-1.69-1.42-1.69-1.44 0-2.02 1.08-2.03 2.51v3.8h-.83z"/><path d="m74.18 147.06h.83v3.91h.03c.35-.98 1.35-1.49 2.36-1.49 2.07 0 3.06 1.68 3.06 3.6s-.99 3.6-3.06 3.6c-1.1 0-2.05-.57-2.43-1.49h-.03v1.29h-.77v-9.42zm3.22 3.12c-1.77 0-2.39 1.49-2.39 2.9s.62 2.9 2.39 2.9c1.58 0 2.23-1.49 2.23-2.9s-.65-2.9-2.23-2.9z"/><path d="m82.4 153.31c.01 1.22.65 2.68 2.24 2.68 1.21 0 1.87-.7 2.14-1.74h.83c-.35 1.54-1.25 2.44-2.97 2.44-2.16 0-3.08-1.66-3.08-3.6 0-1.8.91-3.6 3.08-3.6s3.06 1.91 2.99 3.83h-5.23zm4.41-.71c-.04-1.25-.82-2.43-2.16-2.43s-2.11 1.19-2.24 2.43h4.41z"/><path d="m88.92 149.68h.77v1.6h.03c.37-1.08 1.43-1.78 2.57-1.69v.83c-1.51-.08-2.53 1.03-2.53 2.44v3.63h-.83v-6.81z"/><path d="m103.16 153.08c0 1.95-1.13 3.6-3.22 3.6s-3.22-1.65-3.22-3.6 1.13-3.6 3.22-3.6 3.22 1.65 3.22 3.6zm-5.61 0c0 1.45.79 2.9 2.39 2.9s2.39-1.45 2.39-2.9-.79-2.9-2.39-2.9-2.39 1.45-2.39 2.9z"/><path d="m107.18 150.38h-1.35v6.11h-.82v-6.11h-1.16v-.7h1.16v-.62c-.01-1.17.32-1.99 1.65-1.99.24 0 .47.02.7.05v.7c-.2-.04-.4-.06-.61-.07-.92 0-.9.58-.91 1.32v.59h1.35v.71z"/><path d="m119.01 149.91c-.32-1.45-1.52-2.29-2.89-2.29-2.49 0-3.54 2.09-3.54 4.15s1.06 4.14 3.55 4.14c1.74 0 2.85-1.35 3.02-3.02h.9c-.25 2.31-1.72 3.79-3.92 3.79-2.97 0-4.45-2.34-4.45-4.91s1.48-4.91 4.45-4.91c1.78 0 3.55 1.07 3.79 3.05z"/><path d="m127.51 153.08c0 1.95-1.13 3.6-3.22 3.6s-3.22-1.65-3.22-3.6 1.14-3.6 3.22-3.6 3.22 1.65 3.22 3.6zm-5.61 0c0 1.45.79 2.9 2.39 2.9s2.39-1.45 2.39-2.9-.79-2.9-2.39-2.9-2.39 1.45-2.39 2.9z"/><path d="m128.91 149.68h.77v1.15h.04c.41-.85 1.28-1.38 2.23-1.35.9 0 1.7.44 1.95 1.33.39-.84 1.24-1.36 2.16-1.33 1.49 0 2.26.78 2.26 2.39v4.62h-.83v-4.57c0-1.12-.42-1.73-1.61-1.73-1.44 0-1.85 1.19-1.85 2.46v3.84h-.83v-4.62c0-.92-.37-1.69-1.43-1.69-1.44 0-2.02 1.08-2.03 2.51v3.8h-.83z"/><path d="m140.06 149.68h.77v1.15h.04c.41-.85 1.28-1.38 2.23-1.35.9 0 1.7.44 1.95 1.33.39-.84 1.24-1.36 2.16-1.33 1.49 0 2.26.78 2.26 2.39v4.62h-.83v-4.57c0-1.12-.42-1.73-1.61-1.73-1.44 0-1.85 1.19-1.85 2.46v3.84h-.83v-4.62c0-.92-.37-1.69-1.43-1.69-1.44 0-2.02 1.08-2.03 2.51v3.8h-.83z"/><path d="m151.7 153.31c0 1.22.65 2.68 2.24 2.68 1.21 0 1.87-.7 2.14-1.74h.83c-.35 1.54-1.25 2.44-2.97 2.44-2.16 0-3.08-1.66-3.08-3.6 0-1.8.91-3.6 3.08-3.6s3.06 1.91 2.99 3.83h-5.23zm4.41-.71c-.04-1.25-.82-2.43-2.16-2.43s-2.11 1.19-2.24 2.43h4.41z"/><path d="m158.22 149.68h.77v1.6h.02c.37-1.08 1.43-1.78 2.57-1.69v.83c-1.5-.08-2.53 1.03-2.53 2.44v3.63h-.83z"/><path d="m167.1 151.82c-.22-1.02-.84-1.64-1.93-1.64-1.6 0-2.39 1.45-2.39 2.9s.79 2.9 2.39 2.9c1.03 0 1.87-.81 1.98-1.93h.83c-.23 1.64-1.29 2.64-2.81 2.64-2.09 0-3.22-1.65-3.22-3.6s1.13-3.6 3.22-3.6c1.45 0 2.57.78 2.76 2.34h-.83z"/><path d="m169.79 153.31c0 1.22.65 2.68 2.24 2.68 1.21 0 1.87-.7 2.14-1.74h.83c-.35 1.54-1.25 2.44-2.97 2.44-2.16 0-3.07-1.66-3.07-3.6 0-1.8.91-3.6 3.07-3.6s3.06 1.91 2.99 3.83h-5.24zm4.41-.71c-.04-1.25-.82-2.43-2.16-2.43s-2.11 1.19-2.24 2.43h4.41z"/><path d="m78.71 113.57h96.73v-54.61h-86.14z"/></g><path d="m168.34 79.6399h-14.22v-14.22h-14.36v14.22h-14.22v14.36h14.22v14.2101h14.36v-14.2101h14.22z" fill="#fff"/><path d="m175.56 141.6h-136.38v.29h136.38z" fill="#010101"/><path d="m55.62 117.6c-1.03 0-2.04-.22-2.98-.64-.74-.32-1.58-.79-1.63-1.59-.04-.78.7-1.3 1.5-1.76 1.26-.69 2.13-.77 3.23-.87 1.5-.11 2.97-.39 4.41-.84 4.88-1.44 10.05-2.93 15.18-3.87l1.08-5.68c1.31-5.32.37-9.54-3.04-13.69-.11-.14-.33-.33-.89-.33-.5 0-1.17.15-2 .45.86 2.76 1.45 5.45 2.02 8.08l.11.5v.03c.32-.64.73-.78 1.04-.78.62 0 1.13.59 1.42 1.66.27.98.49 2-.06 2.78-.35.49-.94.78-1.76.84-.14.01-.28.02-.42.02-.83 0-1.49-.31-2.11-1.01-.87-.09-1.36-1.09-1.73-1.82l-.08-.18c-1.41-2.82-3.18-6.01-5.69-8.34-3.83-1.09-6.2-4.54-7.22-6.03-.18-.27-.34-.5-.43-.6-.27-.25-.55-.49-.85-.7-1.41-1.09-4.01-3.1-5.52-6.21-2.26-.33-4.68-.78-7.16-1.7-.27.05-.53.16-.75.32-.34.21-.73.44-1.21.44-.82 0-1.51-.65-2.3-2.17-.92-2.08 1.93-3.54 4.93-5.08 1.05-.51 2.07-1.07 3.07-1.68.22-.14.43-.3.65-.46.74-.55 1.51-1.12 2.4-1.12.26 0 .52.05.76.15.96-1.1 2.11-2.03 3.39-2.74l.08-.05.09-.02c1.26-.27 2.49-.64 3.68-1.12.24-.09.49-.14.75-.14.63-.02 1.22.3 1.55.83.27.49.26 1.1-.04 1.57-1.41 2.5-3.69 3.88-5.57 4.73 1.83 1.51 3.43 2.25 4.88 2.25 1.8 0 3.44-1.13 5.03-3.47 5.38-8.13 10.9-12.08 16.9-12.08 7.32 0 15.2 5.78 24.79 18.2 7.99 10.35 15.32 15.83 21.19 15.83 3.34 0 6.2-1.84 8.47-5.45.46-.73 1.02-1.14 1.57-1.14.32 0 .63.15.82.42.2.27.38.79.09 1.69-2.26 7.1-6.27 10.71-11.92 10.71-6.1 0-13.95-3.95-25.41-12.79-.44.46-.88.93-1.31 1.39-2.77 2.97-5.63 6.03-10.85 7.85-2.85 5.05-5.58 10.57-6.46 16.84l-.07.51c-.33 2.4-.68 5.12-4.63 5.35-5.69.32-11.36.95-16.98 1.88l-.26.08c-1.17.39-2.38.78-3.76.78v-.03z" fill="#fff"/><path d="m136.68 84.82c.47-1.48-.53-1.78-1.36-.45-6.91 11.02-18.51 5.45-30.69-10.32-16.41-21.26-28.81-24.07-40.68-6.16-3.69 5.44-7.61 4.29-11.59.69 2.42-.96 4.77-2.32 6.19-4.85.56-.99-.52-1.76-1.49-1.37-1.22.49-2.49.88-3.78 1.15-1.37.76-2.57 1.77-3.55 2.99-1.24-.93-2.4.35-3.61 1.16-3.02 2-8.72 3.83-7.77 5.96 1.77 3.41 2.36 1 3.81 1.08 2.56.96 5.03 1.41 7.48 1.76 1.86 4.12 5.76 6.31 6.42 7.08s3.08 5.3 7.49 6.47c2.45 2.23 4.25 5.24 5.93 8.63.37.74.84 1.82 1.54 1.64.8 1.04 1.48 1.06 2.19 1.01 1.91-.14 1.6-1.58 1.26-2.83-.33-1.18-.95-1.71-1.37-.58-.24.64-.7.69-1.09-.31-.66-3.01-1.29-6.02-2.31-9.13 2.14-.88 3.49-.95 4.15-.15 4.07 4.97 4.31 9.58 3.17 14.2l-1.16 6.1c-5.19.93-10.36 2.4-15.53 3.93-4.5 1.33-5.28.43-7.51 1.65-1.23.69-1.92 1.37.07 2.23 2.62 1.13 4.58.4 6.61-.25 5.66-.94 11.36-1.57 17.08-1.9 3.67-.21 3.75-2.71 4.12-5.33.88-6.22 3.55-11.77 6.66-17.26 6.26-2.11 9.04-6.01 12.53-9.55 16.59 12.88 31.28 20.1 36.79 2.72z" fill="#010101"/></g></svg>