<svg width="212" height="212" viewBox="0 0 212 212" fill="none" xmlns="http://www.w3.org/2000/svg">
<g clip-path="url(#clip0_142_2333)">
<path d="M206 0H6C2.68629 0 0 2.68629 0 6V206C0 209.314 2.68629 212 6 212H206C209.314 212 212 209.314 212 206V6C212 2.68629 209.314 0 206 0Z" fill="#F5F5F5"/>
<path d="M43.91 123.85H46.25L51.09 136.41H48.74L47.55 133.09H42.54L41.36 136.42H39.09L43.91 123.85ZM43.14 131.42H46.98L45.1 126.02H45.05L43.14 131.42Z" fill="#010101"/>
<path d="M60.31 136.42H58.34V135.15H58.3C57.76 136.07 56.78 136.65 55.71 136.66C53.34 136.66 52.31 135.46 52.31 133.09V127.32H54.32V132.9C54.32 134.5 54.97 135.08 56.06 135.08C57.73 135.08 58.3 134.01 58.3 132.6V127.32H60.3V136.41H60.31V136.42Z" fill="#010101"/>
<path d="M64.25 133.5C64.36 134.66 65.23 135.08 66.31 135.08C67.07 135.08 68.39 134.92 68.33 133.88C68.27 132.84 66.82 132.7 65.36 132.37C63.9 132.04 62.44 131.53 62.44 129.68C62.44 127.69 64.59 127.08 66.24 127.08C68.11 127.08 69.79 127.85 70.04 129.88H67.95C67.77 128.93 66.98 128.67 66.1 128.67C65.52 128.67 64.45 128.81 64.45 129.6C64.45 130.59 65.93 130.73 67.41 131.06C68.89 131.39 70.35 131.92 70.35 133.72C70.35 135.88 68.17 136.68 66.29 136.68C64 136.68 62.3 135.66 62.26 133.51H64.27H64.25V133.5Z" fill="#010101"/>
<path d="M71.27 127.32H72.78V124.59H74.78V127.32H76.59V128.81H74.78V133.67C74.78 134.5 74.85 134.92 75.75 134.92C76.03 134.92 76.32 134.92 76.59 134.85V136.4C76.15 136.44 75.73 136.51 75.29 136.51C73.2 136.51 72.81 135.7 72.78 134.19V128.82H71.27V127.33V127.32Z" fill="#010101"/>
<path d="M78.37 127.32H80.25V129.08H80.29C80.52 128.11 81.71 127.08 82.95 127.08C83.2 127.08 83.46 127.1 83.71 127.13V129.06C83.42 129.01 83.14 128.98 82.85 128.97C81.48 128.97 80.39 130.08 80.39 132.08V136.41H78.39V127.31H78.37V127.32Z" fill="#010101"/>
<path d="M92.49 134.39C92.49 134.88 92.6 135.08 92.96 135.08C93.12 135.08 93.29 135.08 93.45 135.04V136.43C93.04 136.56 92.61 136.64 92.18 136.66C91.37 136.66 90.79 136.38 90.63 135.55C89.84 136.32 88.55 136.66 87.48 136.66C85.84 136.66 84.37 135.78 84.37 134C84.37 131.73 86.18 131.36 87.87 131.17C89.31 130.91 90.6 131.06 90.6 129.88C90.6 128.84 89.53 128.65 88.72 128.65C87.59 128.65 86.8 129.11 86.71 130.09H84.71C84.85 127.75 86.84 127.07 88.84 127.07C90.62 127.07 92.48 127.79 92.48 129.71V134.39H92.49ZM90.49 131.86C89.87 132.26 88.91 132.25 88.03 132.41C87.15 132.57 86.39 132.87 86.39 133.92C86.39 134.82 87.53 135.08 88.24 135.08C89.12 135.08 90.49 134.62 90.49 133.35V131.86Z" fill="#010101"/>
<path d="M95.03 123.85H97.03V136.41H95.03V123.85Z" fill="#010101"/>
<path d="M99.59 123.85H101.59V125.75H99.59V123.85ZM99.59 127.32H101.59V136.42H99.59V127.32Z" fill="#010101"/>
<path d="M111.71 134.39C111.71 134.88 111.82 135.08 112.18 135.08C112.34 135.08 112.51 135.08 112.67 135.04V136.43C112.26 136.56 111.83 136.64 111.4 136.66C110.59 136.66 110.01 136.38 109.85 135.55C109.06 136.32 107.77 136.66 106.7 136.66C105.06 136.66 103.59 135.78 103.59 134C103.59 131.73 105.4 131.36 107.09 131.17C108.53 130.91 109.82 131.06 109.82 129.88C109.82 128.84 108.75 128.65 107.94 128.65C106.81 128.65 106.02 129.11 105.93 130.09H103.93C104.07 127.75 106.06 127.07 108.06 127.07C109.84 127.07 111.7 127.79 111.7 129.71V134.39H111.71ZM109.7 131.86C109.08 132.26 108.12 132.25 107.24 132.41C106.36 132.57 105.6 132.87 105.6 133.92C105.6 134.82 106.74 135.08 107.45 135.08C108.33 135.08 109.7 134.62 109.7 133.35V131.86Z" fill="#010101"/>
<path d="M114.19 127.32H116.09V128.66L116.13 128.7C116.72 127.69 117.8 127.08 118.96 127.08C120.93 127.08 122.18 128.14 122.18 130.18V136.43H120.17V130.71C120.13 129.29 119.57 128.67 118.39 128.67C117.05 128.67 116.19 129.73 116.19 131.06V136.43H114.18V127.33L114.19 127.32Z" fill="#010101"/>
<path d="M129.71 132.23C129.71 134.16 131.14 134.92 132.89 134.92C134.82 134.92 135.55 133.97 135.55 133.02C135.55 132.07 135.02 131.67 134.51 131.47C133.63 131.14 132.49 130.91 130.76 130.43C128.61 129.85 127.98 128.55 127.98 127.25C127.98 124.73 130.3 123.56 132.57 123.56C135.19 123.56 137.39 124.95 137.39 127.57H135.19C135.08 125.95 133.99 125.36 132.48 125.36C131.46 125.36 130.17 125.73 130.17 127C130.17 127.88 130.77 128.37 131.67 128.62C131.86 128.67 134.64 129.39 135.29 129.59C136.73 129.99 137.73 131.3 137.74 132.79C137.74 135.6 135.24 136.73 132.74 136.73C129.87 136.73 127.55 135.36 127.5 132.24H129.71V132.23Z" fill="#010101"/>
<path d="M138.88 127.32H141.01L142.79 134.11H142.83L144.54 127.32H146.56L148.2 134.11H148.24L150.09 127.32H152.13L149.28 136.42H147.22L145.53 129.66H145.49L143.82 136.42H141.71L138.89 127.32H138.88Z" fill="#010101"/>
<path d="M153.77 123.85H155.78V125.75H153.77V123.85ZM153.77 127.32H155.78V136.42H153.77V127.32Z" fill="#010101"/>
<path d="M159.78 133.5C159.89 134.66 160.76 135.08 161.84 135.08C162.6 135.08 163.92 134.92 163.86 133.88C163.8 132.84 162.35 132.7 160.89 132.37C159.43 132.04 157.97 131.53 157.97 129.68C157.97 127.69 160.12 127.08 161.77 127.08C163.64 127.08 165.32 127.85 165.57 129.88H163.48C163.3 128.93 162.51 128.67 161.63 128.67C161.05 128.67 159.98 128.81 159.98 129.6C159.98 130.59 161.46 130.73 162.94 131.06C164.42 131.39 165.88 131.92 165.88 133.72C165.88 135.88 163.7 136.68 161.82 136.68C159.53 136.68 157.83 135.66 157.79 133.51H159.79H159.78V133.5Z" fill="#010101"/>
<path d="M169.23 133.5C169.34 134.66 170.21 135.08 171.29 135.08C172.05 135.08 173.37 134.92 173.31 133.88C173.25 132.84 171.8 132.7 170.34 132.37C168.88 132.04 167.42 131.53 167.42 129.68C167.42 127.69 169.57 127.08 171.22 127.08C173.08 127.08 174.77 127.85 175.02 129.88H172.93C172.75 128.93 171.96 128.67 171.08 128.67C170.5 128.67 169.43 128.81 169.43 129.6C169.43 130.59 170.91 130.73 172.39 131.06C173.87 131.39 175.33 131.92 175.33 133.72C175.33 135.88 173.15 136.68 171.27 136.68C168.98 136.68 167.28 135.66 167.24 133.51H169.24H169.23V133.5Z" fill="#010101"/>
<path d="M46.37 149.91C46.05 148.46 44.85 147.62 43.48 147.62C40.98 147.62 39.93 149.7 39.93 151.76C39.93 153.82 40.99 155.9 43.48 155.9C45.22 155.9 46.33 154.55 46.5 152.88H47.4C47.15 155.19 45.69 156.67 43.48 156.67C40.51 156.67 39.03 154.33 39.03 151.76C39.03 149.19 40.51 146.85 43.48 146.85C45.26 146.85 47.03 147.92 47.27 149.9H46.37V149.91Z" fill="#010101"/>
<path d="M48.76 147.06H49.59V150.85H49.62C49.92 150.03 50.84 149.48 51.8 149.48C53.72 149.48 54.3 150.48 54.3 152.11V156.49H53.47V152.24C53.47 151.07 53.09 150.18 51.74 150.18C50.39 150.18 49.63 151.18 49.6 152.52V156.49H48.77V147.07L48.76 147.06Z" fill="#010101"/>
<path d="M55.95 151.76C56.03 150.16 57.15 149.47 58.71 149.47C59.91 149.47 61.22 149.84 61.22 151.66V155.28C61.19 155.52 61.36 155.75 61.6 155.78H61.71C61.8 155.78 61.89 155.76 61.97 155.73V156.43C61.79 156.47 61.61 156.49 61.43 156.48C60.59 156.48 60.45 156.01 60.45 155.29H60.42C59.84 156.17 59.25 156.68 57.94 156.68C56.63 156.68 55.65 156.06 55.65 154.69C55.65 152.78 57.51 152.71 59.3 152.5C59.99 152.42 60.37 152.32 60.37 151.57C60.37 150.45 59.57 150.16 58.59 150.16C57.56 150.16 56.8 150.63 56.77 151.74H55.94V151.76H55.95ZM60.38 152.77H60.34C60.23 152.97 59.87 153.03 59.64 153.07C58.23 153.32 56.47 153.31 56.47 154.64C56.47 155.47 57.21 155.99 57.99 155.99C59.26 155.99 60.38 155.18 60.36 153.85V152.77H60.38Z" fill="#010101"/>
<path d="M63.03 149.68H63.8V150.83H63.84C64.25 149.98 65.13 149.45 66.07 149.48C66.97 149.48 67.77 149.92 68.02 150.81C68.41 149.97 69.26 149.45 70.18 149.48C71.67 149.48 72.44 150.26 72.44 151.87V156.49H71.6V151.92C71.6 150.8 71.18 150.19 69.99 150.19C68.55 150.19 68.14 151.38 68.14 152.65V156.49H67.31V151.87C67.32 150.95 66.94 150.18 65.89 150.18C64.45 150.18 63.87 151.26 63.86 152.69V156.49H63.03V149.68Z" fill="#010101"/>
<path d="M74.18 147.06H75.01V150.97H75.04C75.39 149.99 76.39 149.48 77.4 149.48C79.47 149.48 80.46 151.16 80.46 153.08C80.46 155 79.47 156.68 77.4 156.68C76.3 156.68 75.35 156.11 74.97 155.19H74.94V156.48H74.17V147.06H74.18ZM77.4 150.18C75.63 150.18 75.01 151.67 75.01 153.08C75.01 154.49 75.63 155.98 77.4 155.98C78.98 155.98 79.63 154.49 79.63 153.08C79.63 151.67 78.98 150.18 77.4 150.18Z" fill="#010101"/>
<path d="M82.4 153.31C82.41 154.53 83.05 155.99 84.64 155.99C85.85 155.99 86.51 155.29 86.78 154.25H87.61C87.26 155.79 86.36 156.69 84.64 156.69C82.48 156.69 81.56 155.03 81.56 153.09C81.56 151.29 82.47 149.49 84.64 149.49C86.81 149.49 87.7 151.4 87.63 153.32H82.4V153.31ZM86.81 152.6C86.77 151.35 85.99 150.17 84.65 150.17C83.31 150.17 82.54 151.36 82.41 152.6H86.82H86.81Z" fill="#010101"/>
<path d="M88.92 149.68H89.69V151.28H89.72C90.09 150.2 91.15 149.5 92.29 149.59V150.42C90.78 150.34 89.76 151.45 89.76 152.86V156.49H88.93V149.68H88.92Z" fill="#010101"/>
<path d="M103.16 153.08C103.16 155.03 102.03 156.68 99.94 156.68C97.85 156.68 96.72 155.03 96.72 153.08C96.72 151.13 97.85 149.48 99.94 149.48C102.03 149.48 103.16 151.13 103.16 153.08ZM97.55 153.08C97.55 154.53 98.34 155.98 99.94 155.98C101.54 155.98 102.33 154.53 102.33 153.08C102.33 151.63 101.54 150.18 99.94 150.18C98.34 150.18 97.55 151.63 97.55 153.08Z" fill="#010101"/>
<path d="M107.18 150.38H105.83V156.49H105.01V150.38H103.85V149.68H105.01V149.06C105 147.89 105.33 147.07 106.66 147.07C106.9 147.07 107.13 147.09 107.36 147.12V147.82C107.16 147.78 106.96 147.76 106.75 147.75C105.83 147.75 105.85 148.33 105.84 149.07V149.66H107.19V150.37L107.18 150.38Z" fill="#010101"/>
<path d="M119.01 149.91C118.69 148.46 117.49 147.62 116.12 147.62C113.63 147.62 112.58 149.71 112.58 151.77C112.58 153.83 113.64 155.91 116.13 155.91C117.87 155.91 118.98 154.56 119.15 152.89H120.05C119.8 155.2 118.33 156.68 116.13 156.68C113.16 156.68 111.68 154.34 111.68 151.77C111.68 149.2 113.16 146.86 116.13 146.86C117.91 146.86 119.68 147.93 119.92 149.91H119.01Z" fill="#010101"/>
<path d="M127.51 153.08C127.51 155.03 126.38 156.68 124.29 156.68C122.2 156.68 121.07 155.03 121.07 153.08C121.07 151.13 122.21 149.48 124.29 149.48C126.37 149.48 127.51 151.13 127.51 153.08ZM121.9 153.08C121.9 154.53 122.69 155.98 124.29 155.98C125.89 155.98 126.68 154.53 126.68 153.08C126.68 151.63 125.89 150.18 124.29 150.18C122.69 150.18 121.9 151.63 121.9 153.08Z" fill="#010101"/>
<path d="M128.91 149.68H129.68V150.83H129.72C130.13 149.98 131 149.45 131.95 149.48C132.85 149.48 133.65 149.92 133.9 150.81C134.29 149.97 135.14 149.45 136.06 149.48C137.55 149.48 138.32 150.26 138.32 151.87V156.49H137.49V151.92C137.49 150.8 137.07 150.19 135.88 150.19C134.44 150.19 134.03 151.38 134.03 152.65V156.49H133.2V151.87C133.2 150.95 132.83 150.18 131.77 150.18C130.33 150.18 129.75 151.26 129.74 152.69V156.49H128.91V149.68Z" fill="#010101"/>
<path d="M140.06 149.68H140.83V150.83H140.87C141.28 149.98 142.15 149.45 143.1 149.48C144 149.48 144.8 149.92 145.05 150.81C145.44 149.97 146.29 149.45 147.21 149.48C148.7 149.48 149.47 150.26 149.47 151.87V156.49H148.64V151.92C148.64 150.8 148.22 150.19 147.03 150.19C145.59 150.19 145.18 151.38 145.18 152.65V156.49H144.35V151.87C144.35 150.95 143.98 150.18 142.92 150.18C141.48 150.18 140.9 151.26 140.89 152.69V156.49H140.06V149.68Z" fill="#010101"/>
<path d="M151.7 153.31C151.7 154.53 152.35 155.99 153.94 155.99C155.15 155.99 155.81 155.29 156.08 154.25H156.91C156.56 155.79 155.66 156.69 153.94 156.69C151.78 156.69 150.86 155.03 150.86 153.09C150.86 151.29 151.77 149.49 153.94 149.49C156.11 149.49 157 151.4 156.93 153.32H151.7V153.31ZM156.11 152.6C156.07 151.35 155.29 150.17 153.95 150.17C152.61 150.17 151.84 151.36 151.71 152.6H156.12H156.11Z" fill="#010101"/>
<path d="M158.22 149.68H158.99V151.28H159.01C159.38 150.2 160.44 149.5 161.58 149.59V150.42C160.08 150.34 159.05 151.45 159.05 152.86V156.49H158.22V149.68Z" fill="#010101"/>
<path d="M167.1 151.82C166.88 150.8 166.26 150.18 165.17 150.18C163.57 150.18 162.78 151.63 162.78 153.08C162.78 154.53 163.57 155.98 165.17 155.98C166.2 155.98 167.04 155.17 167.15 154.05H167.98C167.75 155.69 166.69 156.69 165.17 156.69C163.08 156.69 161.95 155.04 161.95 153.09C161.95 151.14 163.08 149.49 165.17 149.49C166.62 149.49 167.74 150.27 167.93 151.83H167.1V151.82Z" fill="#010101"/>
<path d="M169.79 153.31C169.79 154.53 170.44 155.99 172.03 155.99C173.24 155.99 173.9 155.29 174.17 154.25H175C174.65 155.79 173.75 156.69 172.03 156.69C169.87 156.69 168.96 155.03 168.96 153.09C168.96 151.29 169.87 149.49 172.03 149.49C174.19 149.49 175.09 151.4 175.02 153.32H169.78L169.79 153.31ZM174.2 152.6C174.16 151.35 173.38 150.17 172.04 150.17C170.7 150.17 169.93 151.36 169.8 152.6H174.21H174.2Z" fill="#010101"/>
<path d="M78.71 113.57H175.44V58.96H89.3L78.71 113.57Z" fill="#010101"/>
<path d="M168.34 79.6399H154.12V65.4199H139.76V79.6399H125.54V93.9999H139.76V108.21H154.12V93.9999H168.34V79.6399Z" fill="white"/>
<path d="M175.56 141.6H39.18V141.89H175.56V141.6Z" fill="#010101"/>
<path d="M55.62 117.6C54.59 117.6 53.58 117.38 52.64 116.96C51.9 116.64 51.06 116.17 51.01 115.37C50.97 114.59 51.71 114.07 52.51 113.61C53.77 112.92 54.64 112.84 55.74 112.74C57.24 112.63 58.71 112.35 60.15 111.9C65.03 110.46 70.2 108.97 75.33 108.03L76.41 102.35C77.72 97.03 76.78 92.81 73.37 88.66C73.26 88.52 73.04 88.33 72.48 88.33C71.98 88.33 71.31 88.48 70.48 88.78C71.34 91.54 71.93 94.23 72.5 96.86L72.61 97.36V97.39C72.93 96.75 73.34 96.61 73.65 96.61C74.27 96.61 74.78 97.2 75.07 98.27C75.34 99.25 75.56 100.27 75.01 101.05C74.66 101.54 74.07 101.83 73.25 101.89C73.11 101.9 72.97 101.91 72.83 101.91C72 101.91 71.34 101.6 70.72 100.9C69.85 100.81 69.36 99.81 68.99 99.08L68.91 98.9C67.5 96.08 65.73 92.89 63.22 90.56C59.39 89.47 57.02 86.02 56 84.53C55.82 84.26 55.66 84.03 55.57 83.93C55.3 83.68 55.02 83.44 54.72 83.23C53.31 82.14 50.71 80.13 49.2 77.02C46.94 76.69 44.52 76.24 42.04 75.32C41.77 75.37 41.51 75.48 41.29 75.64C40.95 75.85 40.56 76.08 40.08 76.08C39.26 76.08 38.57 75.43 37.78 73.91C36.86 71.83 39.71 70.37 42.71 68.83C43.76 68.32 44.78 67.76 45.78 67.15C46 67.01 46.21 66.85 46.43 66.69C47.17 66.14 47.94 65.57 48.83 65.57C49.09 65.57 49.35 65.62 49.59 65.72C50.55 64.62 51.7 63.69 52.98 62.98L53.06 62.93L53.15 62.91C54.41 62.64 55.64 62.27 56.83 61.79C57.07 61.7 57.32 61.65 57.58 61.65C58.21 61.63 58.8 61.95 59.13 62.48C59.4 62.97 59.39 63.58 59.09 64.05C57.68 66.55 55.4 67.93 53.52 68.78C55.35 70.29 56.95 71.03 58.4 71.03C60.2 71.03 61.84 69.9 63.43 67.56C68.81 59.43 74.33 55.48 80.33 55.48C87.65 55.48 95.53 61.26 105.12 73.68C113.11 84.03 120.44 89.51 126.31 89.51C129.65 89.51 132.51 87.67 134.78 84.06C135.24 83.33 135.8 82.92 136.35 82.92C136.67 82.92 136.98 83.07 137.17 83.34C137.37 83.61 137.55 84.13 137.26 85.03C135 92.13 130.99 95.74 125.34 95.74C119.24 95.74 111.39 91.79 99.93 82.95C99.49 83.41 99.05 83.88 98.62 84.34C95.85 87.31 92.99 90.37 87.77 92.19C84.92 97.24 82.19 102.76 81.31 109.03L81.24 109.54C80.91 111.94 80.56 114.66 76.61 114.89C70.92 115.21 65.25 115.84 59.63 116.77L59.37 116.85C58.2 117.24 56.99 117.63 55.61 117.63V117.6H55.62Z" fill="white"/>
<path d="M136.68 84.82C137.15 83.34 136.15 83.04 135.32 84.37C128.41 95.39 116.81 89.82 104.63 74.05C88.22 52.79 75.82 49.98 63.95 67.89C60.26 73.33 56.34 72.18 52.36 68.58C54.78 67.62 57.13 66.26 58.55 63.73C59.11 62.74 58.03 61.97 57.06 62.36C55.84 62.85 54.57 63.24 53.28 63.51C51.91 64.27 50.71 65.28 49.73 66.5C48.49 65.57 47.33 66.85 46.12 67.66C43.1 69.66 37.4 71.49 38.35 73.62C40.12 77.03 40.71 74.62 42.16 74.7C44.72 75.66 47.19 76.11 49.64 76.46C51.5 80.58 55.4 82.77 56.06 83.54C56.72 84.31 59.14 88.84 63.55 90.01C66 92.24 67.8 95.25 69.48 98.64C69.85 99.38 70.32 100.46 71.02 100.28C71.82 101.32 72.5 101.34 73.21 101.29C75.12 101.15 74.81 99.71 74.47 98.46C74.14 97.28 73.52 96.75 73.1 97.88C72.86 98.52 72.4 98.57 72.01 97.57C71.35 94.56 70.72 91.55 69.7 88.44C71.84 87.56 73.19 87.49 73.85 88.29C77.92 93.26 78.16 97.87 77.02 102.49L75.86 108.59C70.67 109.52 65.5 110.99 60.33 112.52C55.83 113.85 55.05 112.95 52.82 114.17C51.59 114.86 50.9 115.54 52.89 116.4C55.51 117.53 57.47 116.8 59.5 116.15C65.16 115.21 70.86 114.58 76.58 114.25C80.25 114.04 80.33 111.54 80.7 108.92C81.58 102.7 84.25 97.15 87.36 91.66C93.62 89.55 96.4 85.65 99.89 82.11C116.48 94.99 131.17 102.21 136.68 84.83V84.82Z" fill="#010101"/>
</g>
<defs>
<clipPath id="clip0_142_2333">
<rect width="212" height="212" fill="white"/>
</clipPath>
</defs>
</svg>
