<svg fill="none" height="212" viewBox="0 0 212 212" width="212" xmlns="http://www.w3.org/2000/svg" xmlns:xlink="http://www.w3.org/1999/xlink"><clipPath id="a"><path d="m0 0h212v212h-212z"/></clipPath><g clip-path="url(#a)"><path d="m206 0h-200c-3.31371 0-6 2.68629-6 6v200c0 3.314 2.68629 6 6 6h200c3.314 0 6-2.686 6-6v-200c0-3.31371-2.686-6-6-6z" fill="#f5f5f5"/><path d="m180.66 85.7701c-1.43-1.44-3.38-2.25-5.41-2.25h-21.67c-.05-.1-.11-.2-.18-.3-.17-.28-.37-.54-.61-.77-.21-.2-.45-.38-.7-.53-.19-.11-.39-.2-.59-.27-.23-.08-.46-.14-.7-.18l-.45-.07c-1.05-.17-2.12-.26-3.19-.27h-.44c-.78.04-1.57.12-2.34.25-.56.09-1.11.14-1.68.17-.1-.04-.18-.07-.26-.09-.16-.05-.32-.08-.48-.09h-.14c-.1-.04-.21-.06-.31-.09-.05-.03-.11-.06-.16-.09-.07-.03-.13-.06-.2-.09-.11-.09-.22-.17-.34-.24-.04-.02-.09-.05-.13-.07-.08-.07-.17-.13-.27-.18-.07-.04-.13-.07-.19-.1-.06-.07-.11-.13-.18-.21-.07-.07-.14-.14-.22-.21-.07-.13-.16-.25-.25-.36-.11-.13-.23-.26-.36-.37l-.12-.16-.08-.1v-.02c-.07-.1-.13-.18-.18-.25l-.06-.09-.03-.07c-.13-.31-.24-.63-.32-.96-.09-.3-.13-.61-.12-.92 0-.16 0-.33.03-.49.02-.06.06-.2.11-.32.03-.08.06-.16.09-.23s.04-.11.06-.16c.06-.11.11-.22.15-.33.06-.17.1-.33.13-.49.06-.09.12-.18.17-.27.1-.19.17-.39.23-.59.07-.13.18-.3.3-.52.06-.11.11-.22.15-.33.1-.12.18-.25.26-.38.06-.11.11-.23.16-.35.13-.15.23-.31.31-.49.09-.18.16-.36.21-.55.02-.07.04-.13.05-.18s.06-.09.08-.13c.08-.15.15-.31.2-.48l.03-.04c.09-.15.17-.31.23-.48.04-.1.07-.21.09-.31 0-.03.03-.06.04-.09.06-.16.11-.31.15-.47.07-.24.13-.49.18-.76.06-.3.09-.6.09-.91 0-.17 0-.35-.04-.52-.06-.36-.18-.71-.35-1.04-.22-.43-.51-.83-.84-1.18-.45-.49-.96-.92-1.52-1.27-.29-.19-.59-.35-.91-.48-.4-.17-.82-.27-1.26-.3h-.17c-.24 0-.49.02-.73.07s-.48.12-.72.2c-.19.07-.36.13-.49.18-.23.08-.4.16-.56.24-.24.11-.45.21-.58.27h-.03c-.06.03-.12.04-.18.06-.15.05-.3.11-.44.18-.06 0-.13.03-.21.05-.21.06-.41.14-.6.24-.14.08-.28.18-.4.28-.07.04-.14.08-.21.13v.01c-.11.08-.2.15-.27.21-.04.01-.07.02-.11.04-.2.1-.39.22-.56.36-.15.08-.3.18-.43.3-.22.12-.41.26-.58.44l-.13.08c-.12.09-.2.16-.26.21-.27.17-.55.32-.77.44-.17.09-.35.17-.53.23-.26.05-.52.08-.79.07-.26 0-.53-.02-.79-.05-.17-.02-.33-.05-.49-.09-.12-.04-.24-.06-.37-.09-.1-.05-.19-.08-.29-.13-.12-.04-.29-.12-.44-.19s-.29-.15-.3-.16l-.2-.12c-.13-.12-.26-.23-.41-.32-.09-.06-.19-.11-.29-.15-.08-.1-.18-.22-.3-.36-.05-.05-.09-.1-.14-.14-.06-.1-.12-.19-.18-.28l-.02-.02c-.07-.1-.16-.19-.24-.27-.12-.23-.22-.48-.28-.73-.09-.34-.15-.69-.2-1.04-.03-.2-.07-.4-.13-.6.02-.2.03-.39.03-.57 0-.22-.01-.42-.02-.6s-.03-.33-.04-.49c-.04-.47-.04-1.15-.05-1.84 0-.35-.02-.7-.05-1.05-.02-.26-.05-.51-.1-.77 0-.2-.02-.4-.07-.6-.07-.3-.14-.6-.23-.91-.1-.34-.21-.68-.34-1.01-.25-.6-.73-1.08-1.34-1.32-.17-.07-.39-.16-.63-.25-.27-.11-.55-.19-.84-.26h-.01s-.13-.05-.28-.1c-.21-.07-.42-.13-.63-.18-.14-.03-.26-.06-.41-.09-.24-.05-.48-.08-.72-.08-.2 0-.4.02-.6.07-.12.03-.23.06-.34.11-.18.03-.36.08-.53.15-.24.1-.46.22-.67.37-.2.15-.4.31-.57.5l-.13.13-.03.03c-.4.38-.77.79-1.11 1.22-.3.38-.55.74-.75 1.02l-.11.1c-.06.08-.15.18-.27.35-.03.05-.07.1-.11.16-.11.13-.2.27-.28.42-.05.09-.09.17-.12.26l-.04.04c-.13.14-.25.3-.34.46-.12.2-.2.41-.26.63-.08.14-.14.29-.2.45-.03.04-.05.09-.08.14-.08.1-.14.2-.2.31l-.12.27c-.12.13-.23.27-.33.42s-.18.31-.26.48v.03l-.06.04c-.11.09-.23.18-.38.29-.39.28-.83.48-1.29.62-.55.18-1.13.27-1.7.27-.26 0-.51-.02-.76-.08-.37-.08-.66-.13-.84-.18-.15-.13-.32-.24-.5-.32-.09-.04-.18-.08-.26-.11-.17-.19-.36-.36-.58-.49l-.15-.08c-.07-.12-.15-.24-.24-.35-.11-.14-.23-.27-.36-.38l-.03-.03c-.06-.14-.13-.27-.21-.39-.1-.17-.22-.31-.35-.44-.05-.15-.12-.29-.19-.43-.04-.08-.08-.14-.12-.2-.05-.15-.12-.29-.19-.43-.12-.23-.22-.38-.29-.49l-.07-.12c-.05-.1-.12-.24-.22-.46-.13-.27-.27-.53-.43-.79-.08-.18-.18-.35-.3-.51-.06-.08-.13-.16-.2-.23-.21-.33-.48-.61-.81-.83l-.16-.2c-.28-.37-.6-.71-.95-1.02-.49-.43-1.07-.74-1.7-.94h-.01c-.25-.08-.51-.11-.77-.11-.28 0-.56.04-.83.13-.12.04-.25.09-.36.14-.19.04-.42.09-.68.16-.28.07-.57.16-.84.27-.25.1-.5.22-.73.36-.46.28-.85.66-1.15 1.1-.18.27-.32.57-.41.88-.07.14-.14.28-.18.43-.06.2-.11.41-.15.62-.02.08-.03.14-.04.19s-.05.09-.07.13c-.12.23-.2.48-.24.74-.02.11-.03.23-.03.34-.07.28-.12.57-.16.85-.04.41-.07.83-.06 1.24 0 .88.07 1.67.06 2.29v.3c-.07.21-.12.42-.15.64-.02.16-.03.23-.04.25v.05s-.03.07-.05.15c-.03.12-.05.21-.06.3-.04.07-.08.15-.11.23v.02c-.06.09-.1.18-.14.27-.06.11-.11.21-.15.33-.05.07-.09.15-.13.22-.02.03-.03.07-.05.1l-.07.07c-.14.14-.32.3-.45.42-.04.02-.08.04-.12.07-.15.1-.28.21-.4.33l-.06.03-.05.03h-.02c-.18.06-.36.14-.53.23s-.32.2-.47.33l-.1.04c-.08.03-.16.06-.24.08-.51.14-1.03.22-1.56.23-.11 0-.21 0-.32-.02h-.06c-.16-.07-.32-.12-.48-.16-.07-.05-.13-.09-.2-.13-.09-.05-.18-.09-.26-.12l-.03-.02c-.08-.04-.17-.08-.25-.12l-.04-.02c-.09-.05-.17-.08-.25-.11s-.13-.07-.18-.1c-.08-.04-.14-.06-.19-.08-.12-.1-.25-.19-.38-.26-.09-.05-.18-.09-.26-.12-.11-.06-.23-.12-.35-.16l-.05-.04c-.17-.19-.37-.36-.6-.49-.09-.05-.17-.09-.26-.13l-.06-.06c-.07-.05-.15-.1-.23-.15-.08-.07-.16-.13-.24-.18-.16-.1-.33-.19-.5-.27-.22-.21-.48-.38-.77-.49l-.03-.02c-.09-.05-.18-.09-.26-.12l-.03-.02c-.08-.05-.17-.09-.26-.12-.02 0-.03-.02-.05-.03-.09-.05-.17-.08-.24-.11l-.06-.03c-.24-.12-.49-.21-.76-.25-.06 0-.1 0-.15-.02l-.05-.02c-.13-.08-.26-.16-.4-.22-.82-.34-1.74-.38-2.58-.11-.38.12-.75.29-1.09.51-.14.09-.26.17-.34.23-.31.12-.59.3-.83.53l-.08.05c-.28.16-.53.36-.75.59-.27.28-.49.6-.67.95-.18.37-.3.76-.36 1.16-.04.23-.06.45-.06.68 0 .31.03.62.08.93.07.4.17.8.31 1.18.03.09.07.18.11.29.02.2.06.39.12.58.08.24.2.46.34.67h.01c.09.26.2.54.35.85l.06.12c.05.16.12.31.2.45l.15.24c.06.14.13.28.22.4.02.04.06.07.09.11s0 .01 0 .02c.09.28.2.55.33.81l.02.04c.07.13.15.26.24.38 0 .01.02.02.03.03.01.05.02.09.03.13.08.24.2.47.34.67l.02.02c.06.18.12.36.16.53.07.24.11.48.12.73 0 0 0 .06-.02.15-.02.13-.06.32-.11.55v.06c-.07.12-.12.24-.16.36s-.07.24-.09.36c-.14.19-.24.41-.31.64-.04.06-.08.12-.11.18-.09.17-.13.25-.17.3s-.07.1-.16.22c-.27.35-.58.67-.91.97-.14.13-.29.24-.44.35-.09.06-.18.12-.27.16-.31.13-.63.23-.96.28-.39.06-.78.09-1.18.09-.73 0-1.57-.08-2.51-.18-1.02-.12-2.05-.19-3.07-.2-1.05-.01-2.09.11-3.11.36-.62.16-1.15.56-1.47 1.12l-.07.09c-.11.14-.22.28-.31.43-.08.14-.16.29-.21.44-.15.19-.27.39-.36.62-.02.05-.03.09-.04.13h-18.88c-4.23 0-7.65 3.44-7.64 7.67v42.5599c0 4.23 3.42 7.66 7.64 7.67h33.33c-.05.09-.09.17-.12.27-.12.15-.23.31-.31.49-.09.18-.16.36-.21.55-.02.07-.04.13-.05.18s-.06.09-.08.13c-.08.15-.15.31-.2.48l-.03.04c-.09.15-.17.31-.23.48-.04.1-.06.2-.09.31-.01.03-.03.06-.04.09-.06.16-.11.31-.15.47-.07.24-.13.49-.18.76-.06.3-.09.6-.09.91 0 .17.01.35.04.52.06.36.18.71.34 1.04.22.43.51.83.84 1.18.45.49.96.92 1.52 1.27.29.19.59.35.91.48.4.17.82.27 1.26.3h.16c.24 0 .49-.03.73-.08s.48-.12.72-.2c.19-.07.36-.13.49-.18.23-.08.4-.16.56-.24.24-.11.45-.21.58-.27h.03c.06-.03.12-.04.19-.06.15-.05.3-.11.44-.18.06 0 .13-.03.22-.05.21-.06.41-.14.6-.24.14-.08.28-.18.4-.29.07-.04.13-.07.2-.12.1-.07.2-.14.29-.22.03 0 .06-.02.09-.03h.03c.2-.11.38-.23.55-.38.15-.08.3-.18.43-.29.21-.12.41-.27.58-.44l.11-.08c.12-.09.2-.16.26-.21.27-.16.55-.32.77-.44.17-.09.35-.17.53-.23.26-.05.52-.08.79-.07.27 0 .53.02.79.05.17.02.33.05.49.09.13.04.25.06.38.09.1.05.19.09.29.13.12.04.29.12.44.19s.29.15.3.16l.2.12c.13.12.27.23.42.33.09.05.18.1.28.14.08.11.18.23.31.36.04.05.09.09.13.13.06.1.12.19.18.28l.02.03c.07.09.16.18.24.26.12.23.21.47.28.72.09.34.16.69.2 1.04.03.2.07.4.13.59-.02.19-.03.39-.03.57 0 .22.01.42.02.6s.03.33.04.5c.03.47.04 1.15.05 1.84 0 .35.02.7.05 1.05.02.26.05.51.1.77 0 .2.03.41.07.6.07.3.14.59.23.91.09.34.21.68.34 1.01.25.6.73 1.08 1.34 1.32.17.07.39.16.63.25.27.11.55.19.84.26h.01s.13.05.28.1c.21.07.42.13.63.18l.41.09c.24.05.48.08.72.08.2 0 .41-.02.6-.07.27-.09.55-.17.83-.25h.03c.23-.11.46-.23.67-.38.2-.15.4-.31.57-.49.06-.06.1-.11.13-.13l.03-.03c.4-.38.77-.79 1.11-1.23.3-.38.55-.74.75-1.02l.07-.08c.06-.07.15-.17.27-.34.04-.05.08-.11.12-.18.17-.2.3-.43.4-.68.01 0 .02-.02.04-.04.13-.14.25-.29.34-.46.12-.2.2-.41.26-.64.08-.14.14-.29.19-.44.03-.04.05-.09.09-.14.07-.1.14-.21.2-.31.05-.09.09-.18.12-.27.12-.13.23-.27.33-.42s.18-.31.26-.48c0 0 0-.02.01-.03l.05-.04c.11-.09.23-.18.38-.29.39-.28.83-.48 1.29-.62.55-.18 1.13-.27 1.7-.27.26 0 .51.02.76.07.37.08.66.13.84.18.15.13.32.24.5.32.09.04.17.08.25.11.17.19.37.36.58.5.04.03.09.05.14.07.07.12.15.24.24.35.11.14.23.27.36.38l.03.03c.06.14.13.27.21.4.1.15.22.3.35.43.05.15.11.29.18.43.04.08.08.14.12.2.05.15.12.29.19.43.12.23.22.38.29.48l.07.12c.05.1.12.24.22.46.13.27.27.53.43.78.08.18.18.34.29.49.06.09.13.17.2.24.14.22.3.41.49.58.1.09.2.17.31.24l.16.2c.28.37.6.71.95 1.02.5.43 1.07.75 1.7.94h.01c.25.07.51.11.77.11.28 0 .56-.04.83-.13.12-.04.25-.08.36-.14.19-.04.42-.09.68-.16.28-.07.56-.16.84-.27.25-.1.5-.22.73-.36.46-.28.85-.65 1.15-1.09.18-.27.32-.57.41-.88.07-.14.14-.29.18-.44.07-.24.12-.45.15-.61.01-.07.03-.14.04-.18s.05-.09.07-.13c.12-.23.2-.48.23-.74.02-.11.03-.23.03-.34.07-.28.12-.57.16-.85.05-.41.07-.83.06-1.24 0-.88-.06-1.67-.06-2.29v-.3c.07-.21.12-.42.15-.64.02-.16.03-.22.03-.25v-.05s.03-.08.05-.15c.03-.11.05-.21.06-.3s.08-.16.11-.23v-.02c.06-.09.1-.17.14-.27.06-.1.11-.21.15-.32.05-.07.09-.15.13-.23.02-.03.03-.07.05-.1s.04-.04.07-.07c.14-.14.32-.3.45-.42.04-.02.07-.04.11-.07.15-.1.28-.21.4-.33l.05-.03.05-.03h.01c.18-.06.36-.14.53-.23s.33-.2.47-.33l.1-.04c.08-.03.16-.06.24-.08.51-.14 1.04-.22 1.57-.23.11 0 .21 0 .32.02h.06c.16.07.32.12.48.16h.01c.07.05.13.09.2.13.08.05.17.09.26.12l.04.02c.08.04.17.08.25.12l.03.02c.09.05.18.08.25.11s.13.07.18.1c.08.04.14.06.19.08.12.1.24.18.38.26.08.05.17.09.26.12.11.06.23.12.35.16l.04.03c.18.2.38.37.61.5.08.05.17.09.26.13.02.02.04.04.06.05.07.05.15.1.22.15.08.07.16.13.24.18.16.1.32.19.5.27.15.14.32.26.51.36.08.04.17.08.26.12h.03c.09.06.17.1.26.14l.03.02c.09.05.17.09.26.12l.06.04c.09.04.16.08.24.11l.06.03c.24.12.49.21.76.25.05 0 .1 0 .14.02l.05.02c.13.08.27.16.41.22.8.33 1.7.37 2.53.12.38-.12.75-.29 1.09-.51.15-.09.26-.17.34-.23.12-.05.23-.1.34-.16.18-.1.34-.22.49-.36.03 0 .05-.03.09-.05.28-.16.53-.36.75-.59.27-.28.49-.6.67-.95.18-.37.3-.76.36-1.16.04-.23.06-.45.06-.68 0-.31-.03-.62-.08-.93-.07-.4-.17-.8-.31-1.18-.03-.09-.07-.18-.11-.29-.02-.2-.06-.39-.12-.58-.08-.24-.2-.47-.34-.67-.09-.26-.2-.54-.35-.85 0 0-.04-.09-.06-.12-.05-.16-.12-.31-.2-.45-.05-.09-.1-.17-.15-.24-.06-.14-.13-.27-.21-.39h35.51c4.23 0 7.65-3.44 7.64-7.67v-42.5699c.03-2.01-.73-3.96-2.12-5.42z" fill="#fff" stroke="#000" stroke-miterlimit="10"/><g fill="#010101"><path d="m79.53 118.02c-.04.2.13.18.28.18.04-.19-.13-.17-.28-.18z"/><path d="m175.25 85.9201h-23.27c-.2-.63-.56-1.46-.86-1.75s-.59-.32-1.16-.41c-1.05-.17-2.1-.25-3.16-.23-1.6.05-3.39.57-5.02.37v-.14h-.29c-.24-.02-.32 0-.43-.14-.03-.04-.23.02-.29 0-.1-.03-.21-.13-.29-.14-.16 0-.08-.11-.15-.14-.2-.09-.39-.03-.58-.13-.04-.02-.11-.24-.15-.29s-.23.04-.29 0-.11-.24-.15-.28-.23.04-.29 0c-.19-.15-.35-.46-.59-.71-.18-.16-.38-.3-.58-.42-.05-.04.03-.24 0-.29-.08-.09-.2-.18-.29-.28-.17-.2-.37-.47-.44-.57-.11-.16-.18-.27-.29-.43-.06-.09-.11-.19-.15-.28-.18-.42-.34-.85-.45-1.28-.23-.79-.29-1.62-.18-2.44.09-.45.23-.88.41-1.3v-.14c0-.15.12-.09.14-.15.08-.23.05-.53.13-.72.03-.07.24-.21.28-.29.08-.15.07-.31.13-.43.12-.23.28-.47.42-.73.08-.15.05-.27.13-.43.04-.08.23-.2.28-.29.08-.15.05-.27.14-.43.04-.08.24-.2.28-.29.09-.18.14-.55.27-.87.03-.07.11 0 .14-.15.02-.09-.04-.21 0-.29s.25-.2.28-.29-.03-.2 0-.29.13-.1.14-.15c.15-.38.31-1.13.26-1.44-.14-.84-1.79-2.21-2.62-2.25-.3-.01-.73.15-1.14.31s-1.16.58-1.43.6c-.16.01-.07.11-.14.15-.21.1-.55.06-.72.16-.05.09-.1.19-.14.29-.04.05-.23-.03-.29 0-.15.1-.32.36-.42.44-.07.05-.21-.03-.29 0-.05.02-.09.25-.14.29s-.21-.03-.29 0-.09.25-.14.29-.21-.03-.29 0c-.1.05-.1.28-.28.29s-.3.22-.43.29c-.69.42-1.48.88-2.14 1.04-1.07.26-2.59.12-3.31-.09-.26-.07-.4-.02-.58-.13-.09-.06-.19-.1-.29-.14-.4-.15-.79-.34-1.16-.56-.31-.18-.4-.2-.58-.42-.04-.05-.23.04-.29 0-.31-.23-.62-.7-.88-.99-.06-.07-.23-.06-.29-.14-.09-.12-.07-.32-.15-.43-.05-.07-.23-.07-.29-.14-.06-.14-.11-.28-.15-.43-.45-.82-.63-1.65-.76-2.57-.06-.4-.21-.58-.16-1 .04-.48.04-.96-.02-1.44-.09-1.19 0-2.83-.21-3.59-.02-.09.02-.2 0-.29-.11-.53-.26-1.06-.46-1.57-.38-.16-.76-.3-1.16-.41-.27-.06-.55-.2-.87-.27-.6-.13-.7-.18-.86 0-.03.04-.24-.02-.29 0-.3.13-.49.38-.71.59-.58.58-1.1 1.21-1.55 1.89-.14.19-.42.47-.42.58 0 .16-.1.07-.14.15-.07.14-.05.28-.14.43-.07.12-.35.31-.42.44-.01.02 0 .11 0 .14 0 .26-.27.36-.28.58 0 .26-.27.36-.28.58 0 .16-.1.07-.14.15-.07.14-.05.29-.14.43s-.3.24-.42.44-.17.45-.28.58c-.29.33-.63.63-.99.88-1.36 1.03-3.81 1.67-5.72 1.25-.63-.14-1.09-.19-1.59-.4-.07-.03-.21-.24-.29-.28-.2-.1-.4-.02-.58-.13s-.35-.46-.44-.57c-.04-.05-.24.05-.29 0-.15-.13-.3-.27-.44-.42-.1-.12-.17-.41-.3-.57s-.3-.24-.44-.42c-.08-.11-.18-.2-.29-.28-.05-.04.03-.24 0-.29-.1-.15-.35-.28-.44-.42-.06-.14-.11-.28-.15-.43-.02-.26-.28-.36-.3-.57-.02-.24-.32-.62-.45-.85-.2-.38-.34-.74-.59-1.14-.01-.02-.12.02-.14 0-.05-.04.03-.24 0-.29-.08-.1-.28-.1-.29-.28-.02-.28-.34-.3-.44-.42-.63-.75-.99-1.41-1.9-1.69-.18-.06-.39.11-.57.15-1 .23-2.24.44-2.27 1.47 0 .14-.13.1-.14.15-.16.5-.16 1.09-.41 1.3-.04.03.02.24 0 .29-.47 1.32-.07 3.31-.2 4.89-.02.18-.11.21-.14.43-.02.25-.07.49-.13.73-.11.48-.1.72-.27.87-.04.03.03.23 0 .29 0 .02-.13-.01-.14 0s.03.23 0 .29c0 .02-.13-.01-.14 0-.05.04.04.23 0 .29-.08.11-.28.11-.28.29-.01.29-1.37 1.46-1.41 1.46-.16.01-.07.1-.14.15-.32.18-.5.31-.71.44-.14.09-.26.06-.43.15-.08.04-.18.24-.28.29-.14.08-.32.1-.43.15-.81.37-2.94.77-4.02.35-.28-.11-.74-.15-1.01-.27-.02 0 .01-.13 0-.14s-.23.03-.29 0c-.02 0 .01-.13 0-.14s-.23.03-.29 0c-.02 0 .01-.13 0-.14s-.23.03-.29 0c-.02 0 .01-.13 0-.14-.14-.05-.29-.1-.43-.14-.12-.07-.22-.17-.29-.28-.03-.04-.23.03-.29 0-.02 0 .01-.13 0-.14-.04-.05-.23.04-.29 0-.18-.12-.26-.3-.44-.42-.11-.08-.21-.17-.29-.28-.04-.05-.23.04-.29 0-.22-.15-.23-.42-.44-.42-.17 0-.07-.09-.15-.14-.32-.2-.55-.24-.87-.42-.02-.01.01-.12 0-.14s-.23.03-.29 0c-.02 0 .01-.13 0-.14s-.23.03-.29 0c-.02 0 .01-.13 0-.14s-.23.03-.29 0c-.02 0 .01-.13 0-.14s-.24.03-.29 0c-.02 0 .01-.13 0-.14s-.23.02-.29 0c-.24-.09-.57-.27-.73-.27s-.08-.12-.15-.14c-.85-.34-1.46.19-1.86.46-.09.06-.18.11-.29.15-.17.01-.06.09-.14.15-.25.19-.52.24-.71.44-.23.24-.37.54-.41.87-.11.63.25 1.83.46 2 .04.03 0 .37 0 .43.01.15.13.09.15.14.15.4.29.81.45 1.14.06.09.11.19.15.29.02.26.28.36.3.57.01.16.11.07.15.14.18.35.26.75.45 1.14.05.04.1.09.15.14.17.2.27.45.3.71 0 .15.12.08.15.14.33.83.6 1.75.62 2.58.01.61-.25 1.38-.26 1.73 0 .14-.12.09-.14.15-.09.28-.05.7-.13.86-.02.04-.25.1-.28.15-.05.14-.1.29-.14.43 0 .16-.1.07-.14.15-.16.31-.34.6-.56.87-.69.88-1.68 1.82-2.55 2.2-3.37 1.49-7.35-.51-11.2.48-.11.24-.27.34-.42.58-.09.14-.05.27-.13.43-.04.08-.24.19-.28.29s.04.31 0 .43c-.02.05-.26.22-.28.29-.05.18.04.39 0 .57 0 .01-.12.05-.14.15v.14h-20.73c-2.9 0-5.25 2.36-5.24 5.26v42.6599c0 2.9 2.34 5.26 5.24 5.26h37.11c-.05.14-.1.25-.12.3v.15c0 .15-.12.09-.14.15-.08.23-.05.53-.13.73-.03.07-.24.21-.28.29-.08.15-.07.31-.14.43-.12.23-.28.47-.42.73-.08.15-.05.27-.13.43-.04.08-.23.2-.28.29-.08.15-.05.27-.14.43-.04.08-.24.2-.28.29-.09.18-.14.55-.27.87-.03.07-.11 0-.14.15-.02.09.04.21 0 .29s-.25.2-.28.29.03.2 0 .29-.13.1-.14.15c-.15.38-.31 1.13-.26 1.44.14.84 1.79 2.21 2.62 2.25.3 0 .73-.15 1.14-.31s1.16-.58 1.43-.6c.16 0 .07-.11.14-.15.21-.1.55-.06.72-.16.05-.09.1-.19.14-.29.04-.05.23.03.29 0 .15-.1.32-.36.42-.44.07-.05.21.03.29 0 .05-.02.09-.25.14-.29s.22.03.29 0 .09-.25.14-.29.21.03.29 0c.11-.05.1-.28.28-.29s.3-.22.43-.29c.69-.42 1.48-.88 2.14-1.04 1.07-.26 2.59-.12 3.31.09.26.07.39.02.58.13.09.06.19.1.29.14.4.15.79.34 1.16.56.31.18.4.21.58.42.04.05.23-.04.29 0 .31.23.61.7.88.99.06.07.23.06.29.14.09.12.07.32.15.43.05.07.23.07.29.14.06.14.11.28.15.43.45.82.62 1.65.76 2.57.06.4.21.58.16 1-.04.48-.04.96.02 1.44.09 1.19 0 2.83.21 3.59.02.09-.02.2 0 .29.11.54.26 1.06.46 1.57.38.16.76.3 1.16.41.27.06.55.2.87.27.6.13.7.18.86 0 .03-.04.24.02.29 0 .3-.13.49-.39.71-.59.58-.58 1.1-1.21 1.55-1.89.14-.19.42-.47.42-.58 0-.16.1-.07.14-.15.07-.14.05-.28.14-.43.07-.12.35-.31.42-.44.01-.03 0-.11 0-.14 0-.27.27-.37.28-.58 0-.26.27-.36.28-.58 0-.16.1-.07.14-.15.07-.14.05-.29.13-.43s.3-.24.42-.44.18-.45.28-.58c.29-.33.63-.63.99-.88 1.36-1.03 3.81-1.67 5.72-1.25.62.14 1.09.18 1.59.4.07.03.21.24.29.28.19.09.4.02.58.13s.35.46.44.57c.04.05.24-.05.29 0 .16.13.3.27.44.42.1.12.17.41.3.57s.3.24.44.42c.08.11.18.2.29.28.05.04-.03.24 0 .29.1.15.35.28.44.42.06.14.11.28.15.43.02.26.28.36.3.57.02.24.32.62.45.86.2.38.34.74.59 1.14.01.02.12-.02.15 0s-.04.24 0 .29c.08.11.28.1.29.28.02.28.33.3.44.42.62.75.98 1.41 1.89 1.69.18.06.39-.11.57-.15 1-.23 2.24-.44 2.27-1.47 0-.14.13-.1.14-.15.16-.5.16-1.09.41-1.3.04-.03-.02-.24 0-.29.47-1.32.07-3.31.2-4.89.02-.18.11-.21.14-.43.02-.24.07-.48.13-.72.11-.48.1-.73.27-.87.04-.03-.03-.23 0-.29 0-.02.13 0 .14 0s-.03-.23 0-.29c.01-.02.13 0 .14 0 .05-.04-.04-.23 0-.29.08-.11.27-.11.28-.29.01-.29 1.36-1.46 1.41-1.46.16 0 .07-.1.14-.15.31-.18.5-.31.71-.44.14-.09.26-.06.43-.15.08-.04.19-.24.28-.29.14-.08.32-.1.43-.15.81-.36 2.94-.77 4.02-.35.28.11.73.15 1.01.27.02 0 0 .13 0 .14s.23-.03.29 0c.02 0 0 .13 0 .14s.23-.03.29 0c.02 0 0 .13 0 .14s.23-.03.29 0c.02 0 0 .13 0 .14.14.05.29.1.43.14.12.07.22.17.29.28.03.04.23-.03.29 0 .02 0 0 .13 0 .14.04.05.23-.04.29 0 .18.12.26.3.44.42.11.08.21.17.29.28.04.05.24-.04.29 0 .22.15.23.42.44.42.17 0 .07.09.15.14.32.2.55.24.87.41.02 0 0 .12 0 .14s.23-.03.29 0c.02 0 0 .13 0 .14s.23-.03.29 0c.02 0 0 .13 0 .14s.23-.03.29 0c.02 0 0 .13 0 .14s.23-.03.29 0c.02 0 0 .13 0 .14s.24-.02.29 0c.24.09.56.27.73.27s.08.11.15.14c.85.34 1.46-.19 1.86-.46.09-.06.18-.11.28-.15.17 0 .06-.09.14-.15.25-.18.52-.24.71-.44.23-.24.37-.54.41-.87.11-.63-.25-1.83-.47-2-.02-.14-.02-.29 0-.43 0-.15-.13-.09-.15-.14-.15-.4-.29-.81-.45-1.14-.06-.09-.11-.19-.15-.29-.02-.26-.28-.36-.3-.57 0-.16-.11-.07-.15-.14-.18-.35-.26-.75-.45-1.14-.05-.04-.1-.09-.15-.14-.17-.2-.27-.45-.3-.71 0-.15-.12-.08-.15-.14-.2-.5-.36-1.01-.48-1.53h39.18c2.9 0 5.25-2.36 5.24-5.26v-42.6499c0-2.9-2.34-5.26-5.24-5.26h.05zm-17.84 19.9899h2.46v-13.3699h-2.46v-2.49h7.73v2.49h-2.46v5.16h2.67l4.37-5.22h-2.2v-2.44h7.26v2.49h-2.03l-5.35 6.11 5.5 7.2599h2.15v2.49h-7.64v-2.44h2.2l-4.37-5.9h-2.55v5.84h2.46v2.49h-7.75v-2.49.02zm-7.7-19.2199s-.07.12-.09.09.07-.12.09-.09zm-1.02-.47s-.07.12-.09.09.07-.13.09-.09zm-1.11.19c0 .09-.11.07-.18.09 0-.09.11-.07.18-.09zm-.56.36h.18v.18h-.18zm-.28.65s-.07.12-.09.09.07-.11.09-.08zm-.56-.64c.13.03.08.23.09.36-.21-.02-.21-.24-.09-.36zm.47 1.02c0 .2-.39.04-.56.09.06-.31.35-.13.56-.09zm-.22.5h-.29s.02-.09.04-.13c.09.03.17.08.25.13zm-.52-.59c0-.11.13-.05 0 0-.13.06 0 .11 0 0zm-1.58.18c.24-.02.27.3.28.36v.04h-.67c.18-.07.33-.21.4-.4zm-4.17-.65c.1.02.06.18.18.18-.03.27-.28.01-.18-.18zm-3.9-.09c-.02.11-.17.08-.28.09.02-.1.17-.07.28-.09zm-.73 2.68s-.07.12-.09.09.07-.11.09-.09zm-.1-.27c.04.38-.23-.07-.36.18.1.18.11.45.46.36-.1.17-.42.24-.56.09s.08-.61-.09-.74c.28-.05.27.18.55.11zm-1.94-2.69c-.1.95.83.01 0 0zm.46 3.33c0 .09-.11.07-.18.09 0-.08.11-.07.18-.09zm-1.11-3.24c.06.13.11 0 0 0-.11.02-.06-.13 0 0zm-.93-.28s-.07.12-.09.09.07-.11.09-.09zm0 1.3c-.02.36-.36.41-.63.52-.08-.04-.18-.07-.26-.1.16-.21.61-.37.89-.42zm-1.2-2.13c.27.18-.13.49-.18.65.09.28.25-.09.37-.09.25 0 .46.22.74.28 0 .17-.11.2-.09.36-.15-.02-.31.03-.46 0-.28-.05-.25-.22-.36-.28-.09-.04-.33.04-.28.09-.27-.3.13-.55-.28-.74.1-.16.54.17.55-.27zm-.46-1.39c.16.31-.23.29-.28.46s.27.41 0 .65c-.29-.36-.64-1.26.27-1.11zm-.28 3.71s.02.04 0 .06h-.28c.07-.05.19-.13.27-.05zm0-2.32c.06.13.11 0 0 0-.12 0-.06-.13 0 0zm0 1.95s.07-.12.09-.09-.08.12-.1.09zm-.93-5c.06.12.23.2.28.28.18.36-.07.66 0 .93.05.18.49.23.28.46-.09-.15-.4-.16-.46-.36-.03-.08.12-.13.09-.18-.05-.12-.22-.16-.18-.09-.09-.16.05-.3-.18-.28-.13.06 0 .11 0 0-.02-.07 0-.18-.09-.18.18-.48-.18-.67-.36-1.02.56-.17.41 0 .63.45h-.01zm-.55 4.63c-.11-.26-.22-.31-.18-.46.02-.09.3-.09.36-.18s-.05-.28 0-.36c.02-.03.24-.05.28-.09s-.02-.15 0-.18c.06-.12.42-.41.46-.36.17.38-.48.58.09.56-.09.06-.11.3-.28.36-.06.03-.23-.04-.28 0-.25.21-.38.34-.36.84.1.2.35.1.46.18s.08.29.18.36c.05.04.22-.03.28 0 .02.01.04.09.06.15h-.86c0-.2-.11-.41-.13-.7-.21.04-.1-.11-.1-.1zm0 .8h-.1s.08-.07.1-.05 0 .04 0 .05zm0-5.53s-.07.12-.09.09.06-.12.09-.09zm-.18.47c.34.09.17.33.18.74 0 .3.2.53.18.65-.03.17-.09.32-.18.46-.05.1-.07.45-.28.36-.32-.23.04-.75.09-1.3.02-.32-.03-.59 0-.92h.01zm-.28 4.26c.04.1-.2.27-.09.46-.19-.05-.27-.23-.56-.18.15-.09.29-.31 0-.36-.13.06 0 .11 0 0v-.28c.43-.18.18.3.28.36.2.15.23-.38.36 0zm-.47-2.78c.07-.02.11-.08.09-.18.21.03.21.25.09.36-.1-.02-.14-.1-.18-.18-.13 0-.07-.13-.01 0zm.28-2.78c-.12-.03-.2-.15-.18-.28.18-.04.16.13.17.28zm-.36 2.22c.18.02.2-.1.36-.09.09.28-.21.16-.36.18v-.09c-.4.1-.04-.27-.02 0zm-.28 2.13h.18v.18h-.18zm-.09 1.77c-.04.13-.08 0-.18 0 .03-.05.08-.06.13-.04.02 0 .03.02.04.04h.02zm-.1-2.14s-.07.12-.09.09.05-.12.08-.09h.02zm-.29-6.03s-.07.12-.09.09.07-.11.09-.09zm-1.11 5.57s-.07.12-.09.09.07-.11.09-.09zm-1.12-4.08c0-.11.13-.06 0 0s0 .12 0 0zm-.36-.84c0 .09-.11.07-.18.09 0-.08.1-.07.17-.09zm-.09 1.21s-.07.12-.09.09.06-.11.08-.09zm-.66-2.4c0 .09-.11.07-.18.09 0-.09.11-.08.18-.09zm-.36 1.02s-.07.12-.09.09.06-.12.09-.1zm-.19-2.69c-.09.38.28.02 0 0-.37-.03 0-.41 0 0zm-.09 1.11s-.07.12-.09.09.06-.12.08-.1zm.18.93c-.44.04-.42-.38-.93-.28.16-.6 1.19-.09.92.27h.01zm-2.13.65c0-.12-.12-.13-.09-.28.22.18.53-.11.84 0 .23.08.14.31.36.36-.17.31-.34.08-.74.18v-.36c-.13-.02-.26.02-.36.09-.37.03.01.41 0 0h-.01zm-.18 1.3c-.11 0-.06-.13 0 0 .21.18.33-.14.46-.18.15-.05.31-.08.46-.09.34.05-.07.23.28.36s.23-.13.36.18c.07.15.41.29.46.36.01-.11.03-.22.18-.18v.18h-.18c.11.18-.08.46.28.56-.01-.11.02-.26-.09-.28.35-.27.47.15.56.28.05.08.22.11.28.18s.03.18.09.28.23.1.28.18c.07.12.04.35.09.46s.12.1.18.18.03.22.09.28c.13.14.36.14.46.28s-.02.28.09.36c.07.06.29-.05.36 0 0-.11.13-.06 0 0-.01.33-.46.22-.36.65.08.36.44.08.65.18.17.09.03.18.18.36.03.03.15-.03.18 0s-.02.15 0 .18.17.05.18.09c.06.18-.05.39 0 .56-.2-.02-.18.21-.36.28-.1.03-.28-.05-.36 0-.17.09-.13.34-.28.28.06.09.22.34-.09.28 0 .09.08.11.09.18.4.05.12-.25.28-.28.28-.03.19.3.28.46.21-.15.59-.46.93-.18.03.08.03.17 0 .25-.23.05-.45.14-.66.25-.06-.09-.16-.14-.27-.14-.04.19-.12.36-.24.51-.06.07-.13.14-.18.21-.15.14-.29.3-.41.48 0 .03.03.06.05.07-.1.2-.18.4-.25.61l-.11.34c-.12-.04-.24-.1-.34-.18.03-.19.41-.02.36-.28-.14-.22-.55-.05-.56-.18-.27-.15.14-.15.18-.28.14-.4.08-1.09-.09-1.3-.28.14.08.41 0 .65-.22-.06-.15-.4-.55-.28.36-.33.27-.73 0-1.11-.33-.01-.29.33-.46.46-.18-.01-.06-.31-.18-.36-.83-.16-.27.51-.74.65-.18-.06-.06-.43-.28-.46.11-.23.7-.47.46-.74.18-.24.52.15.74.18.29 0 .16-.28.28-.46.06-.09.25-.11.28-.28.05-.29-.2-.36.09-.46 0-.09-.07-.11-.09-.18-.13-.02-.24.06-.28.18-.15-.09-.1-.39-.18-.56.22-.04.2.17.46.09.18-.1.02-.54.28-.56.18 0 .06.31.28.28.14-.11-.22-.27.09-.46-.18-.05-1.12-.07-1.02.46-.18.02-.21-.1-.36-.09-.27.08.21.14.09.36-.23.14-.31.37-.65.18-.12-.26.36-.47.46-.83.04-.13-.09-.24-.09-.28s0-.63 0-.56c.03-.24.2-.36.18-.46-.05-.26-.15-.51-.28-.74-.05-.08-.16-.13-.18-.18s.04-.25 0-.28c-.3-.24-.58-.09-1.02-.09 0 .05-.08.11-.09 0-.2-.18-.5-.07-.56-.09-.22-.08-.21-.34-.56-.28-.08-.35.37-.2.35-.53zm3.23 11.41v.02c-.05.03-.1.05-.16.06-.21.07.09.16-.09.28-.16.03-.33 0-.46-.09-.02.07 0 .18-.09.18-.42-.01-.05-.52 0-.65-.3-.02-.2.36-.46.36.04.31-.16.39-.28.56.16.28.26.6.28.93-.25.14-.26-.33-.46-.46-.06-.04-.23.05-.28 0-.1-.12-.18-.25-.23-.4-.01-.16-.02-.31-.04-.46.06.03.13.07.18.12.12.12.04.53.36.37.02-.26-.31-.18-.18-.56.25 0 .53.03.65-.09-.01-.14.03-.34-.09-.36-.14.02-.09.22-.09.36-.16-.08-.24-.26-.56-.18-.02-.07 0-.18-.09-.18 0-.31.34-.18.56-.28.11-.04.11-.14.18-.18.13-.07.3.03.36-.09.04-.07-.11-.55-.09-.56-.49-.12-.55.18-.93.18-.01-.48.55-.39.83-.56.18.25.27.59.74.56.07.25-.19.18-.28.28.11.04.4.29.56.28s.25-.15.36-.28c.02 0 .04 0 .05.02l-.15.49c-.08.02-.15.07-.18.14-.05.14.05.17.07.19zm-.19.57-.03.11s-.03-.03-.04-.03c.02-.03.05-.05.07-.08zm-.34 1.09-.06.18s-.03-.01-.04-.01c.02-.07.09-.09.09-.18h.01zm-.48.55c-.06.03-.15.18-.18.18-.12.04-.06-.18-.09-.18-.12-.03-.12.17-.18.18-.11.03-.18-.18-.36-.09-.28.02.09.39 0 0 .08-.56.94.06.93-.36.32.15.05.19-.11.28h-.01zm.24.21-.03.09s-.02-.08-.02-.12zm-.7.25s.07-.12.09-.09-.07.12-.1.09zm-.56 3.06c-.08.22-.21-.09-.36-.09h-.01c.04-.24.08-.51.11-.78.09-.07.18-.15.18-.15.2.03.41.04.61.03l-.12.38c-.09-.05-.2-.07-.31-.05-.15.18-.19.44-.1.66zm.1.36-.02.07s-.06.03-.07.02c-.06-.04.06-.11.09-.08zm-.93 2.2299c-.12.03-.76.05-.65.09-.04-.02-.07-.04-.1-.07.12-.14.23-.28.33-.42.06-.06.07-.18.23-.16.02 0-.02.26 0 .28.14.13.36-.19.53-.1l-.08.25c-.08.06-.18.11-.27.14zm.15.23-.05.15s-.02-.07-.01-.1c0-.07.03-.07.05-.04h.01zm-.22.7-.06.21s-.05.04-.05.07c-.19-.11-.07-.22.11-.27zm-1.14 1.01c-.24-.15-.15.18-.28.28-.09.07-.49-.04-.36.28.27.09.24.11.2.35-.08.01-.16.03-.23.06-.08-.09 0-.25.03-.4-.18-.15-.12 0-.36 0 .27-.09.03-.35.09-.56.02-.06.18-.07.18-.18 0-.18-.16-.32-.09-.56-.26-.01-.23.26-.36.36-.15 0-.21-.18-.16-.34.4-.12.78-.3 1.12-.55.09.07.2.13.24.25.29.01.18-.37.36-.46.14.05.23.14.36.18-.1.46-.73.39-.83.83.14.15.79.46.74 0 .09.07.17.14.25.22l-.18.56c-.3 0-.6.03-.73-.3v-.02zm.28.65c-.22.31.31-.22 0 0zm-.65 10.19s-.1.03-.15.03v-.39c.27-.01.33.36.61.45-.04.08-.35.18-.36.18-.17 0-.02-.19-.11-.26h.01zm-.46 1.81c.1-.11.17-.24.23-.37.11.09.19.2.24.33-.14.11-.32.13-.47.05zm.18 1.63s.07-.12.09-.09-.07.12-.09.1zm.13-6.67v-.45c.14 0 .3.01.33-.1.21.19-.04.51-.33.56zm-.41-6.67c0 .11-.09.05-.09 0 0-.11.09-.05.09 0zm-.65 13.26c-.11-.08-.24-.11-.36-.09-.03-.17.51-.17.36.09zm-.28-14.38v-.18h.18v.18zm.28 13.63c.04-.13.08 0 .18 0-.01.05-.06.08-.11.07-.03 0-.06-.03-.07-.06zm.09-12.05s-.07.12-.09.09.07-.11.09-.09zm.1 12.88s-.07.12-.09.09.07-.11.09-.09zm-.19-13.9c-.05-.21.18-.13.18-.28.11.01.08.17.09.28zm1.49-15.1099c-.22.12-.3-.17-.46-.18-.28-.03-.36.1-.65.18-.05-.29.13-.36.18-.56.07 0 .1.12.18.09.2-.07.09-.17.09-.18.16-.32.29-.13.28-.56.3-.07.13.36.36.36.05 0 .13-.04.09-.09.2.3.28.42.18.65-.02.1-.35.04-.26.29zm1.11-2.13c.14.36.25.51.09.84-.21-.11-.55-.39-.46.18-.3.08-.13-.3-.28-.36-.67.02-.5-.24-.65-.74.45.2.64.09 1.29.09h.01zm-.93-2.78c0-.11.09-.05.09 0 0 .11-.1.05-.1 0zm.46.36c.06.13.11 0 0 0-.11.02-.06-.13 0 .02zm.1-.83c0-.11.09-.05.09 0 0 .11-.09.06-.09 0zm.18 1.02s-.07.12-.09.09.07-.11.09-.08zm.28-.84s-.07.12-.09.09.07-.11.1-.08h-.01zm.28 6.31c.34-.07.18.32-.09.18-.39-.09-.02.28 0 0 0-.09.07-.11.09-.18-.02-.27-.38.09 0 0zm0-4.26s-.07.12-.09.09.07-.11.09-.09zm-.09-1.38c0-.1.09-.05.09 0 0 .1-.09.04-.09 0zm.36-.28c.27-.04.34.58.56.28-.11 0-.06-.13 0 0 .09.1.34.03.28.28-.27-.21-.71.18-.83.18-.09-.1-.15-.23-.18-.36.01-.14.33-.14.18-.38zm.18-1.02c0 .57.4.18 0 0zm.18.56c.01-.05.06-.08.11-.07.04 0 .07.04.07.07-.07.05-.15.1-.17 0zm.56 1.48c-.06 0-.11-.01-.09-.09-.11 0-.06-.13 0 0 .06 0 .11.01.09.09.29.19-.1.58.01-.01h-.01zm-.28 1.76s.07-.12.09-.09-.06.11-.08.09zm-.36 3.16s.07-.12.09-.09-.06.11-.09.08zm.18 2.31c.28.11-.01.4-.28.28-.02-.22.28-.11.29-.29h-.01zm-.09-6.02c-.11 0-.06-.13 0 0 .03.35.42-.03 0 0zm-.28 4.08s.07-.12.09-.09-.06.11-.08.08zm-.65.18c.08-.12.22-.19.36-.18.11.27-.19.16-.35.18zm-.56-2.23c-.13.06.01.11 0 0 0-.12.15-.06 0 0zm-.09-.28c0 .11-.09.05-.09 0 0-.11.1-.06.1 0zm.85 3.51-.04-.1c.19-.17.42-.29.67-.35-.05.3-.3.4-.62.44zm1.19 5.49c-.2.28-.11.5-.28.93-.13-.08-.27-.13-.43-.15.02-.3.04-.62.05-.95.21.08.44.14.66.17zm-.09-.65s-.07.12-.09.09.09-.13.1-.1h-.01zm.65-1.39s-.07.12-.09.09.08-.12.1-.1h-.01zm-.56-5.84c-.49-.1-.11.28 0 0zm.74 0c-.08.12-.22.19-.36.18-.06-.25.19-.18.28-.28.2-.08.16-.39.46-.36-.02.18.11.21.09.36-.14.09-.3.13-.46.09zm.37.92s.07-.12.09-.09-.05.11-.08.09zm-.19-.28s.07-.12.09-.09-.05.11-.08.09zm.37-.09c-.11 0-.06-.14 0 0 .13-.01.08.13.02 0zm.27.19c.04.19-.06.24-.09.36-.17-.1-.23-.41.11-.37h-.02zm.19-.37s-.07.12-.09.09.09-.13.11-.1h-.02zm-4.36-7.51s-.07.12-.09.09.09-.13.12-.1h-.03zm-.09 1.39c.25 0 .2-.29.46-.28.23.32-.23.56-.46.36v-.09c-.1 0-.2-.03-.28-.09-.01-.18.45-.14.3.09h-.02zm-.37 1.58s.05-.17.09-.18c.21-.07.47.15.56 0 .04.29-.25.24-.28.46-.22.08-.43-.46-.46 0 .49.23.26.65.09.74s-.36.11-.28.36c-.08-.21-.25-.18-.36-.28-.07-.06-.15-.49-.18-.18-.23-.23.48-.32.74-.36v-.28c-.1.02-.19-.05-.21-.15 0-.04 0-.09.03-.13.02-.04.25 0 .28-.01h-.02zm-.18-3.25c-.48.22.32.24 0 0zm-.65-.27s-.07.12-.09.09.08-.13.11-.1h-.02zm-.18-.1s-.07.12-.09.09.08-.13.1-.1h-.01zm-.18 5.1c.2.21.36-.02.36-.28.37.03-.06.41.36.46-.02.1-.18.06-.18.18-.33-.03-.23-.26-.56-.09v-.27zm0 1.11c-.33.44.55.12 0 0zm-.09 1.11c.07.01.1.05.09.1l-.13-.03s.04-.05.04-.08zm-.28-.83c.11.01.08.17.09.28h-.28c-.05-.21.18-.14.19-.28zm.19.9c-.1-.02-.2-.03-.31-.05 0-.04 0-.07.02-.11.16-.09.24.1.29.15zm-.29-6.01s-.07.12-.09.09.07-.12.1-.09zm-.36-5.56s-.07.12-.09.09.07-.12.09-.09zm-.09 5.38s-.07.12-.09.09.07-.12.09-.09zm-.18.55c0-.1.03-.2.09-.28.14.03.06.2 0 .28h-.09v.09c.02.28.39-.09 0 0-.05 0-.11-.07 0-.09zm-.56 4.74c-.13 0-.03-.15-.09-.18s-.12.06-.09.09c-.18-.18 0-.17-.18-.36.17-.38.78.36.74-.09.47.12-.17.54-.38.54zm.25.78h-.22c.03-.09.21-.2.25-.32.17.06.05.19-.03.32zm-.62-1.71c0 .09-.11.07-.18.09 0-.09.11-.07.18-.09zm-.28-1.21c0-.11.09-.05.09 0 0 .1-.09.05-.09 0zm.36-.46c0-.11.09-.05.09 0 0 .1-.09.05-.09 0zm.37 1.76c-.03.1-.18.06-.18.18-.09 0-.07-.11-.09-.18.13-.11.15-.04.28 0zm-.45-.93s.07-.12.09-.09-.07.12-.09.09zm.09 2.41c0-.11.13-.06 0 0v.13h-.17c.02-.07.09-.12.16-.13zm.64-3.43c-.47-.04-.11-.2-.09-.46.32.09.05.18.09.46zm-.09-.65c-.13-.29-.08-.47.28-.65.34.45-.16.5-.27.65zm.18-6.4s-.07.12-.09.09.08-.11.1-.09zm-.09 5.01s-.07.12-.09.09.08-.11.1-.09zm-.47.28c.24.14.35-.21.65.09-.09.24-.66.27-.65-.09-.1 0-.2-.03-.28-.09.05-.14.14-.23.18-.36.43.11-.15.27.11.46h-.01zm-.18-1.77s-.07.12-.09.09.07-.11.1-.09zm0 2.14c.06.13.11-.01 0 0-.38.09-.01-.27 0 0zm-.18-.37s-.07.12-.09.09.07-.12.1-.09zm-.84-2.13c-.36-.03.02-.41 0 0 .18-.04.17-.26.46-.18 0-.11.13-.06 0 0 .01.11.15.1.28.09 0-.11.13-.06 0 0 0 .24-.31.18-.56.18.27.09.06.31.18.36-.16.24-.41-.2-.56-.28.01-.11.17-.08.19-.18zm.37 1.21s.07-.12.09-.09-.05.12-.08.09zm-.1.18c-.07.56.42.06 0 0zm.18-.84s.07-.12.09-.09-.05.12-.08.09h-.02zm-.83.47s-.07.12-.09.09.08-.12.11-.09zm.55.83c.21-.18.1.02.28.09-.08.27-.14.11-.36.09 0-.09.07-.11.09-.18-.15-.07-.4.18-.18.18-.03.27-.21-.09-.18-.09-.12-.01-.12.18-.18.18-.12.01-.22-.36-.36-.28.1-.15.83-.15.93 0h-.04zm-.47 5.2c-.11.05-.05-.16-.09-.18-.03-.02-.07-.04-.11-.06-.2-.1-.06.12 0 0 0-.01.01-.02.01-.03.09-.47-.28-.38-.36-.46-.04-.04.12-.17.09-.18-.12-.09-.32.09-.36.09-.26-.01-.64-.4-.65-.56 0-.13.22-.11.28-.18.09-.12 0-.4.18-.56.18-.02.21.1.36.09-.01-.17.09-.22.28-.18-.03.12-.15.2-.28.18.17.15-.36.67.18.74-.09-.39.28-.02 0 0-.02.13.02.26.09.36.18-.04.07-.36.36-.28-.16.41 0 .12.18.28.26.21-.32.6.36.46-.03.45-.41.17-.52.46zm0 .36s.07-.12.09-.09-.04.12-.07.1h-.03.01zm-.13.04h-.08s.06-.03.09-.01l.02.02h-.03zm-.51-.23c0 .11-.09.05-.09 0 .03-.1.12-.05.12 0zm-.65 0s.07-.12.09-.09-.04.12-.07.1h-.03.01zm-1.3-1.94c.05-.26.1-.52.46-.46-.11.18-.03.57-.44.47h-.03.01zm-.1.18s.07-.12.09-.09-.04.13-.07.1h-.03.01zm.65 0c0 .09-.07.11-.09.18.13.08.29.14.28.36-.16-.09-.61-.09-.56-.36.04-.09.12-.22.39-.17h-.03zm0 1.3c0-.23.42-.41 0-.46.02-.11.17-.08.28-.09-.02.22.29.6.09.93-.19 0-.34-.17-.35-.36h-.03v-.02zm0 .46s.07-.12.09-.09-.04.13-.07.1h-.03.01zm.37-4.17c.36.03.68-.26.74.18-.32-.13-.55-.08-.36.28-.23 0-.38-.15-.35-.45h-.03zm.28-1.58c0 .11-.09.05-.09 0 .03-.09.13-.04.13 0zm.09-1.02s-.07.12-.09.09.1-.12.12-.08h-.03zm-.28-.18s.07-.12.09-.09-.03.12-.06.1h-.03zm1.3 4.08c-.24.05-.33-.04-.28-.28-.23.01-.45.01-.56-.09 0-.31.3-.32.28-.65.12.09.34.09.46.18-.03.47-.04.5.12.84h-.03zm-.65.18c-.24.23-.48-.32-.56-.55.34.17.46.11.59.55zm.83.84c.33-.06 0 .41-.09.28 0 0 .08-.18.09-.18s.03-.09.03-.09h-.03zm.28-2.6c0 .25.15.18 0 .36-.15.07-.15-.44 0-.36-.06-.38.31-.01.03 0zm0 .65s.07-.12.09-.09-.03.13-.06.1h-.03zm.28 1.39c0-.11.09-.05.09 0 .03.11-.06.06-.06 0zm0-.18v-.18h.18v.18zm-.09-.93c-.41.02-.03-.36 0 0h.09c.01-.11.03-.22.18-.18v.18h-.18c.05.16-.07.23-.06 0zm-.93-.83c-.18-.23-.86-.56-.83-.18-.11.02-.17-.02-.18-.09v-.18c.59-.02.89-.41 1.05.46h-.04zm-1.11-5.19c.07-.31.11-.63.36-.74.36.13-.07.7-.36.74.04.12-.1.06.03 0zm-1.02 6.58s.08.01.09 0c.17-.26.32-.49.65-.56.16.38.1.44.28.83-.15.04-.85-.04-1.02-.28-.07.01-.02-.13.03 0h-.03zm-.1.74s-.07.12-.09.09.1-.11.13-.09zm-.09-.28c-.08.06-.17.11-.18 0 .05-.11.21-.09.21 0zm0 .93c-.25.14.07.46.18.18.35.56-.96-.03-.15-.18zm-.36 1.11s.07-.12.09-.09-.04.13-.07.1h-.03.01zm.11-11.03s-.07.12-.09.09.07-.12.09-.09zm-.09 3.43s-.07.12-.09.09.07-.12.1-.09zm-.18 8.25c-.2.02-.29-.07-.28-.28.09.1.34.03.28.28zm-.18-8.25s-.07.12-.09.09.07-.12.09-.09zm0 4.45c.09.2-.14.12-.18.18-.02.02.02.18 0 .18-.26.12-.66-.09-.83-.18.06-.33.67-.12 1.01-.18zm-.47 1.49c-.2-.05-.11-.23-.36-.36.25-.4.45.03.65.18 0 .18-.21.01-.18 0-.02 0-.16.17-.11.18zm.06 2.36h-.57c.02-.05.01-.12.05-.13.18.02.35.06.52.12zm-2.56-.22c-.34 0 .06-.17.09-.28.01-.03-.05-.23-.09-.18.08-.1.07-.02.18-.09 0 0 .14-.2.09-.18.29-.08.5.22.93.18.01.17-.09.22-.28.18 0 .38.18 0 .36.09.04.02-.04.25 0 .28.08.06.28-.04.36 0 .06.03.07.15.12.23h-.28c-.15-.11-.4-.09-.69 0h-.42c.06-.07.17-.11.17-.13-.02-.24-.51-.37-.56-.1zm-.65-2.13s.07-.12.09-.09-.07.11-.09.08zm.18.74c0 .09-.11.07-.18.09 0-.1.11-.08.18-.1zm0 1.3c0-.11.13-.06 0 0-.08.36-.46.24-.65.09.15-.31.51.16.65-.1zm-.09-2.69c-.05-.01-.08-.06-.07-.11 0-.04.04-.07.07-.07-.02-.41.36-.03 0 0v.18c.28.12.36-.61.46-.09-.09.38.28.02 0 0-.03.09-.37.34-.46.08zm.46.46s-.07.12-.09.09.07-.13.09-.1zm.28.09c-.11 0-.06-.13 0 0 .25-.13.42.03.56 0s.2-.33.46-.18c-.23.26-.73.45-.56.84-.13-.02-.16-.15-.28-.18-.04.22.17.2.09.46-.38-.1-.65-.44-.65-.83.23 0 .29.16.37-.11zm0-.46h.28v.28c-.24.05-.33-.05-.27-.29h-.01zm.83.65s.07-.12.09-.09-.06.11-.09.08zm.56.93c.24-.03.07.36.36.28-.12.25-.67-.09-.36-.29zm.74-2.88c0-.11.13-.06 0 0 0 .18-.31.07-.28.28-.25-.09.05-.39.28-.29zm.47-3.98c-.04.12-.15.2-.28.18.03-.13.15-.21.28-.19zm-.37 0c0 .09-.11.07-.18.09 0-.1.1-.08.18-.1zm-.65.09c.13-.03.28-.09.36 0-.36.16-.92.11-.37 0zm-.28 3.8c.27-.21.3.34.18.46-.57.1-.53-.4-.84-.56.18-.46.43.03.65.09zm-1.02-5.47h.28c-.1.09-.03.34-.28.28zm-.28 4.45s-.07.12-.09.09.07-.13.09-.1zm.1 1.48c.19.03.08.19.18.28.14.11.41.04.46.09.1.13.16.29.18.46h.28c-.15.16-.42.2-.74.18-.02-.13.02-.26.09-.36-.21-.19-.21.06-.36 0-.25-.1-.08-.48-.46-.36.07.15-.44.15-.36 0-.28-.02.09-.39 0 0h.36c.09-.11.23-.32.37-.3zm-.28-2.96c0 .09-.11.07-.18.09 0-.1.11-.08.18-.1zm-.1 1.29c.04.2-.13.18-.28.18.03-.12.15-.21.28-.19zm-.55-2.87c.12.03.15.16.28.18-.04.23-.36 0-.28-.19zm0-1.58c-.03.12-.15.2-.28.18.03-.12.15-.21.28-.19zm-.37 4.08c.24-.03.24.19.28.36-.25.03-.31-.13-.28-.37zm-.18 3.06c.2.41.47.26.18.74-.22.04-.2-.17-.46-.09-.12-.44.17-.46.27-.66h.01zm-.36 2.32s-.07.12-.09.09.05-.13.08-.1h.02-.01zm-.93 0s-.07.12-.09.09.05-.13.08-.1h.02-.01zm-.09-10.85s-.07.12-.09.09.05-.13.08-.1h.02-.01zm-.14 13.11h10.8c1.21 0 1.94.13 2.49.68.71.71 1.15 1.63 1.15 4.77 0 3.3-.45 4.19-1.15 4.8999-.55.55-1.28.68-2.49.68h-5.55v4.82h2.65v2.48h-7.92v-2.49h2.46v-13.3699h-2.46zm12.28 15.0799c-.3-.05-.17-.2-.28-.28.08-.14.3-.13.46-.18-.05.16-.28.15-.2.44zm-.27.55c-.02.15-.11 0-.09-.09 0-.15.09-.01.08.09h.02zm-.1-2.91.17-.02c.04.06-.11.21-.08.34-.13-.03-.11-.19-.11-.33h.02zm-.09 1.8c0 .11-.09.05-.09 0-.02-.11.08-.06.08-.01h.02-.01zm-.58-.01c-.38 0-.73.01-.74.36-.2-.49.38-.55.36-1.02-.03-.09-.06-.19-.09-.28 0 0-.18-.15-.18-.09.01-.17.23-.3.28-.46.02-.08-.12-.17-.01-.27h.18c.07.02.13.07.2.08.03.4-.22.52-.28.83.1.15.29.22.46.18-.64.13-.03.39-.19.66h.01zm-.09.36s.07-.12.09-.09-.06.13-.09.1zm-.56.46c.32.03 0 .25.18.28-.11.29-.37-.2-.17-.27h-.01zm-.28-.09c-.02-.3.51-.42.46 0-.15-.06-.31-.05-.46.01zm.56 1.02c-.02.15-.11 0-.09-.09.03-.14.11 0 .1.1h-.01zm0 .93s-.07.12-.09.09.07-.11.1-.08h-.01zm.09.46s-.07.12-.09.09.07-.11.1-.08h-.01zm.37-4.55c0-.09.11-.07.18-.09.01.11-.1.09-.17.11v-.02zm-1.67-.09c.05-.08.06-.18.04-.27h.39c-.02.1-.03.22-.06.36-.11-.01-.16-.12-.36-.08v-.02h-.01zm.09.28c-.13.06 0 .11 0 0 .03-.26.4.11.01.02v-.02zm.46.64c-.12-.03-.2-.15-.18-.28.21-.02.19.15.19.3v-.03h-.01zm-.79-1.17c0 .06-.01.12-.02.17-.07-.05-.13-.11-.18-.17h.21zm-.58.73c-.2.02-.29-.08-.28-.28.2-.01.29.08.28.28zm-.84 0c-.23-.21-.02-.67.23-.73h.04c-.12.34.1.56-.28.73zm.19.28c-.01.11-.17.08-.28.09.01-.11.17-.08.28-.08zm-.65-.65c-.19-.18.05-.18.09-.36h.15c.02.11-.16.26-.24.36.3.29-.33.16 0 0zm-.41.97h-.04s.04-.01.04 0zm-6.43-4.2999v.2499c-.09-.05-.2-.08-.3-.08.02-.1399.2-.1199.3-.1799zm-.2-.47s-.07.12-.09.09.06-.12.09-.09zm-.18-.09c-.01-.23-.01-.45.09-.56.1-.04.22-.01.3.07v.95c-.31-.05.36-.56-.41-.46zm.39 1.6099v1.51c-.1 0-.2-.02-.3-.06-.03-.03.01-.15 0-.18-.07-.16-.44-.5-.46-.56s.1-.12.09-.18c-.03-.22-.26-.57-.09-.65.31-.03.58 0 .75.12zm-.03 3.02s0-.09.02-.14v.14zm.03.19v.03h-.47c.15-.07.31-.08.46-.03zm-.58-.47c.06-.31.31-.43.58-.52v.27c-.21.07-.35.21-.58.25zm0-1.57c-.49-.1-.11.28 0 0zm-.1 1.76c-.05.02-.11.04-.16.05v-.49c.01.16.06.32.15.45h.01zm-.83-17.6199c.06.14.11 0 0 0h-.46c-.03-.53.15-.75.46-.74-.03 0 .09.27.09.28.14.09.5-.05.46.09-.09.18-.36.2-.65.18 0 .1.07.11.09.19zm0 1.12s-.07.12-.09.09.06-.12.09-.09zm-.28-.18c0-.09.11-.07.18-.09 0 .09-.11.07-.19.09zm.74.46c0 .09-.11.07-.18.09 0-.09.11-.07.18-.09zm0 .18c.34.06 0 .36 0 .54-.08.02-.16.04-.23.06.05-.18.23-.4.23-.6zm.14 6.94c.28-.1.48-.28.79-.35v-.1h.12v.12s-.08 0-.12-.02c0 .06.06.07.12.08v.28c-.06.05-.13.09-.21.09-.11.02-.13-.14-.28-.09s-.08.21-.28.18c-.02-.08-.07-.14-.15-.16v-.03zm.14-14.26c-.29.24-.87.18-1.39.18.48-.09.99-.25 1.39-.18zm-1.2 5c-.02.16-.16.27-.32.26-.1-.01-.19-.07-.23-.16.16-.18.31-.16.54-.09h.01zm-2.79 13.08c-.07.37.39.23.36.56-.28.03-.26.36-.55.36 0 .05.02.1.02.14h-.12c0-.07.04-.13.1-.14-.04-.18-.36-.07-.28-.36.12 0 .13.12.28.09.06-.41-.21-.53-.38-.73h.47c0 .06.04.07.09.07 0-.04 0-.06-.02-.07h2.11c.07 0 .13 0 .2-.02-.04.05-.1.08-.16.09-.49.11-1.18-.2-1.2.28-.45-.25-.4-.19-.93-.28h.01zm.36.83s.07-.12.09-.09-.06.12-.09.09zm-.72-.46s-.07.12-.09.09.06-.13.09-.09zm2.5-11.49h-.18v-.18h.18zm-.28-.47c-.14-.22-.19-.17-.09-.46.12.13.44.06.56.18-.09.16-.18.32-.47.27zm.65-.09c.12.08.19.22.18.36-.17.01-.2-.11-.36-.09.02-.12.15-.15.17-.28h.01zm-.46-1.2c0 .13-.1.23-.23.23s-.23-.1-.23-.23h.46c.13-.06-.02-.12 0 0zm-.19-3.06c-.03.12-.16.15-.18.28-.25-.05-.02-.37.17-.29h.01zm-.27-1.49c.21-.03.1.27.28.28-.03.13-.23.08-.36.09-.06-.2.05-.25.08-.38zm-.18 2.41s-.28-.1-.28-.09c-.04-.15.48-.14.26.08h.02zm-.19 3.99s.07-.12.09-.09-.09.11-.11.09zm.1.37c-.12-.04-.2-.15-.18-.28.17-.04.15.13.16.28zm0-6.59v.28c-.2.02-.29-.08-.28-.28zm-.28 1.21c.02-.15.11 0 .09.09-.04.15-.13 0-.11-.09zm0 .74s-.07.12-.09.09.05-.12.07-.09zm-.09-1.11c-.04.13-.08 0-.18 0 .03-.04.09-.06.13-.03.01 0 .02.02.03.03zm-1.02-1.95c.2 0 .28-.24.56-.18-.14.24.16.23.18.28s-.2.26.09.28c-.03.13-.23.08-.36.09-.18.33.12.34.09.74-.38-.12-.25-.63-.46-.93-.13-.19-.33-.32-.56-.36.11-.32.31.08.44.08zm.25 7.32c.21-.06.34.64 0 .56.18-.17.03-.34 0-.56zm.1-.27c0 .11-.09.05-.09 0 0-.11.09-.05.09 0zm.09-4.08s-.07.12-.09.09.07-.12.09-.09zm0 3.24c0-.09.11-.07.18-.09 0 .09-.11.07-.19.09zm.28-4.91s-.07.12-.09.09.07-.12.09-.09zm-.83 4.26c-.13.06 0 .11 0 0-.02-.41.36-.03 0 0zm-.18 0c0 .09-.11.07-.18.09 0-.09.1-.07.18-.09zm-.37 2.14c.18.18-.04.18-.09.36-.14-.02-.08-.22-.09-.36h.18c-.06-.4.61.03-.01 0zm-.57-8.62c.2.02.29-.07.28-.28.18.06.25.25.28.46-.06-.13-.31.28-.28.28-.13 0-.03-.14-.09-.18-.16-.12-.69-.36-.74-.56.26-.35.36.24.56.27h-.01zm.18 7.51s.07-.12.09-.09-.07.11-.09.09zm-.18.09s.07-.12.09-.09-.07.11-.09.09zm.09.18c0 .09-.11.07-.18.09 0-.09.11-.07.18-.09zm-.36-1.2s.07-.12.09-.09-.07.12-.1.09zm-.46-7.14c-.12-.03-.15-.16-.28-.18.03-.24.35-.01.27.18zm-.56-.74c0 .11-.09.05-.09 0 0-.11.09-.05.09 0zm.09 8.16c-.18-.19-.39 0-.46.18-.13-.15-.2-.35-.18-.56.27.06.65.03.64.37zm-.92-10.11c-.01.23-.31.03-.36 0 .05-.28.18.09.36 0zm0 12.14c-.02.12-.18.09-.18 0 .03-.14.07 0 .17 0zm-1.31-7.78c0-.11.13-.06 0 0s.01.11 0 0zm0 3.62c0 .11-.09.05-.09 0 0-.11.09-.06.09 0zm-.55-3.53s-.07.12-.09.09.06-.12.09-.09zm-.28.46h.18v.18c.06 0 .11.01.09.09.06.13.11 0 0 0-.06 0-.11-.01-.09-.09-.12 0-.22-.03-.19-.18zm.19 3.52s.07-.12.09-.09-.07.12-.1.09zm-.28-10.47s-.07.12-.09.09.06-.12.09-.09zm-.18 13.53c0 .09-.11.07-.18.09 0-.09.1-.07.17-.09zm-1.12-9.92c-.03.21-.25.21-.36.09.01-.13.21-.08.36-.09zm-.65-2.41s-.07.12-.09.09.06-.12.08-.09zm-.46 2.69c.03.21.41.09.36.36h.18c.02-.28.38.09 0 0 0 .14-.25.31-.18 0-.36.09-.59-.14-.37-.36zm-.09.74c-.01.05-.07.08-.12.07-.03 0-.06-.03-.07-.07.03-.13.07 0 .17 0zm-.28-.74c0 .11-.09.05-.09 0 0-.1.09-.05.09 0zm-.36.37c0 .49.39.1 0 0zm.09-5.57c-.59-.11-.2.28 0 0zm-1.58 4.45c0 .09-.11.07-.18.09-.01-.08.1-.07.17-.09zm-2.69 7.79c.21.1.35.32.36.56-.12-.13-.44-.06-.56-.18.04-.13.13-.23.18-.37h.02zm-.09 1.76s.07-.12.09-.09-.08.12-.11.1h.02zm15.15 3.37v6.68h-4.59v-2.65h-4.42v3.12h3.8v3.7699h-3.8v3.38h4.51v-2.99h4.59v7.03h-16.41v-4.09h1.94v-10.1699h-1.94v-4.09h16.33-.01zm-.24 26.9499c.2.08.28.52-.09.46-.08-.26.13-.24.09-.46zm.19 1.21c-.08.06-.17.11-.18 0 .01-.05.06-.08.11-.07.04 0 .07.04.07.07zm-.1-1.49c.14-.33.18.17.09.18-.05.01-.11-.13-.09-.18zm-.09-1.66c-.15-.03-.25.09-.28.09-.11 0-.13-.17-.18-.18s-.91.14-.83-.46c.3 0 .5.12.56.36.48-.18.7-.02.97.13v.08s0 .07.01.1c-.07-.06-.15-.1-.24-.12zm-2.5 4.54s-.07.12-.09.09.07-.12.1-.09zm0-5.46c-.49-.1-.11.28 0 0zm-.1-.74c-.24-.03-.07.36-.36.28.04-.18.2-.23.18-.46.27.1.57.18.65.46.22 0 .27-.16.56-.09-.18.17-.03.34 0 .55h-.46c.29-.19.14-.34-.18-.18-.13.06 0 .11 0 0-.08-.21-.21-.4-.38-.56zm-1.29 4.08v-.18h.18v.18zm.09.92c-.04.13-.08 0-.17 0v-.02c.03-.1.17-.08.17 0zm.18-.83c0 .09-.11.07-.18.09 0-.1.12-.08.19-.1h-.01zm-.18-3.99c-.28.07-.34-.09-.56-.09.02-.3.6-.21.56.09.14.1.19.3.46.28-.12.23-.6.05-.46-.29zm-.65-.83c-.23.02-.22-.21-.36-.28-.23.23-.4-.07-.74 0 .43-.23.92-.29 1.39-.18.09.33-.46.03-.28.45h-.01zm.09 4.36s-.01.05-.03.06l-.02-.05s.04-.01.05-.02zm-.18-.93s.07-.12.09-.09-.07.11-.09.09zm-.36-3.25c0 .09-.11.07-.18.09 0-.1.1-.08.18-.1zm-.47-.09s-.07.12-.09.09.06-.13.09-.1zm-.09 1.02s-.01.03-.03.04l-.02-.05h.05zm.74-3.24c-.22.31.31-.22 0 0zm.18.46c0 .1-.09.05-.09 0 0-.11.09-.06.09 0zm-.18.83c.06.13.11 0 0 0-.12 0-.06-.14 0 0zm1.3-1.66s-.08-.06-.11-.09h.27c-.1 0-.2.07-.16.08zm-.09 2.22s.07-.12.09-.09-.07.11-.1.08h.01zm0 .56c0 .09-.11.07-.18.09 0-.1.11-.08.18-.1zm.36 5.46c-.49-.1-.11.28 0 0zm.18-5.38h-.18c.02-.08-.04-.09-.09-.09-.03-.18.42-.13.28.09zm-.18-2.97h.39v.18c-.11-.01-.16.02-.18.09-.12 0-.12-.24-.2-.27zm.09 10.2c.18.11 0 .28-.11.43l-.07-.22c.05-.08.11-.15.18-.2zm-.09-5.57c-.03-.15.09-.16.09-.28.18-.03.14.43-.09.28zm2.32-3.43s-.07.12-.09.09.07-.11.09-.09zm.09-.83v.36c-.29 0-.35-.33 0-.36zm0 1.2s-.07.12-.09.09.07-.11.09-.09zm-.56-1.57h.56c-.12.22-.58.66-.56 0zm.1 1.02c-.27-.12-.98.18-1.02-.36.4 0 1.16-.36 1.02.37zm-.37 1.29c.15-.03.16.09.28.09.03.19-.43.14-.28-.09zm-.18-.09c0-.09.11-.07.18-.09 0 .09-.12.08-.19.1h.01zm0 1.02c-.01.05-.07.08-.12.07-.03 0-.06-.03-.07-.07.03-.13.07.01.17 0zm-.36-1.39s-.21-.13-.18-.18c.11-.33.41.11.17.19h.02zm-.19-1.48c-.13.06 0 .11 0 0-.03-.11.12-.05-.02 0zm0 .74s-.07.12-.09.09.05-.11.07-.09zm.55 8.34c-.14.28-.41-.08-.65 0 .11-.39.29.09.64 0zm0-2.5c-.22.31.31-.22 0 0zm-.28-1.02c.35-.34.39.41.83.28-.29.63-.56-.11-.83-.28zm1.2 2.51c-.28-.02.09-.39 0 0 .18-.04.23-.2.46-.18-.12.47-.33.84-.83.93.08-.29.31-.43.37-.74zm0-1.39s-.07.12-.09.09.06-.12.09-.09zm.19-1.76s.07-.12.09-.09-.07.12-.09.09zm.18 2.69s-.07.12-.09.09.07-.12.09-.09zm.18-4.55c-.4.04-.16-.49-.18-.65-.01-.1-.18-.06-.18-.18-.01-.2.09-.23.09-.36.02-.31-.08-.38.09-.65.21.12.05.33.09.46.09.24.23.05.18.28.02.11.09.21.18.28-.39.08-.41.41-.27.83zm.51.19v.38c-.09-.09-.2-.15-.32-.18.09-.09.21-.15.33-.19h-.01zm-.33-2.6c0-.09.11-.07.18-.09 0 .09-.1.07-.17.09zm-.28-.18c-.17.25-.01-.59-.28-.55.14-.18.4-.21.58-.07.02.02.05.04.07.07-.09.29-.46-.06-.36.55zm-.18.18c-.02.15-.11 0-.09-.09.03-.14.11 0 .1.09zm-5.56.56s-.05.1-.08.09v-.05s.07-.06.09-.04zm-.09-.56c0-.11.09-.05.09 0 0 .11-.09.06-.09 0zm0-.37c-.15-.09-.07-.43-.28-.46-.35 0-.04.09-.09.28 0 .02-.02.04-.03.06-.06-.14-.12-.28-.18-.41.11-.08.21-.13.31.07.19-.05.3-.27.46-.09-.03.19-.1.38-.18.56h-.01zm.55 1.76c-.06.2-.18-.03-.28 0h-.01l-.09-.24c.16 0 .31.1.38.24zm-.09-2.13s.07-.12.09-.09-.06.12-.09.09zm-11.78-7.86h-.04l-.1-.12c.13-.17.25-.33.33-.46 0 0 .09-.27.09-.28.13-.12.58-.16.74-.28.19-.14.06-.17.18-.36.06-.1.25-.22.36-.36.02-.03.03-.05.05-.07v.48c-.09.12-.15.23-.24.31s-.27.18-.36.28c-.19.21-.41.4-.65.56-.09.06-.32.14-.36.18-.02.02-.01.06 0 .11zm-1.45-5.5899 1.11-1.08h.13c-.37.35-.75.85-1.24 1.08zm.62 4.3699v.18h-.09l-.08-.09c.02-.07.06-.12.18-.1h-.01zm-.18-.46s-.07.12-.09.09.07-.12.1-.1h-.01zm-.28-2.6899c0-.09.11-.07.18-.09 0 .09-.11.07-.18.09zm-.18 2.0399c0-.11.09-.05.09 0 0 .1-.09.05-.09 0zm-.09.46s.07-.12.09-.09-.07.12-.09.09zm-.1-1.0199c.03-.13.13-.18.09-.36-.24.03-.24-.19-.28-.36.25-.03.24.19.28.36.34 0 .36.45-.09.35zm-.46-1.76c-.1.24.13.66-.28.65.05-.26.07-.55.14-.8l.29-.28s.08.05.13.06c.01.21-.21.21-.27.37zm.18 2.2199c-.21-.03-.21-.2499-.09-.3599.13.02.08.22.1.3599zm1.58-3.5199c.1-.15.09-.4.36-.28-.07.33-.26.55-.36.83-.34-.05-.11-.38 0-.56zm-.19 1.76s.07-.12.09-.09-.07.11-.09.09zm.65-1.57s-.07.12-.09.09.07-.12.09-.1zm-.18 1.67s-.07.12-.09.09.06-.12.09-.1zm.37 3.0599s-.07.12-.09.09.07-.12.1-.1h-.01zm.36-3.5299c-.3.29.33.15 0 0-.39-.06.14-.68.01 0zm.98-1.33v.35c-.06-.11-.06-.24.01-.35zm-.12-.78h.11v.23c-.08-.05-.12-.14-.1-.23zm.12 3.23v.05s-.1.02-.14.03c.01-.08.09-.08.15-.09h-.01zm0 .83v.1099c-.07.09-.19.12-.14-.1099-.11 0-.06-.13 0 0zm-.07 2.6099h-.12c-.1 0-.21.01-.31.04.05-.13.2-.19.32-.14.05.02.09.06.12.1zm.11-17.7199c-.01.11-.17.08-.28.09.03-.11.18-.08.29-.1h-.01zm-.36 12.98c0-.06.01-.11.09-.09 0-.06.01-.11.09-.09 0-.11.13-.06 0 0 0 .06-.01.11-.09.09 0 .06-.01.11-.09.09 0 .12-.12.13-.09.28-.18.03-.13-.42.09-.28zm-.21-1.98s.07.01.1.02c0 .05-.07.12-.08.18-.13-.05-.06-.12-.02-.2zm-.25-11.75c.08.02.09.09.18.09-.05.22-.43.06-.18-.09zm-.09 12.43c.46-.07 0 .31 0 .36-.02.23.23.49 0 .65-.26.06-.05-.13-.09-.28-.05-.1-.12-.19-.18-.28.02-.14.44-.19.27-.46zm-.19 2.68s-.07.12-.09.09.06-.12.09-.09zm-.27-13.25s-.07.12-.09.09.06-.12.09-.09zm-.93-6.77c.17.07.01.17 0 .28-.17-.07-.02-.17 0-.28zm0 7.88c-.01.11-.17.08-.28.09 0-.11.16-.08.27-.09zm-.65-1.3c.18-.22.38.12.18.28-.13-.03-.11-.2-.18-.28-.03-.28-.39.09 0 0zm-.18 1.39c.09 0 .07.11.09.18.08-.04.17-.08.18-.18.08-.02.09.04.09.09v.18c-.39.07-.52.12-.38-.27zm-.09-1.11s-.07.12-.09.09.06-.12.08-.09zm-.28 1.21s-.07.12-.09.09.06-.12.08-.09zm-1.21.74s-.07.12-.09.09.06-.12.08-.09zm-.1.31h-.43s-.01-.03-.03-.04c.01.01-.2-.13-.18-.09-.1-.33.23-.81-.36-.83.53-.23.87.45.99.97h.01zm-1.02-2.82s-.07.12-.09.09.07-.11.09-.09zm-.36-7.78s-.07.12-.09.09.06-.12.09-.09zm-.56.09c0 .09-.11.07-.18.09 0-.09.1-.07.17-.09zm-.36.09s-.07.12-.09.09.05-.12.08-.09zm-.19 7.14c.02-.1.1-.14.18-.18-.01-.17.09-.22.28-.18-.03.12-.15.2-.28.18-.01.11-.03.22-.18.18 0 .11-.15.06-.02 0zm.1 2.41s.07-.12.09-.09-.09.12-.11.09zm-.18-9.55c-.24 0-.48-.02-.46-.28.14.09.48 0 .44.28zm-.1 7.97s.07-.12.09-.09-.08.12-.11.09zm-.18 1.4s.07-.12.09-.09-.09.12-.12.09zm-.65-9.65c-.01.05-.06.08-.11.07-.04 0-.07-.04-.07-.07.01-.13.05.01.16 0h.03zm-1.2 9.08c0 .09-.11.07-.18.09-.03-.08.09-.07.16-.09h.03zm-.1.93c0-.06.01-.11.09-.09-.02-.41.36-.03 0 0 0 .06-.01.11-.09.09v.18c.11.01.22.03.18.18h-.18v-.18c-.17 0-.33-.24-.03-.18zm-.64.65c.28 0 .22-.33.56-.28-.03.28.3.19.46.28.22.04-.05-.42.28-.28-.06-.1.18-.07.18-.09.2-.46-.42-.45-.36-.36-.04-.07.1-.13.09-.18-.03-.15-.35-.19-.28-.46.58.3.87-.41 1.48-.36-.15.41-.88.33-1.02.74.08.27.23-.12.46 0-.24.15-.11.38-.18.65-.07.23-.29.26-.26.41h-1.03v-.04s-.07 0-.09.04h-.16c-.19 0-.38.03-.56.09-.07-.02-.14-.04-.21-.05.21-.23.35-.44.62-.09h.03v-.02zm2.13-1.02c0 .06-.01.11-.09.09-.13.06.01.11 0 0 0-.06.01-.11.09-.09-.04-.4.34-.02-.03 0zm-.37.93s.07-.12.09-.09-.1.12-.12.1h.03zm-4.26-.84s-.07.12-.09.09.03-.11.06-.09zm-7.47 2.72h8.93v4.04h-1.62v3.09h1.2l3.09-3.09h-1.55v-4.04h8.94v4.09h-1.49l-4.64 4.51 4.85 5.6599h1.44v4.09h-9.25v-4.04h1.44l-2.86-3.33h-1.18v3.33h1.62v4.04h-8.93v-4.09h1.94v-10.1699h-1.94v-4.09zm15.41 21.9499c.05 0 .11.02.15.05l-.18.56-.06.04c-.24-.2.38-.32.09-.65zm-.09-1.86c-.13.06 0 .11 0 0zm-1.21 2.23s.07-.12.09-.09-.07.13-.09.09zm.18.09c0 .09-.11.07-.18.09 0-.09.11-.07.19-.09zm.19.09c.12.04.2.15.18.28-.22 0-.27.16-.56.09.09-.16.35-.16.38-.37zm.09-.55c.19.14.51.17.56.46-.24-.09-.52-.15-.55-.46zm.46.83c.02-.12.18-.09.18 0-.03.13-.07 0-.18 0zm.07.55-.03.09h-.04s.04-.08.08-.08h-.01zm-1.92 3.81c-.13.06.01.11 0 0 0-.11.14-.05 0 0zm0-3.8c.04-.12.15-.2.28-.18-.04.12-.15.2-.28.18zm.19 4.08c-.01.05-.07.08-.12.07-.03 0-.06-.03-.07-.07.04-.14.08 0 .19 0zm.09.18c0 .09-.11.07-.18.09 0-.09.11-.06.19-.09zm.09-.18s-.07.12-.09.09.07-.12.1-.09zm.03.43v.03h-.03zm-.03-.53s.07-.12.09-.09-.06.12-.09.09zm.36-4.45c.11.01.08.17.09.28-.16.02-.24-.16-.28 0-.34-.16.21-.15.2-.28zm-2.12 6.22c-.08.05-.27-.03-.36 0-.28.09-.28.43-.56.36-.03-.3.24-.38.28-.46s-.04-.22 0-.28c.11-.1.24-.2.36-.28.17-.12.49-.22.56-.28.33-.29.43-.58.65-.93.18.11-.18.57.36.46.01.24-.18.45-.42.46h-.04c.02.25-.21.32-.36.46-.14.17-.3.32-.46.47v.02zm-.09 2.87c-.23.31.31-.22 0 0zm-.74-1.48c.05-.3-.06-.43-.09-.65.21.18.47.27.74.28 0 .35-.36.32-.65.37zm.36 1.11s.07-.12.09-.09-.06.12-.09.09zm-1.85 0c.18-.24.28-.53.28-.83-.29-.05-.33.17-.65.09.15-.5.46-.84.65-1.3.05-.14.1 0 .09.09-.23.24.13.4.18.65s-.07.43 0 .65c.14.46.63.85.28 1.2-.25.08-.31-.21-.46-.28-.03-.01-.17.02-.18 0-.09-.16.3-.33-.18-.28zm.09.36c-.11.21-.32.35-.56.36.04-.34.23-.55.56-.36zm-.09-4.91c.07-.21.52-.04.74-.09-.22.24-.55.56-.73.1zm.65-.37c.02-.16-.08-.2-.09-.33h.36c.13 0 .26-.02.38-.06.01.12.06.2.18.21-.15.18-.48.2-.83.19zm.92-.18c.01-.05.07-.08.12-.07.03 0 .06.03.07.07-.07.05-.15.11-.17 0zm1.02-5.46s.07-.12.09-.09-.06.11-.09.08zm.37 2.88s-.28-.1-.28-.09c-.01-.16.52-.14.29.08h-.01zm-.37-1.02c-.01.11-.17.08-.28.09.02-.12.18-.08.29-.1h-.01zm-.27-2.04c0-.09.11-.07.18-.09 0 .08-.1.06-.17.08h-.01zm.09 1.29c0 .13-.07.25-.18.32v-.42c.06.04.12.07.19.09h-.01zm-.09 3.43v.18h-.18v-.18zm1.02 1.3c0-.06.01-.11.09-.09.02-.28.38.09 0 0 0 .06-.01.11-.09.09-.02.35-.4-.03 0-.01zm-.1-1.76c.03-.12.15-.2.28-.18-.04.11-.15.19-.27.17h-.01zm.19-3.71c0-.09.11-.07.18-.09.01.08-.1.06-.17.08h-.01zm-12.98-14.6499c0-.09.11-.07.18-.09.01.08-.1.06-.17.08h-.01zm.26.13v.29c-.05.04-.12.05-.18.05.02-.14.09-.26.2-.35h-.02zm-.19-1.03h.21v.09c-.1 0-.19-.03-.27-.09h.07zm.02.63s-.07.12-.09.09.08-.13.1-.1h-.01zm-.28 2.5c0 .09-.11.07-.18.09 0-.1.12-.08.19-.1h-.01zm-1.02.55c-.13.06 0 .11 0 0 .11-.15.29-.22.46-.18 0 .4-.15.16-.45.18zm0 2.6799c-.22.31.31-.22 0 0zm-9.25 2.05h2.02v-10.1699h-2.02v-4.09h9.41v4.09h-2.01v10.1699h2.02v4.09h-9.42zm-18.48 0h1.94v-10.1699h-1.93v-4.09h12.56c1.63 0 2.46.29 3.17 1 .84.86 1.18 2.12 1.18 3.54 0 2.78-1 3.9-2.88 4.43v.05c2.02.5 3.06 1.4399 3.06 4.4299 0 1.81-.5 3.01-1.34 3.85-.76.76-1.73 1.05-3.22 1.05h-12.53v-4.09zm-.55 14.27c.02-.12.18-.09.18 0-.07.06-.15.11-.17 0zm.37-.65c.11-.27.11-.57 0-.84.25.13.43.84.02.84zm36.71 14.93c-.2.02-.29-.07-.28-.28h.28zm-.18-7.7c0-.1.09-.05.09 0 .02.11-.07.05-.07 0zm.55-2.04s.07-.12.09-.09-.05.11-.08.09h-.02zm-3.63 9.61c-.4 1.83-1.25 2.42-3.01 2.42h-5.49c-1.76 0-2.64-.59-2.97-2.42l-2.24-12.22h-.33l-2.2 12.22c-.33 1.83-1.21 2.42-2.97 2.42h-5.54c-1.76 0-2.61-.59-3.01-2.42l-3.85-17.65h-2.28v-5.72h12.73v5.72h-2.56l1.98 12.62h.36l2.9-16c.33-1.83 1.21-2.42 2.97-2.42h3.85c1.76 0 2.64.59 2.97 2.42l2.9 16h.33l1.98-12.62h-2.58v-5.72h12.18v5.72h-2.28l-3.87 17.65zm4.4-13.99.26-1.18h.18c.01.54-.24.81-.36 1.2l-.07-.03h-.01zm.35 25.24c-.07.56.43.06 0 0zm.18-.09s.07-.12.09-.09-.05.12-.07.09zm.09.18c0-.09.11-.07.18-.09.03.09-.09.08-.16.09h-.03zm4.17-7.42c.28-.34.31.28 0 0zm.84 4.36c-.02.15-.11 0-.09-.09.04-.14.13 0 .11.09zm0-.28c0-.09.11-.07.18-.09.02.09-.09.07-.16.09zm1.85-2.5c0 .1-.03.2-.09.28-.14-.02-.06-.2 0-.28h.09c.11-.38-.2-.36-.18-.65.33-.05.23.33.56.28.06.29-.22.27-.35.37zm1.21-1.76c.01-.11.17-.08.28-.09 0 .11-.15.08-.26.1h-.02zm1.02 1.2c-.21-.07-.04-.52-.09-.74.5.08.17.46.11.75h-.02zm.27 2.41c.02-.16.16-.21.36-.18-.06.08-.1.18-.09.28-.07-.06-.16-.09-.25-.09h-.02zm.28 1.02s.07-.12.09-.09-.05.12-.06.1h-.03zm.1.18s.07-.12.09-.09-.05.13-.07.1h-.02zm2.31-2.78c-.22.31.31-.22 0 0zm.1-.46c-.11 0-.06-.13 0 0 .13 0 .07.14.02 0zm.46 1.58c.02-.16.16-.21.36-.18-.07.12-.2.19-.34.19h-.02zm.03-11.09h.05s-.01.03-.02.04 0-.02-.01-.03h-.02zm.9 11.27c-.07-.24-.3-.31-.36-.56h.28c.12.12.12.33.11.56zm.09-2.41c-.11 0-.06-.13 0 0 .13 0 .08.14.02 0zm.18.83s.07-.12.09-.09-.05.13-.07.1h-.02zm.09-1.2c-.41.02-.03-.36 0 0 .35-.06.5-.11.56.28-.31.06-.5-.03-.53-.27h-.03zm0-.28c0-.09.11-.07.18-.09.02.1-.09.08-.16.1h-.02zm13.43-1.7h-12.59v-5.61h2.35l-.62-2.2h-6.53l-.59 2.2h2.35v5.61h-12.03v-5.72h2.16l5.98-17.65c.62-1.8 1.32-2.42 3.08-2.42h5.21c1.76 0 2.46.62 3.08 2.42l5.98 17.65h2.16v5.72zm.78-10.9c0 .05-.01.11-.09.09-.13.06 0 .11 0 0 0-.06.01-.11.09-.09.13-.06 0-.11 0 0zm-.36-24.3999c.05-.08.08-.17.08-.26-.03-.24-.2-.34-.28-.65.22.25.62-.15.36-.36-.12-.02-.24.06-.28.18-.1-.01-.1-.13-.09-.25.51-.15.93-.53 1.12-1.03.04.07.08.15.18.17.03-.15-.06-.17-.17-.18.03-.07.05-.15.07-.22.05.09.06.21.29.13.11-.02.1-.15.09-.28-.11-.15-.22-.11-.35-.08 0-.05.01-.11.02-.16v-.54c.05-.06-.04-.16.05-.16.23.01.16.23.36.18.12 0 .08-.16.18-.18-.01-.4-.4.16-.36-.28.36.05.52-.13.67-.3v1.42c-.07-.01-.14-.01-.21 0v.56c.07 0 .14 0 .21-.01v.48c-.1 0-.26-.04-.3 0-.24.25-.13.64-.18.93 0 0-.18-.01-.18 0 .09.14.15.3.18.46-.03.06-.21-.03-.18.09s.33.17.18.36c.06.14.11 0 0 0-.11.03-.35.3599-.46.09-.29.05-.18.4299-.12.6599-.2-.35-.51-.6199-.89-.7599zm22.87 35.2999h-22.27v-5.72h2.72v-14.23h-2.72v-5.72h13.14v5.72h-2.9v14.31h5.61v-4.33h6.42v9.98zm-21.58-17.67c.08-.12.22-.19.36-.18 0 .34-.13.23-.36.18zm.65 2.32c0-.11.13-.06 0 0-.39-.09-.02.28 0 0zm10.29-1.95s-.05.02-.08.02v-.21c.05.03.1.08.07.19zm-.07-1.16v-.09s.08.01.08.05c0 .08-.06.07-.08.04zm4.34-3.38c-.38.08-.22.71-.65.74.25-.25-.03-.44-.09-.65.39.11.52-.3.74-.09zm-.65-.46c.28-.34.31.28 0 0zm1.38 6.12c.14.14.15.41.18.65-.3-.04-.08-.6-.56-.46-.13.06 0 .11 0 0-.06-.25.44.07.37-.19zm-.28-3.9s-.07.12-.09.09.07-.12.1-.09zm1.3-2.5c0-.1.03-.2.09-.28h.09c-.02-.41.36-.03 0 0 .02.12-.06.24-.18.28-.03.19-.09.38-.18.56-.11.23-.26.3-.36.46-.08.11.03.49-.28.36.03-.31.27-.41.18-.83.51.12.35-.45.64-.55zm.09-.93s-.07.12-.09.09.07-.12.1-.09zm.18 0s-.07.12-.09.09.07-.12.1-.09zm1.02 2.23c.04.2-.13.18-.28.18.03-.12.16-.2.28-.18zm-.09-2.5s-.07.12-.09.09.07-.12.1-.09zm-.28-.28c-.23-.01-.03-.31 0-.36.29.05-.08.19 0 .36zm-.09.36c-.1.55.4.04 0 0zm.55 3.25c-.28.15-.14.3-.36.65-.05.07-.24.11-.28.18-.11.2-.05.51-.28.65-.21-.01 0-.28 0-.27 0-.07-.14-.15-.09-.28s.3-.18.36-.28c.13-.15.21-.76.67-.65zm.18-3.16s-.21-.13-.18-.18c.15-.33.45.11.2.19h-.02zm0 2.14c-.18-.18-.18-.4-.09-.65.2.08.3.3.22.5-.02.06-.06.12-.11.16h-.02zm.09 1.85c.07-.13.03-.26.09-.36.04-.07.16-.13.18-.18.09-.18.01-.37.28-.46-.02-.11-.17-.08-.28-.09.05-.26.29-.33.56-.36-.06.2-.23.69.09.74-.15.24-.18-.08-.36 0s0 .24-.09.36c-.03.04-.27.04-.28.09 0 .1.28.09.28.09-.02.23-.31.13-.28.28.02.08.09.09.09.18.16-.08.32-.17.28-.46.31.16-.11.94-.46 1.02-.01.11.02.17.09.18-.1.27-.3-.12-.28-.28-.28 0-.61.05-.55-.28.21.15.48.22.74.18-.08-.12-.22-.19-.36-.18-.16-.24.19-.29.28-.46h-.02zm.65-2.22c.04.29-.08.41-.36.36-.04-.3.17-.32.38-.36zm0 8.62c-.03-.1-.36-.35-.46-.09-.27-.48.89-.6.48.1h-.02zm-.46-2.14c.16.02.21.16.18.36-.14 0-.19-.15-.16-.36zm.28-1.29c-.22.04-.16.27-.28.36-.05.04-.24-.05-.28 0s.02.18 0 .18c-.28.11-.53-.09-.83.09-.01-.46.09-.46 0-.84.25-.23 1.23.47 1.2-.28.39-.05.44.23.46.55-.1.12-.26-.06-.26-.07h-.02.01zm-.93 3.8c-.14.06 0 .11 0 0 .05-.36.43.03.02 0zm-.18 1.3c-.04.18-.18.07-.09-.28.08-.25.12.22.11.29h-.02zm.65-6.68c.5-.13.18.56.65.46-.08.19-.27.28-.56.28.2-.32-.1-.33-.08-.74h-.02zm-1.12 5.66c0 .31-.36.25-.46.46-.23-.19.28-.4.48-.46zm-.65.55c-.08.22-.37.25-.65.28.03-.52.39-.5.66-.27h-.02zm-.73-10.74c-.09-.4.46-.16.46-.46.23.15-.3.67-.46.46zm.1-1.02c-.19 0-.36-.14-.36-.33v-.03c.29-.05.41.07.37.36zm-.28 1.76s.07-.12.09-.09-.06.12-.09.09zm-.18 3.98s.07-.12.09-.09-.07.12-.09.09zm-.09 5.1c-.13-.02-.03-.28-.18-.28.21-.31.56.21.18.28zm.18 1.3c-.03.12-.15.2-.28.18-.04-.19.13-.17.28-.18zm-.46-7.42c-.23-.01-.03-.31 0-.36.22 0 .02.31 0 .36zm-.37 1.3c-.31-.03-.17.39-.46.36-.05-.23.01-.48.18-.65.09.06.1.21.28.18.36-.05-.07-.36.18-.55.33.4.02.92-.18 1.3-.28-.11.07-.36.09-.46-.02-.07-.1-.09-.1-.18zm0-1.39s-.07.12-.09.09.06-.12.09-.09zm0-.74s-.07.12-.09.09.06-.11.09-.09zm.28 4.26s-.07.12-.09.09.06-.12.09-.09zm.09 2.23s-.07.12-.09.09.06-.12.09-.09zm0-7.42s-.07.12-.09.09.06-.12.09-.09zm.1-2.41c-.31-.28-.28.34 0 0zm-.19 1.58s-.07.12-.09.09.06-.12.08-.09zm4.45-.37s-.07.12-.09.09.06-.13.08-.1zm.28.1c0 .09-.11.07-.18.09 0-.1.09-.08.17-.1h.01zm-.18-1.3c0-.11.09-.05.09 0-.01.1-.11.04-.11 0zm.18 0c0-.09.11-.07.18-.09 0 .08-.12.06-.19.09zm.47 1.76c-.04.12-.15.2-.28.18-.05-.2.12-.18.27-.19h.01zm0 .74c.11-.02.51.13.46.09.07.11.07.25 0 .36-.17-.36-.56.1-.46.56-.08-.06-.17-.11-.18 0-.17 0-.03-.27-.09-.36-.08-.05-.16-.09-.25-.11.08-.1.41-.53.52-.55zm.27-2.69s-.07.12-.09.09.06-.13.08-.1zm-.46 5.65s.07-.12.09-.09-.07.13-.09.09zm-.28-3.89c-.08.06-.17.11-.18 0 .01-.12.17-.09.17 0zm1.67-2.97s.07-.12.09-.09-.07.12-.1.09zm.28 10.29c0-.11.09-.05.09 0 0 .1-.1.05-.1 0zm.18-.65s.07-.12.09-.09-.07.12-.09.09zm-2.29-17.4-.97 3.25h2.52v2.49h-7.31v-2.49h1.99l4.74-15.0399c.23-.73.47-.89 1.26-.89h2.2c.79 0 1.02.16 1.26.89l4.74 15.0399h1.99v2.49h-7.6v-2.49h2.52l-.97-3.28c-1.6 0-4.69.03-6.37.03zm2.93 18.05s.07-.12.09-.09-.07.12-.09.09zm23.3 14.33h-22.97v-5.72h2.72v-14.23h-2.72v-5.72h22.86v9.36h-6.42v-3.71h-6.2v4.37h5.33v5.28h-5.33v4.73h6.31v-4.19h6.42v9.84zm-3.92-31.11c-.11-.01-.21-.16-.28 0-.15-.04-.08-.29-.36-.18-.02.07-.08.11-.18.09 0 .14.24.07.18.28h-.28c-.21-.45.06-.52.36-.84.12 0 .13.12.28.09-.03.12-.15.2-.28.18.31.37.5-.26.56.37zm1.3 1.95s.06-.08.11-.09c0 .1 0 .19.02.28-.04-.02-.09-.02-.14-.01.06-.08.11-.17 0-.19zm-.46-1.11c.34.26.6.73.22 1.08-.02-.48-.23-.92-.58-1.24v-.12c.27.08.32.12.46-.09-.11-.3-.05-.51-.18-.74-.09-.15-.49-.15-.36-.46.27 0 .28.22.55.28.12 0 .24 0 .36-.02 0 .27.02.54.03.79-.16.18-.17.51-.49.53h-.01zm3.06 15.24s-.08.07-.1.05v-.04h.1zm-1.4.24c-.15.43-.58.6-1.21.56-.38-.09-.02.28 0 0 .06-.17.22-.22.28-.28.17-.18.15-.1.36-.18.03-.01.11-.18.09-.18.16-.04.33.32.47.09h.01zm-4.69 2.36v-.5c.18.12.15.3.24.62s.41.4.46.74c-.12-.13-.4-.09-.65-.09.18-.25.04-.49-.05-.77zm6.08.04s-.07.12-.09.09.07-.11.09-.08zm.75-.74c-.18.1-.18-.2-.09-.18-.2-.03-.18.16-.46.18-.14 0-.29-.18-.56-.09-.29.2-.17.76.18.83-.12.39-.48 0-.56-.18-.36-.21 0-.91.36-.65-.03-.59.71-.41 1.11-.56v.65zm-.65-1.02c.06.13.11 0 0 0-.11.02-.06-.13 0 0zm0-.89c.12-.02.23-.05.34-.1.03.03.07.05.11.06-.2.12-.21.02-.46.18 0-.05 0-.1.02-.14zm.64-.04s.07-.12.09-.09-.06.13-.08.1zm.46-.36c-.09.12 0 .39-.18.46-.23-.01-.03-.31 0-.36 0-.07-.04-.13-.1-.15.09-.11.16-.22.21-.35.1.09.23.14.36.13 0 .02.02.03.02.05v.08c-.03.09-.25.08-.3.14zm.18-9.37v-.1h.19c0 .08-.05.13-.18.1zm-1.54-2.33c-.39-.39-.6-1.09-.71-4.72-.05-1.47-.24-1.94-.58-2.28-.42-.42-.87-.5-1.78-.5h-3.88v5.5h2.53v2.49h-7.78v-2.49h2.46v-13.3699h-2.46v-2.49h11.14c1.2 0 2.02.21 2.57.76.71.71 1 1.6 1 4.35 0 3.22-.76 3.88-2.86 4.17v.05c1.94.36 2.49 1.0999 2.59 3.7699.03.81.08 1.89.13 2.7h2.1v2.55h-2.65c-1.1 0-1.49-.19-1.81-.5h-.01zm-11.9-4.8c.2.09.13.67-.18.56-.26-.27.11-.37.2-.55h-.02zm14.83 21.23s-.07.12-.09.09.08-.12.11-.09zm-.87-14.19h.14c.04.12 0 .31.18.28-.14.19-.39-.06-.33-.28zm20.87 23.65c-.77.77-1.98 1.25-4.04 1.25h-10.28c-2.31 0-3.64-.29-4.55-1.21-1.06-1.06-1.47-2.94-1.47-7.45h7.05c.07 1.91.18 2.46.36 2.64.22.22.66.29 1.73.29h3.52c1.06 0 1.61-.07 1.8-.26.22-.22.29-.7.29-1.61 0-.73-.07-1.17-.29-1.39-.18-.18-.81-.33-1.83-.44l-7.37-.88c-1.61-.18-2.68-.59-3.49-1.39-.99-.99-1.47-2.68-1.47-6.24 0-3.27.62-5.32 1.8-6.49.77-.77 2.02-1.25 3.96-1.25h9.61c2.38 0 3.74.36 4.55 1.17 1.1 1.09 1.51 2.72 1.54 7.15h-7.04c-.07-1.61-.15-2.09-.36-2.31s-.59-.29-1.54-.29h-3.46c-.88 0-1.28.04-1.43.18-.18.18-.26.62-.26 1.46s.07 1.18.29 1.4c.18.18.59.26 1.83.4l7.37.88c1.76.22 2.68.62 3.45 1.39.99.99 1.5 2.75 1.5 6.2s-.62 5.63-1.79 6.8z"/><path d="m114.76 87.62s.14-.05.09-.09-.14.05-.09.09z"/><path d="m149.42 92.54h-4.95v5.5h4.95c.76 0 1.02-.08 1.15-.21.24-.23.34-.63.34-2.52s-.11-2.33-.34-2.57c-.13-.13-.39-.21-1.15-.21z"/><path d="m128.35 92.54-2.31 7.73h4.98l-2.28-7.73z"/><path d="m76.56 120.71s.14-.05.09-.09-.14.04-.09.09z"/><path d="m151.66 121.64h.18c.15-.23-.31-.27-.28-.09.06 0 .11.01.1.09z"/><path d="m76.75 120.62s.14-.05.09-.09-.14.04-.09.09z"/><path d="m128.94 83.17s-.14.04-.09.09.14-.05.09-.09z"/><path d="m112.63 86.5h-.09c.02.1.09.05.09 0z"/><path d="m147.02 103.75v-.09c-.11.01-.05.09 0 .09z"/><path d="m120.97 81.78s-.14.05-.09.09.14-.04.09-.09z"/><path d="m108.27 86.4101s.14-.04.09-.09-.14.04-.09.09z"/><path d="m123.47 84.9301c.36.03.68 0 .74-.28-.15-.15-.55-.07-.46-.46h-.28c.11.24.11.51 0 .74z"/><path d="m124.77 86.0401c.11-.76-.37-.11-.36-.09.01.05.39-.02.36.09z"/><path d="m123.38 84.0101c-.02-.08.04-.09.09-.09v-.18c-.22-.16-.27.3-.09.27z"/><path d="m108.27 86.13s-.14.04-.09.09.15-.04.09-.09z"/><path d="m120.78 86.87c0-.09-.16-.12-.18 0 .1 0 .14.13.18 0z"/><path d="m120.32 86.78s-.14.05-.09.09.14-.04.09-.09z"/><path d="m107.06 85.9501c-.1 0-.14-.13-.18 0 .01.05.06.08.11.07.04 0 .07-.04.07-.07z"/><path d="m89.47 115.93-1.69 5.94h3.74l-1.65-5.94z"/><path d="m109.66 84.01v.09c.11-.03.05-.09 0-.09z"/><path d="m116.56 98.39c.24-.23.34-.6.34-2.8s-.1-2.6-.34-2.83c-.13-.13-.39-.21-1.15-.21h-4.69v6.05h4.69c.76 0 1.02-.08 1.15-.21zm-3.38-2.99c-.36-.1-.46-.46-.55-.83.41.07.79.38.55.83zm1.95 1.45h-2.37s-.03-.04-.04-.05l-.05.05h-.21v-1.34c.32.21.86.22 1-.19.17.08.24.26.55.18-.08.5-.55.08-.83.28-.04.51-.07.55.09.93.28-.12.46-.34.84-.36.33.15.48.47.74.46.1 0 .19-.02.28-.05v.1zm-1.48-1.73s-.07.12-.09.09.07-.12.09-.09zm1.29.28s-.07.12-.09.09.07-.12.09-.09zm-.46-.18c.29-.32-.21-.41-.09-.83-.22.06-.43.12-.46.36-.11-.01-.21-.17-.28 0-.28-.26.11-.36.33-.47h1.15v.22s-.03.04 0 .06v.37c-.2.02-.26.13-.65.28z"/><path d="m105.21 99.66c.02-.12-.06-.24-.18-.28-.38-.09-.02.28 0 0-.02-.16-.16-.21-.36-.18-.1.43.19.48.55.46z"/><path d="m104.93 98.2801c-.01-.18-.2 0-.18 0-.08 0-.4-.22-.36.18.41.16.56.08.55-.18z"/><path d="m124.96 88.8201c-.01-.05-.07-.08-.12-.07-.03 0-.06.03-.07.07.01.11.1.06.18 0z"/><path d="m124.77 87.2501c-.07-.03-.05-.18-.18-.18s-.05.27-.18.36c-.23.17-.73-.16-.56.18.18.11.6.44.74.28-.11 0-.06-.14 0 0 .2.02.3-.08.28-.28-.11 0-.06-.13 0 0h.28c.11-.42-.08-.24-.38-.36zm-.09.18s.07-.12.09-.09-.06.12-.09.1z"/><path d="m122.92 88.7301c-.02.08.04.09.09.09.02-.08-.04-.08-.09-.09z"/><path d="m121.9 82.1501c.05-.2-.07-.41-.27-.46-.16-.03-.56.31-.56.28-.06.24.35.16.28.56h.09c.26-.34.41-.13.47-.37h-.01z"/><path d="m108.46 87.8001s.14-.05.09-.09-.14.05-.09.09z"/><path d="m108.92 87.6201h-.18v.18h.18z"/><path d="m48.47 100.77h-2.99v3.67h2.99c.47 0 .68-.05.86-.24s.31-.36.31-1.57-.11-1.42-.31-1.63-.39-.23-.86-.23z"/><path d="m122.92 83.0701c.03.07.18.06.18.09s-.28.32.09.28c.08-.11.07-.69-.28-.65.03.08-.03.2 0 .28z"/><path d="m49.17 97.13c.18-.21.31-.58.31-1.49s-.1-1.23-.29-1.42c-.13-.13-.31-.21-.81-.21h-2.91v3.3h2.91c.45 0 .63-.03.79-.18z"/><path d="m125.14 88.4501s-.14.05-.09.09.14-.04.09-.09z"/><path d="m124.59 86.8701c.29.08.29-.15.46-.18.18.18.02.25-.09.36.4.28.39-.23.28-.56h-.36c0 .05-.08.1-.09 0h.09c-.03-.15.09-.16.09-.28-.31-.17-.56.27-.38.65z"/><path d="m123.2 87.62c.07-.02.18 0 .18-.09-.07.02-.18 0-.18.09z"/><path d="m123.75 86.8701c.05.13-.11.48.09.46.13-.38.24-.02.46 0 .05-.53-.36-.38-.56-.46z"/><path d="m125.42 88.0801c0 .12-.12.13-.09.28.23.14.27-.31.09-.28z"/><path d="m124.59 88.54s-.14.05-.09.09.14-.05.09-.09z"/></g><path d="m62.75 111.71 2.9 16h.33l1.98-12.62h-2.57v-5.72h12.18v5.72h-2.28l-3.85 17.65c-.4 1.83-1.25 2.42-3.01 2.42h-5.5c-1.76 0-2.64-.59-2.97-2.42l-2.24-12.23h-.33l-2.2 12.22c-.33 1.83-1.21 2.42-2.97 2.42h-5.54c-1.76 0-2.61-.59-3.01-2.42l-3.85-17.65h-2.28v-5.72h12.73v5.72h-2.56l1.98 12.62h.36l2.9-16c.33-1.83 1.21-2.42 2.97-2.42h3.85c1.76 0 2.64.59 2.97 2.42z" fill="#fff"/><path d="m76.11 135.04v-5.72h2.16l5.98-17.65c.62-1.8 1.32-2.42 3.08-2.42h5.21c1.76 0 2.46.62 3.08 2.42l5.98 17.65h2.16v5.72h-12.59v-5.61h2.35l-.62-2.2h-6.53l-.59 2.2h2.35v5.61h-12.03zm11.67-13.17h3.74l-1.65-5.94h-.4z" fill="#fff"/><path d="m107.52 115.08h-2.72v-5.72h13.14v5.72h-2.9v14.31h5.61v-4.33h6.42v9.98h-22.27v-5.72h2.72v-14.23z" fill="#fff"/><path d="m128.62 115.08v-5.72h22.86v9.36h-6.42v-3.71h-6.2v4.37h5.33v5.28h-5.33v4.73h6.31v-4.19h6.42v9.83h-22.97v-5.71h2.72v-14.23h-2.72z" fill="#fff"/><path d="m174.33 133.79c-.77.77-1.98 1.25-4.04 1.25h-10.28c-2.31 0-3.64-.29-4.55-1.21-1.06-1.06-1.47-2.94-1.47-7.45h7.05c.07 1.91.18 2.46.36 2.64.22.22.66.29 1.73.29h3.52c1.06 0 1.61-.07 1.8-.26.22-.22.29-.7.29-1.61 0-.73-.07-1.17-.29-1.39-.18-.18-.81-.33-1.83-.44l-7.37-.88c-1.61-.18-2.68-.59-3.49-1.39-.99-.99-1.47-2.68-1.47-6.24 0-3.27.62-5.32 1.8-6.49.77-.77 2.02-1.25 3.96-1.25h9.61c2.38 0 3.74.36 4.55 1.17 1.1 1.09 1.51 2.72 1.54 7.15h-7.04c-.07-1.61-.15-2.09-.36-2.31s-.59-.29-1.54-.29h-3.46c-.88 0-1.28.04-1.43.18-.18.18-.26.62-.26 1.46s.07 1.18.29 1.4c.18.18.59.26 1.83.4l7.37.88c1.76.22 2.68.62 3.45 1.39.99.99 1.5 2.75 1.5 6.2s-.62 5.63-1.79 6.8z" fill="#fff"/><path d="m55.25 103.49c0 1.81-.5 3.01-1.34 3.85-.76.76-1.73 1.05-3.22 1.05h-12.53v-4.09h1.94v-10.1699h-1.94v-4.09h12.56c1.63 0 2.46.29 3.17 1 .84.86 1.18 2.12 1.18 3.54 0 2.78-1 3.9-2.88 4.43v.05c2.01.5 3.06 1.4399 3.06 4.4299zm-6.86-6.1799c.45 0 .63-.03.79-.18.18-.21.31-.58.31-1.49s-.1-1.23-.29-1.42c-.13-.13-.31-.21-.81-.21h-2.91v3.3zm-2.91 7.1299h2.99c.47 0 .68-.05.86-.24s.31-.36.31-1.57-.11-1.42-.31-1.63-.39-.23-.86-.23h-2.99zm20.56-.14v4.1h-9.41v-4.09h2.02v-10.1699h-2.02v-4.09h9.41v4.09h-2.01v10.1699h2.01zm9.62-3.27h-1.17v3.33h1.62v4.04h-8.93v-4.09h1.94v-10.1699h-1.94v-4.09h8.93v4.04h-1.62v3.09h1.2l3.09-3.09h-1.55v-4.04h8.94v4.09h-1.49l-4.64 4.51 4.85 5.6599h1.44v4.09h-9.25v-4.04h1.44zm11.51-6.8899v-4.08h16.34v6.68h-4.59v-2.65h-4.42v3.12h3.8v3.7699h-3.8v3.38h4.51v-2.99h4.59v7.03h-16.41v-4.09h1.94v-10.1699zm31.55 6.2599c-.55.55-1.28.68-2.49.68h-5.52v4.82h2.65v2.5h-7.92v-2.49h2.46v-13.3699h-2.46v-2.49h10.8c1.21 0 1.94.13 2.49.68.71.71 1.15 1.63 1.15 4.77 0 3.3-.45 4.19-1.15 4.8999zm-3.33-1.8099c.76 0 1.02-.08 1.15-.21.24-.23.34-.6.34-2.8s-.1-2.6-.34-2.83c-.13-.13-.39-.21-1.15-.21h-4.68v6.05zm4.19 9.7999v-2.49h1.99l4.74-15.0399c.23-.73.47-.89 1.26-.89h2.2c.79 0 1.02.16 1.26.89l4.74 15.0399h1.99v2.49h-7.58v-2.49h2.52l-.97-3.28c-1.6 0-4.69.03-6.37.03l-.97 3.25h2.52v2.49zm6.45-8.12h5l-2.28-7.7299h-.4zm27.74 5.58h2.1v2.55h-2.65c-1.09 0-1.49-.18-1.81-.5-.39-.39-.6-1.09-.71-4.72-.05-1.47-.24-1.94-.58-2.28-.42-.42-.87-.5-1.78-.5h-3.88v5.5h2.52v2.49h-7.78v-2.49h2.46v-13.3699h-2.46v-2.49h11.14c1.2 0 2.02.21 2.57.76.71.71 1 1.6 1 4.35 0 3.22-.76 3.88-2.86 4.17v.05c1.94.36 2.49 1.0999 2.59 3.7699.03.81.08 1.89.13 2.7zm-4.35-7.8099c.76 0 1.02-.08 1.15-.21.24-.23.34-.63.34-2.52s-.11-2.33-.34-2.57c-.13-.13-.39-.21-1.15-.21h-4.95v5.5h4.95zm15.8 2.0199h-2.55v5.84h2.46v2.5h-7.73v-2.49h2.46v-13.3699h-2.46v-2.49h7.73v2.49h-2.46v5.16h2.67l4.37-5.22h-2.2v-2.44h7.26v2.49h-2.03l-5.35 6.11 5.5 7.2599h2.15v2.49h-7.64v-2.44h2.2l-4.4-5.9h.02z" fill="#fff"/></g></svg>