<svg fill="none" height="212" viewBox="0 0 212 212" width="212" xmlns="http://www.w3.org/2000/svg" xmlns:xlink="http://www.w3.org/1999/xlink"><clipPath id="a"><path d="m0 0h212v212h-212z"/></clipPath><g clip-path="url(#a)"><path d="m206 0h-200c-3.31371 0-6 2.68629-6 6v200c0 3.314 2.68629 6 6 6h200c3.314 0 6-2.686 6-6v-200c0-3.31371-2.686-6-6-6z" fill="#f5f5f5"/><g clip-rule="evenodd" fill="#000" fill-rule="evenodd"><path d="m159.39 108.37c0 34.58-21.28 48.3-52.52 48.24l-1.38.02c-32.65.02-52.83-15.07-52.83-48.27v-4.63c0-37.5999 21.7-49.7199 52.83-49.6999h1.38c31.05-.03 52.52 12.83 52.52 49.6899v4.64zm-7.78-4.47c0-34.6999-18.34-44.6799-44.85-44.6699h-1.18c-27.9-.03-45.14 10.08-45.14 44.6699v4.17c0 30.64 15.67 43.43 45.13 43.4h1.18c27.45.02 44.86-11 44.86-43.41z"/><path d="m134.04 95.5002c8.22-1.13 10.21-4.41 10.21-9.35 0-6.44-6.55-9.23-18.09-9.23h-16.37v2.01c2.15.32 2.88 1.26 2.88 3.52v27.5098c0 2.41-.74 3.37-2.88 3.7v2.04h16.08v6.22c0 9.41-3.7 13.98-12.19 13.98-9.32 0-13.06-5.47-13.06-17.3v-.53c3.78-2.31 6.64-5.86 8.27-10.62l-2.53-1.17c-2.25 6.2-9.2 10.46-14.64 10.48-8.79.06-13.62-6.48-13.62-19.4598 0-12.98 4.43-19.96 12.13-19.96 6.2 0 11.04 3.07 14.46 12.32h1.66v-16.24h-1.59l-2.75 3.8c-.78.84-.9.92-2.65-.47-3.49-2.78-7.25-4.28-11.66-4.26-12.58 0-22.09 10.27-22.09 24.34 0 14.0698 9.83 24.6098 22.65 24.4698.57 0 1.14-.03 1.69-.07.14 5.21.76 9.26 3.31 12.67 3.27 4.4 9.26 6.96 17.32 6.96 7.35 0 12.93-2.64 15.89-7.13 2.64-4 2.71-8.41 2.71-13.69v-7.42-12.42h-3.29v12.66c-4.3 0-4.57-.71-4.57-3.31v-11.9098h4.07c6.75 0 10.1 2.5198 10.1 7.6998 0 3.42-1.3 5.6-4.07 6.69v3.61c9.35-.43 14.66-3.55 14.66-9.67 0-5.65-2.62-9.3598-12.01-10.4798h-.03zm-8.57-.67h-4.19v-11.77c0-2.85.67-3.45 4.13-3.45 6.59 0 8.88 1.69 8.88 7.43 0 6.03-2.58 7.79-8.83 7.79z"/><path d="m87.0199 100.87c2.12.33 2.87 1.28 2.87 3.69v9.64c.6.08 1.2.11 1.81.1 2.82-.02 6.28-1.47 8.9101-3.89v-5.85c0-2.41.75-3.37 2.87-3.69v-2.0499h-16.4701v2.0499z"/></g></g></svg>