<svg fill="none" height="212" viewBox="0 0 212 212" width="212" xmlns="http://www.w3.org/2000/svg" xmlns:xlink="http://www.w3.org/1999/xlink"><clipPath id="a"><path d="m0 0h212v212h-212z"/></clipPath><g clip-path="url(#a)"><path d="m206 0h-200c-3.31371 0-6 2.68629-6 6v200c0 3.314 2.68629 6 6 6h200c3.314 0 6-2.686 6-6v-200c0-3.31371-2.686-6-6-6z" fill="#f5f5f5"/><path clip-rule="evenodd" d="m81.55 124.02c-2.67-.52-5.38-.76-8.1-.72-2.55-.13-5.13.06-9.78 1.06s-11.39 2.83-15.86 3.88c-4.46 1.04-6.67 1.3-8.87 1.35-1.04 0-2.07-.08-3.09-.25-.84-.14-1.67-.37-2.46-.68-.65-.25-1.27-.58-1.85-.97-.49-.34-.95-.74-1.35-1.19-.38-.42-.7-.88-.97-1.38s-.49-1.04-.64-1.59c-.17-.61-.27-1.23-.31-1.86-.05-.7-.04-1.41.02-2.11.13-1.24.41-2.47.82-3.65.65-1.91 1.43-3.77 2.34-5.57 1.31-2.58 2.77-5.09 4.36-7.51 1.7-2.56 3.53-5.03 5.5-7.39 1.57-1.89 3.25-3.67 5.04-5.35 1.24-1.16 2.55-2.24 3.94-3.21.92-.64 1.88-1.21 2.89-1.69.7-.34 1.44-.6 2.2-.79.59-.15 1.19-.23 1.79-.23.37.01.66.03.96.26.28.29.3.52.32.94 0 .23 0 .46-.02.68-.91.42-1.76.95-2.54 1.59-.28.23-.54.47-.79.74-.52.56-.84 1.09-.9 1.64-.1.41.37 1.14.71 1.33 1.04.77 2.33.26 3.62-1.13.27-.3.52-.62.73-.96.23-.36.43-.74.6-1.13.64-1.56 1-3.16.06-4.53-.23-.32-.51-.6-.84-.81-.37-.24-.78-.42-1.21-.53-.58-.15-1.18-.21-1.78-.18-1.02.03-2.03.15-3.02.37-1.37.31-2.71.74-4 1.3-1.72.74-3.38 1.62-4.96 2.63-2.07 1.32-4.05 2.78-5.92 4.37-2.19 1.88-4.25 3.89-6.18 6.03-4.01 4.45-7.16 9.22-8.95 12.96-.81 1.63-1.48 3.33-2.02 5.07-.41 1.33-.69 2.71-.82 4.1-.18 1.62-.11 3.26.18 4.87.13.64.33 1.27.57 1.88.23.56.51 1.1.85 1.6s.73.97 1.16 1.39c.48.45 1.01.86 1.58 1.2.68.41 1.4.74 2.14 1 .98.35 1.99.59 3.03.74 1.36.2 2.73.3 4.11.29 2.28.07 4.58-.1 8.44-.9s9.3-2.23 13.18-3.02 6.2-.97 8.49-.89c1.36-.02 2.71.08 4.05.28.98.14 1.93.4 2.84.78.85.34 1.65.8 2.37 1.37.9.71 1.74 1.51 2.48 2.38 2.54-1.62 5.13-2.58 7.1-2.88.9-.17 1.82-.26 2.74-.26.39 0 .78.04 1.17.1.43.05.93.14 2.33.57s3.71 1.23 5.99 2.05c-2.12-1.9-4.44-3.58-6.91-5-2.05-1.17-4.28-1.99-6.59-2.44zm29.1-29.18h-5.28l-2.67 4.6001h5.08zm76.82-8.01c-1.99 1.16-4.13 2.02-6.37 2.57-2.37.56-4.81.84-7.25.81l-4.55 5.23c.38.06.75.1 1.06.12.72.07 1.45.1 2.17.09 1.7 0 3.38-.22 5.03-.64 3.49-.86 7.42-2.78 10.46-5.24 1.43-1.13 2.73-2.42 3.88-3.83.97-1.19 1.79-2.5 2.43-3.9-2.14 1.79-4.43 3.4-6.84 4.8h-.02zm-6.01 32.91c-.94 1.21-1.91 2.4-2.7 3.29-.59.68-1.21 1.33-1.87 1.94-.36.34-.75.66-1.15.96-.23.17-.48.33-.74.46-.41.21-.69.3-1.08.23s-.37-.41-.35-.61c.06-.15-.07.06.47-.92.41-.72 1.18-2.1 1.97-3.47l9.09-14.65h-4.47l-1.54 1.25c-.5-.33-1.02-.62-1.56-.87-.3-.15-.63-.25-.96-.31-.28-.05-.56-.07-.85-.07-1.54 0-3.01.48-4.63 1.39-.55.32-1.08.66-1.59 1.04-.58.43-1.23.97-2.01 1.66s-1.71 1.55-3.34 3.49-3.97 4.94-5.62 7-2.59 3.18-3.27 3.87c-.39.44-.83.84-1.31 1.18-.21.15-.45.27-.69.37-.23.09-.48.13-.72.09-.41-.02-.91-.6-.97-1.01-.16-.76-.07-1.09.22-2.26.17-.68.46-1.69.91-2.98s1.03-2.86 1.66-4.42c3.25-1.97 6.39-4.11 9.4-6.43 2.25-1.73 4.33-3.67 6.22-5.79 1.97-2.23 3.8-4.57 5.48-7.03l-2.05.21c-1.38 1.86-2.87 3.64-4.47 5.32-1.82 1.92-3.76 3.74-5.79 5.45-2.19 1.84-4.48 3.55-6.87 5.13 1.52-2.72 3.15-5.41 4.85-8.04s3.49-5.17 5.25-7.52 3.52-4.49 5.09-6.26 2.98-3.18 4.11-4.23c.85-.8 1.76-1.53 2.71-2.2.49-.34 1.01-.63 1.55-.86.28-.12.58-.19.89-.21.13 0 .25.04.36.12.48.41.4.63.31 1.07-.05.26-.14.52-.26.76-.21.5-.6 1.37-1 2.24l1.85-.2099c.34-.51.66-1.0401.85-1.4001.15-.25.26-.51.33-.79.06-.24.1-.4899.12-.7399.07-.8601-.1-1.6901-.92-2.3801-.23-.18-.48-.32-.76-.41-.95-.28-1.81-.12-2.9.16-.93.26-1.83.62-2.69 1.08-1.31.69-2.56 1.49-3.73 2.4-1.82 1.38-3.54 2.89-5.15 4.51-2.27 2.26-4.4 4.6401-6.4 7.1401-2.38 2.9799-4.62 6.0699-6.7 9.2699-2.11 3.25-4.05 6.6-5.81 10.05h-2.44c.48-.96.94-1.94 1.23-2.64.21-.51.38-1.03.51-1.57.28-1.17.34-2.49-.13-3.53-.13-.3-.31-.58-.53-.83-.81-.87-1.51-1.05-2.49-1.07-.48.02-.95.09-1.41.21-.64.15-1.27.36-1.86.65-.84.38-1.64.83-2.4 1.35-1.04.71-2.03 1.48-2.96 2.33-1.15 1.04-2.22 2.15-3.23 3.33-2.16 2.53-3.89 5.28-4.86 7.37-.43.92-.8 1.86-1.09 2.83-.21.71-.36 1.43-.44 2.16-.06.54-.04 1.08.04 1.61.06.44.2.87.41 1.27.19.37.45.7.77.97s.68.48 1.08.62c.43.15.87.22 1.32.22.95 0 1.89-.22 3.06-.77.71-.35 1.39-.77 2.03-1.23.91-.67 1.78-1.41 2.59-2.2 1.2-1.18 2.33-2.43 3.38-3.75 1.27-1.59 2.71-3.59 4.04-5.63h2.44c-.81 2-1.57 4.02-2.01 5.3-.28.76-.5 1.55-.65 2.35-.18.99-.31 1.94-.22 2.78.04.36.13.71.25 1.05.12.31.27.6.47.86s.44.48.7.67c.28.19.59.34.92.44.37.1.74.16 1.12.16 1.35 0 2.64-.45 4.25-1.5.74-.5 1.45-1.05 2.11-1.64.82-.74 1.79-1.7 2.7-2.71-.06.59-.08 1.19-.07 1.78 0 .43.04.85.11 1.27.05.29.12.57.22.85.07.21.17.4.28.59.17.29.41.55.69.74.46.3 1.01.45 1.57.41.32 0 .64-.04.96-.09.78-.15 1.52-.44 2.2-.85.55-.32 1.07-.7 1.56-1.11.65-.54 1.5-1.32 2.3-2.14-.05.58-.08 1.15-.07 1.59 0 .32.04.65.1.97.03.21.09.41.17.6.19.51.6.9 1.1 1.09 1.35.34 2.46.05 3.97-.63.7-.35 1.36-.75 1.99-1.22.87-.65 1.69-1.37 2.45-2.15 1.08-1.1 2.08-2.27 3-3.5 1.18-1.58 2.28-3.22 3.29-4.92l-1.24.22zm-40.15 1.37c-.63.86-1.3 1.69-2.01 2.48-.57.65-1.19 1.27-1.83 1.85-.43.39-.89.75-1.37 1.07-.28.18-.57.34-.87.46-.17.08-.36.12-.55.12-.57 0-1.11-.29-1.44-.76-.14-.18-.25-.39-.33-.6-.2-.54-.26-1.12-.18-1.69.05-.49.14-.97.27-1.44.16-.58.36-1.14.62-1.68.91-2.02 2.6-4.16 4.83-5.97.23.51.55.98.94 1.38.23.23.48.45.74.63.37.26.76.48 1.17.65.62.26 1.26.49 1.9.68-.59.97-1.23 1.92-1.9 2.81zm4.28-8.92c-.03.3-.08.6-.14.9-.09.42-.24.83-.43 1.21-.28.62-.76 1.57-1.28 2.51-.51-.16-1-.35-1.49-.57-.29-.13-.57-.29-.82-.49-.17-.13-.33-.27-.47-.44-.24-.25-.42-.55-.54-.88-.46-1.58-.21-3.2 1.73-4.47.5-.31 1.08-.47 1.67-.47.53 0 .93.03 1.35.39.41.44.43.82.46 1.42 0 .25 0 .58-.04.9zm24.05 10.06c-.58.85-1.21 1.67-1.89 2.45-.41.49-.86.95-1.35 1.36-.29.25-.62.46-.97.62-.62.25-1.27.29-1.69-.07-.35-.41-.31-.72-.27-1.31.04-.34.1-.68.18-1.01.12-.46.26-.92.43-1.36.23-.6.49-1.18.79-1.74.35-.66.79-1.41 1.34-2.26s1.23-1.76 2.01-2.72 1.67-1.94 2.52-2.8c.75-.76 1.54-1.48 2.37-2.16.52-.44 1.08-.83 1.66-1.18.3-.18.63-.34.96-.46.19-.07.38-.11.58-.12.26-.02.53.02.77.14.35.3.16.65.04 1.06-.11.32-.24.62-.39.92-.22.42-.47.83-.73 1.23l-6.37 9.42h.01zm-40.34-8.23c.27-1 .46-2.03.56-3.07.08-.69.02-1.39-.18-2.05-.09-.24-.2-.46-.35-.67-.28-.4-.68-.72-1.13-.9-.28-.12-.58-.21-.88-.25-.39-.07-.79-.1-1.19-.1-.5 0-1 .05-1.49.13-2.07.37-4.24 1.43-6.51 3.8-.62.67-1.2 1.37-1.73 2.12-.61.87-1.16 1.77-1.64 2.71-.54 1.04-1.01 2.11-1.41 3.21-.42 1.15-.76 2.33-1.03 3.52 1.17-.92 2.37-1.82 3.22-2.41.66-.47 1.36-.89 2.08-1.26.7-.36 1.58-.76 2.46-1.15.3-1.31.76-2.59 1.36-3.8.24-.48.5-.94.8-1.39.24-.36.5-.7.79-1.01.55-.67 1.26-1.19 2.05-1.52.98-.31 1.76-.44 2.57.29.29.33.45.75.47 1.19 0 1.59-.38 3.02-1 4.66-.31.79-.66 1.56-1.07 2.3-.49.86-1.03 1.68-1.63 2.46-1.45 1.9-3.15 3.59-5.05 5.03-1.88 1.42-3.83 2.43-5.17 2.83-.52.17-1.07.26-1.61.28-.45 0-.89-.06-1.32-.18-.92-.29-1.74-.83-2.37-1.57-.33-.39-.6-.82-.82-1.29-.4-.88-.57-1.85-.47-2.82.14-1.08.41-2.14 1.14-3.96 1.03-2.5 2.19-4.95 3.49-7.32 1.59-2.89 3.58-6.11 5.5-8.91 1.69-2.46 3.51-4.83 5.45-7.11 1.4-1.65 2.9-3.23 4.48-4.71 1.13-1.06 2.32-2.05 3.57-2.97.91-.66 1.87-1.26 2.86-1.79.75-.4 1.53-.75 2.32-1.05 1.87-.7 3.57-.74 5.48-.72-1.46.79-2.85 1.68-4.18 2.67-2.16 1.57-4.08 3.45-5.68 5.59-.55.76-1.05 1.56-1.47 2.4001-.34.67-.61 1.3799-.82 2.0999-.17.58-.29 1.17-.36 1.76-.05.38-.05.7601 0 1.14.04.28.11.56.23.82.11.22.24.43.41.62s.37.34.6.47c.26.14.53.24.82.31.35.08.7.12 1.05.12.88-.03 1.74-.24 2.53-.62.57-.26 1.12-.58 1.64-.94.68-.46 1.32-.98 1.91-1.54.71-.68 1.38-1.4 1.99-2.16.65-.81 1.25-1.66 1.79-2.55.93-1.51 1.64-3.1399 2.12-4.8499.18-.66.3-1.32.36-2 0-.16.02-.3201.02-.6401s-.02-.79-.02-1.13c0-.25 0-.49.03-.74 1.65-.03 3.3.16 4.9.56 1.55.39 2.98 1 5.06 2.23 2.57 1.57 5.04 3.3 7.39 5.17l4.92-4.82c-1.54-1.25-3.15-2.4-4.83-3.45-1.24-.78-2.55-1.45-3.9-2.01-1-.4-2.03-.72-3.08-.94-1.36-.29-2.76-.35-4.14-.19-.74.08-1.48.23-2.2.43-1.1.3-2.74.81-4.37 1.37-.79-.5-1.61-.94-2.46-1.32-.48-.22-1-.38-1.52-.46-1.63-.25-3.12-.07-5.13.47-1.81.53-3.57 1.22-5.25 2.08-2.38 1.21-4.67 2.6-6.85 4.15-2.54 1.82-4.96 3.8-7.23 5.94-2.2 2.07-4.26 4.27-6.16 6.61-1.63 1.99-3.13 4.09-4.47 6.29-1.1 1.78-2.06 3.64-2.89 5.56-.68 1.58-1.24 3.21-1.68 4.87-.35 1.33-.6 2.68-.74 4.04-.11.94-.1 1.88.03 2.82.11.81.34 1.6.66 2.36.67 1.53 1.78 2.83 3.19 3.73.75.46 1.55.82 2.4 1.06 1.78.51 3.68.49 5.45-.05 1.2-.35 2.36-.82 3.46-1.4 2.58-1.32 5.48-3.54 7.72-5.94 2.04-2.14 3.72-4.59 4.99-7.25.49-1.06.89-2.16 1.21-3.28h-.05zm13.43-27.98c-.11.97-.31 1.94-.59 2.88-.34 1.17-.75 2.32-1.23 3.44-.46 1.06-.98 2.09-1.56 3.08-.45.75-.94 1.48-1.48 2.16-1.18 1.47-2.18 2.27-3.24 2.74-1.11.45-2.12.51-3.01-.03-.28-.2-.49-.48-.59-.8-.18-1.0399.14-1.93.6-3.06.23-.51.5-1.01.81-1.48.41-.65.87-1.27 1.36-1.86.68-.81 1.42-1.57 2.2-2.28 1-.92 2.05-1.78 3.15-2.56 1.14-.82 2.34-1.55 3.58-2.2zm-48.52 25.51c-.51.6-1.06 1.17-1.64 1.69-.22.2-.45.38-.7.54-.32.22-.72.32-1.11.27-.3-.02-.53-.28-.51-.58-.02-.21.03-.43.14-.62.11-.23.29-.64.82-1.61s1.38-2.54 2.26-4.08l7.65-12.35h-4.89l-.91 1.05c-.58-.34-1.18-.63-1.81-.89-.35-.15-.73-.25-1.11-.3-.34-.05-.68-.08-1.03-.07-1.15.01-2.29.33-3.68 1.1-.65.38-1.27.79-1.87 1.24-.76.55-1.67 1.27-3.38 3.09s-4.22 4.74-6.3 7.11-3.73 4.2-4.89 5.39c-.75.78-1.58 1.48-2.46 2.09-.45.32-.92.6-1.41.84-.34.17-.69.3-1.06.38-.83.19-1.7.17-2.32-.24-.29-.22-.49-.53-.55-.89-.17-.88 0-1.58.2-2.44.15-.59.34-1.17.57-1.73.31-.78.67-1.53 1.08-2.26.54-.98 1.14-1.94 1.79-2.85 1.52-2.15 3.26-4.14 5.19-5.93.63-.58 1.3-1.12 2-1.6.36-.25.75-.46 1.16-.63.21-.09.44-.14.67-.15.26-.01.51.06.72.21.29.25.32.41.36.8 0 .22 0 .4501-.02.6701-.44.06-.87.1599-1.29.2799-.29.09-.57.2001-.84.3301-.19.1-.38.2099-.56.3299-1.08.79-1.28 1.78-1.25 2.43.09.35.29.66.57.88.85.72 1.98.25 3.13-1.03.22-.25.43-.52.62-.8.56-.78.96-1.66 1.21-2.59.29-1.23.25-2.67-1.28-3.74-.54-.35-1.17-.52-1.81-.5-.47 0-.94.05-1.4.15-.54.12-1.08.28-1.6.48-.58.23-1.23.52-2.45 1.44s-3.01 2.4801-4.42 3.62c-1.06.87-2.17 1.66-3.34 2.36-.75.45-1.54.83-2.36 1.14-.69.27-1.4.48-2.13.64.42-.88.81-1.78 1.1-2.55.24-.63.45-1.27.63-1.92.11-.39.19-.79.23-1.19.07-.67-.02-1.35-.25-1.99-.1-.26-.23-.5-.39-.72-.3-.41-.71-.73-1.18-.93-1.14-.47-2.13-.39-3.35-.11-.73.19-1.45.45-2.14.77-.95.45-1.86.97-2.73 1.57-1.12.77-2.18 1.61-3.17 2.53-1.11 1.03-2.16 2.12-3.14 3.29-1.72 2.03-3.15 4.29-4.27 6.7-.4.87-.72 1.78-.98 2.7-.19.71-.34 1.44-.42 2.17-.05.49-.05.99 0 1.48.04.37.12.74.25 1.09.11.32.27.62.48.89.2.26.44.49.71.68.3.2.63.35.97.45.41.11.83.17 1.25.17.51 0 1.02-.07 1.52-.18.58-.13 1.15-.32 1.7-.57.68-.31 1.34-.68 1.96-1.11.87-.6 1.69-1.26 2.46-1.98 1.19-1.12 2.31-2.32 3.34-3.59 1.33-1.62 2.94-3.77 4.45-5.97l3.74-.84c-1.1 1.9-2.13 3.84-2.73 5.08s-.76 1.77-.89 2.35c-.41 1.8-.53 3.64.34 5.07.27.44.61.83 1.02 1.14.44.34.94.59 1.47.75.61.18 1.24.27 1.87.26 1.69-.01 3.19-.37 5.2-1.58.89-.55 1.74-1.16 2.52-1.85 1.06-.9 2.4-2.15 3.69-3.49-.12 1.15-.18 2.31-.19 3.06-.02.46.02.91.11 1.36.05.23.11.45.19.67.07.16.15.31.24.46.26.38.64.66 1.08.79 1.36.34 2.45.16 3.84-.44.62-.28 1.21-.62 1.76-1.01.85-.6 1.67-1.25 2.45-1.94-.04.43-.07.86-.06 1.29 0 .25.03.49.08.73.04.27.15.53.32.75.48.56.99.65 1.64.74.31.03.62.05.93.05 1.3-.01 2.62-.43 4.2-1.41.96-.61 1.86-1.32 2.68-2.11 1.13-1.08 2.17-2.25 3.11-3.49 1.2-1.57 2.31-3.22 3.31-4.93l-1-.21c-1.38 1.7-2.8 3.36-3.7 4.39h-.01zm-43.19-.21c-1.01 1.29-1.45 1.69-1.8 2.01-.28.25-.58.49-.89.7-.22.15-.45.27-.69.38-.99.41-2.11.47-2.8-.54-.23-.42-.31-.9-.23-1.37.05-.43.16-.86.31-1.27.26-.73.58-1.43.95-2.11.59-1.08 1.25-2.12 1.98-3.11.93-1.28 1.93-2.51 2.98-3.69.43.58.91 1.13 1.41 1.64.35.36.75.67 1.2.91.57.3 1.15.57 1.76.79-1.54 2.2-3.15 4.37-4.17 5.65h-.01zm6.74-11.46c-.03.32-.08.63-.15.94-.1.39-.23.77-.41 1.13-.24.54-.63 1.31-1.05 2.09-.5-.16-.98-.35-1.46-.57-.32-.15-.62-.33-.91-.53-.2-.14-.39-.3-.55-.48-.13-.13-.25-.28-.36-.43-.71-1.21-.65-2.45.69-3.7.21-.19.43-.35.66-.5.24-.16.49-.29.76-.39.79-.28 1.53-.56 2.22-.02.75.87.61 1.63.57 2.47zm27.86 10.42c-.45.65-.91 1.27-1.32 1.77-.33.41-.68.8-1.05 1.17-.24.24-.49.47-.76.68-.29.23-.63.41-.98.52-.5.14-1.04 0-1.4-.38-.4-.48-.44-.77-.4-1.31.04-.32.11-.64.21-.94.16-.51.35-1.02.58-1.5.37-.79.79-1.56 1.25-2.31.58-.93 1.34-2.05 2.26-3.24s1.95-2.42 2.9-3.45c.79-.86 1.62-1.6699 2.5-2.4399.49-.4401 1.01-.8401 1.56-1.1901.27-.18.55-.33.85-.44.35-.15.74-.15 1.09 0 .59.37.33 1.04.28 1.39-.09.25-.21.49-.36.71-.27.44-.78 1.21-1.28 1.98l-5.92 8.99z" fill="#010101" fill-rule="evenodd"/></g></svg>