<svg width="212" height="212" viewBox="0 0 212 212" fill="none" xmlns="http://www.w3.org/2000/svg">
<g clip-path="url(#clip0_142_2174)">
<path d="M206 0H6C2.68629 0 0 2.68629 0 6V206C0 209.314 2.68629 212 6 212H206C209.314 212 212 209.314 212 206V6C212 2.68629 209.314 0 206 0Z" fill="#F5F5F5"/>
<path fill-rule="evenodd" clip-rule="evenodd" d="M81.55 124.02C78.88 123.5 76.17 123.26 73.45 123.3C70.9 123.17 68.32 123.36 63.67 124.36C59.02 125.36 52.28 127.19 47.81 128.24C43.35 129.28 41.14 129.54 38.94 129.59C37.9 129.59 36.87 129.51 35.85 129.34C35.01 129.2 34.18 128.97 33.39 128.66C32.74 128.41 32.12 128.08 31.54 127.69C31.05 127.35 30.59 126.95 30.19 126.5C29.81 126.08 29.49 125.62 29.22 125.12C28.95 124.62 28.73 124.08 28.58 123.53C28.41 122.92 28.31 122.3 28.27 121.67C28.22 120.97 28.23 120.26 28.29 119.56C28.42 118.32 28.7 117.09 29.11 115.91C29.76 114 30.54 112.14 31.45 110.34C32.76 107.76 34.22 105.25 35.81 102.83C37.51 100.27 39.34 97.8 41.31 95.44C42.88 93.55 44.56 91.77 46.35 90.09C47.59 88.93 48.9 87.85 50.29 86.88C51.21 86.24 52.17 85.67 53.18 85.19C53.88 84.85 54.62 84.59 55.38 84.4C55.97 84.25 56.57 84.17 57.17 84.17C57.54 84.18 57.83 84.2 58.13 84.43C58.41 84.72 58.43 84.95 58.45 85.37C58.45 85.6 58.45 85.83 58.43 86.05C57.52 86.47 56.67 87 55.89 87.64C55.61 87.87 55.35 88.11 55.1 88.38C54.58 88.94 54.26 89.47 54.2 90.02C54.1 90.43 54.57 91.16 54.91 91.35C55.95 92.12 57.24 91.61 58.53 90.22C58.8 89.92 59.05 89.6 59.26 89.26C59.49 88.9 59.69 88.52 59.86 88.13C60.5 86.57 60.86 84.97 59.92 83.6C59.69 83.28 59.41 83 59.08 82.79C58.71 82.55 58.3 82.37 57.87 82.26C57.29 82.11 56.69 82.05 56.09 82.08C55.07 82.11 54.06 82.23 53.07 82.45C51.7 82.76 50.36 83.19 49.07 83.75C47.35 84.49 45.69 85.37 44.11 86.38C42.04 87.7 40.06 89.16 38.19 90.75C36 92.63 33.94 94.64 32.01 96.78C28 101.23 24.85 106 23.06 109.74C22.25 111.37 21.58 113.07 21.04 114.81C20.63 116.14 20.35 117.52 20.22 118.91C20.04 120.53 20.11 122.17 20.4 123.78C20.53 124.42 20.73 125.05 20.97 125.66C21.2 126.22 21.48 126.76 21.82 127.26C22.16 127.76 22.55 128.23 22.98 128.65C23.46 129.1 23.99 129.51 24.56 129.85C25.24 130.26 25.96 130.59 26.7 130.85C27.68 131.2 28.69 131.44 29.73 131.59C31.09 131.79 32.46 131.89 33.84 131.88C36.12 131.95 38.42 131.78 42.28 130.98C46.14 130.18 51.58 128.75 55.46 127.96C59.34 127.17 61.66 126.99 63.95 127.07C65.31 127.05 66.66 127.15 68 127.35C68.98 127.49 69.93 127.75 70.84 128.13C71.69 128.47 72.49 128.93 73.21 129.5C74.11 130.21 74.95 131.01 75.69 131.88C78.23 130.26 80.82 129.3 82.79 129C83.69 128.83 84.61 128.74 85.53 128.74C85.92 128.74 86.31 128.78 86.7 128.84C87.13 128.89 87.63 128.98 89.03 129.41C90.43 129.84 92.74 130.64 95.02 131.46C92.9 129.56 90.58 127.88 88.11 126.46C86.06 125.29 83.83 124.47 81.52 124.02H81.55ZM110.65 94.84H105.37L102.7 99.4401H107.78L110.65 94.84ZM187.47 86.83C185.48 87.99 183.34 88.85 181.1 89.4C178.73 89.96 176.29 90.24 173.85 90.21L169.3 95.44C169.68 95.5 170.05 95.54 170.36 95.56C171.08 95.63 171.81 95.66 172.53 95.65C174.23 95.65 175.91 95.43 177.56 95.01C181.05 94.15 184.98 92.23 188.02 89.77C189.45 88.64 190.75 87.35 191.9 85.94C192.87 84.75 193.69 83.44 194.33 82.04C192.19 83.83 189.9 85.44 187.49 86.84H187.47V86.83ZM181.46 119.74C180.52 120.95 179.55 122.14 178.76 123.03C178.17 123.71 177.55 124.36 176.89 124.97C176.53 125.31 176.14 125.63 175.74 125.93C175.51 126.1 175.26 126.26 175 126.39C174.59 126.6 174.31 126.69 173.92 126.62C173.53 126.55 173.55 126.21 173.57 126.01C173.63 125.86 173.5 126.07 174.04 125.09C174.45 124.37 175.22 122.99 176.01 121.62L185.1 106.97H180.63L179.09 108.22C178.59 107.89 178.07 107.6 177.53 107.35C177.23 107.2 176.9 107.1 176.57 107.04C176.29 106.99 176.01 106.97 175.72 106.97C174.18 106.97 172.71 107.45 171.09 108.36C170.54 108.68 170.01 109.02 169.5 109.4C168.92 109.83 168.27 110.37 167.49 111.06C166.71 111.75 165.78 112.61 164.15 114.55C162.52 116.49 160.18 119.49 158.53 121.55C156.88 123.61 155.94 124.73 155.26 125.42C154.87 125.86 154.43 126.26 153.95 126.6C153.74 126.75 153.5 126.87 153.26 126.97C153.03 127.06 152.78 127.1 152.54 127.06C152.13 127.04 151.63 126.46 151.57 126.05C151.41 125.29 151.5 124.96 151.79 123.79C151.96 123.11 152.25 122.1 152.7 120.81C153.15 119.52 153.73 117.95 154.36 116.39C157.61 114.42 160.75 112.28 163.76 109.96C166.01 108.23 168.09 106.29 169.98 104.17C171.95 101.94 173.78 99.6 175.46 97.14L173.41 97.35C172.03 99.21 170.54 100.99 168.94 102.67C167.12 104.59 165.18 106.41 163.15 108.12C160.96 109.96 158.67 111.67 156.28 113.25C157.8 110.53 159.43 107.84 161.13 105.21C162.83 102.58 164.62 100.04 166.38 97.69C168.14 95.34 169.9 93.2 171.47 91.43C173.04 89.66 174.45 88.25 175.58 87.2C176.43 86.4 177.34 85.67 178.29 85C178.78 84.66 179.3 84.37 179.84 84.14C180.12 84.02 180.42 83.95 180.73 83.93C180.86 83.93 180.98 83.97 181.09 84.05C181.57 84.46 181.49 84.68 181.4 85.12C181.35 85.38 181.26 85.64 181.14 85.88C180.93 86.38 180.54 87.25 180.14 88.12L181.99 87.9101C182.33 87.4001 182.65 86.87 182.84 86.51C182.99 86.26 183.1 86 183.17 85.72C183.23 85.48 183.27 85.2301 183.29 84.9801C183.36 84.12 183.19 83.29 182.37 82.6C182.14 82.42 181.89 82.28 181.61 82.19C180.66 81.91 179.8 82.07 178.71 82.35C177.78 82.61 176.88 82.97 176.02 83.43C174.71 84.12 173.46 84.92 172.29 85.83C170.47 87.21 168.75 88.72 167.14 90.34C164.87 92.6 162.74 94.9801 160.74 97.4801C158.36 100.46 156.12 103.55 154.04 106.75C151.93 110 149.99 113.35 148.23 116.8H145.79C146.27 115.84 146.73 114.86 147.02 114.16C147.23 113.65 147.4 113.13 147.53 112.59C147.81 111.42 147.87 110.1 147.4 109.06C147.27 108.76 147.09 108.48 146.87 108.23C146.06 107.36 145.36 107.18 144.38 107.16C143.9 107.18 143.43 107.25 142.97 107.37C142.33 107.52 141.7 107.73 141.11 108.02C140.27 108.4 139.47 108.85 138.71 109.37C137.67 110.08 136.68 110.85 135.75 111.7C134.6 112.74 133.53 113.85 132.52 115.03C130.36 117.56 128.63 120.31 127.66 122.4C127.23 123.32 126.86 124.26 126.57 125.23C126.36 125.94 126.21 126.66 126.13 127.39C126.07 127.93 126.09 128.47 126.17 129C126.23 129.44 126.37 129.87 126.58 130.27C126.77 130.64 127.03 130.97 127.35 131.24C127.67 131.51 128.03 131.72 128.43 131.86C128.86 132.01 129.3 132.08 129.75 132.08C130.7 132.08 131.64 131.86 132.81 131.31C133.52 130.96 134.2 130.54 134.84 130.08C135.75 129.41 136.62 128.67 137.43 127.88C138.63 126.7 139.76 125.45 140.81 124.13C142.08 122.54 143.52 120.54 144.85 118.5H147.29C146.48 120.5 145.72 122.52 145.28 123.8C145 124.56 144.78 125.35 144.63 126.15C144.45 127.14 144.32 128.09 144.41 128.93C144.45 129.29 144.54 129.64 144.66 129.98C144.78 130.29 144.93 130.58 145.13 130.84C145.33 131.1 145.57 131.32 145.83 131.51C146.11 131.7 146.42 131.85 146.75 131.95C147.12 132.05 147.49 132.11 147.87 132.11C149.22 132.11 150.51 131.66 152.12 130.61C152.86 130.11 153.57 129.56 154.23 128.97C155.05 128.23 156.02 127.27 156.93 126.26C156.87 126.85 156.85 127.45 156.86 128.04C156.86 128.47 156.9 128.89 156.97 129.31C157.02 129.6 157.09 129.88 157.19 130.16C157.26 130.37 157.36 130.56 157.47 130.75C157.64 131.04 157.88 131.3 158.16 131.49C158.62 131.79 159.17 131.94 159.73 131.9C160.05 131.9 160.37 131.86 160.69 131.81C161.47 131.66 162.21 131.37 162.89 130.96C163.44 130.64 163.96 130.26 164.45 129.85C165.1 129.31 165.95 128.53 166.75 127.71C166.7 128.29 166.67 128.86 166.68 129.3C166.68 129.62 166.72 129.95 166.78 130.27C166.81 130.48 166.87 130.68 166.95 130.87C167.14 131.38 167.55 131.77 168.05 131.96C169.4 132.3 170.51 132.01 172.02 131.33C172.72 130.98 173.38 130.58 174.01 130.11C174.88 129.46 175.7 128.74 176.46 127.96C177.54 126.86 178.54 125.69 179.46 124.46C180.64 122.88 181.74 121.24 182.75 119.54L181.51 119.76L181.46 119.74ZM141.31 121.11C140.68 121.97 140.01 122.8 139.3 123.59C138.73 124.24 138.11 124.86 137.47 125.44C137.04 125.83 136.58 126.19 136.1 126.51C135.82 126.69 135.53 126.85 135.23 126.97C135.06 127.05 134.87 127.09 134.68 127.09C134.11 127.09 133.57 126.8 133.24 126.33C133.1 126.15 132.99 125.94 132.91 125.73C132.71 125.19 132.65 124.61 132.73 124.04C132.78 123.55 132.87 123.07 133 122.6C133.16 122.02 133.36 121.46 133.62 120.92C134.53 118.9 136.22 116.76 138.45 114.95C138.68 115.46 139 115.93 139.39 116.33C139.62 116.56 139.87 116.78 140.13 116.96C140.5 117.22 140.89 117.44 141.3 117.61C141.92 117.87 142.56 118.1 143.2 118.29C142.61 119.26 141.97 120.21 141.3 121.1L141.31 121.11ZM145.59 112.19C145.56 112.49 145.51 112.79 145.45 113.09C145.36 113.51 145.21 113.92 145.02 114.3C144.74 114.92 144.26 115.87 143.74 116.81C143.23 116.65 142.74 116.46 142.25 116.24C141.96 116.11 141.68 115.95 141.43 115.75C141.26 115.62 141.1 115.48 140.96 115.31C140.72 115.06 140.54 114.76 140.42 114.43C139.96 112.85 140.21 111.23 142.15 109.96C142.65 109.65 143.23 109.49 143.82 109.49C144.35 109.49 144.75 109.52 145.17 109.88C145.58 110.32 145.6 110.7 145.63 111.3C145.63 111.55 145.63 111.88 145.59 112.2V112.19ZM169.64 122.25C169.06 123.1 168.43 123.92 167.75 124.7C167.34 125.19 166.89 125.65 166.4 126.06C166.11 126.31 165.78 126.52 165.43 126.68C164.81 126.93 164.16 126.97 163.74 126.61C163.39 126.2 163.43 125.89 163.47 125.3C163.51 124.96 163.57 124.62 163.65 124.29C163.77 123.83 163.91 123.37 164.08 122.93C164.31 122.33 164.57 121.75 164.87 121.19C165.22 120.53 165.66 119.78 166.21 118.93C166.76 118.08 167.44 117.17 168.22 116.21C169 115.25 169.89 114.27 170.74 113.41C171.49 112.65 172.28 111.93 173.11 111.25C173.63 110.81 174.19 110.42 174.77 110.07C175.07 109.89 175.4 109.73 175.73 109.61C175.92 109.54 176.11 109.5 176.31 109.49C176.57 109.47 176.84 109.51 177.08 109.63C177.43 109.93 177.24 110.28 177.12 110.69C177.01 111.01 176.88 111.31 176.73 111.61C176.51 112.03 176.26 112.44 176 112.84L169.63 122.26H169.64V122.25ZM129.3 114.02C129.57 113.02 129.76 111.99 129.86 110.95C129.94 110.26 129.88 109.56 129.68 108.9C129.59 108.66 129.48 108.44 129.33 108.23C129.05 107.83 128.65 107.51 128.2 107.33C127.92 107.21 127.62 107.12 127.32 107.08C126.93 107.01 126.53 106.98 126.13 106.98C125.63 106.98 125.13 107.03 124.64 107.11C122.57 107.48 120.4 108.54 118.13 110.91C117.51 111.58 116.93 112.28 116.4 113.03C115.79 113.9 115.24 114.8 114.76 115.74C114.22 116.78 113.75 117.85 113.35 118.95C112.93 120.1 112.59 121.28 112.32 122.47C113.49 121.55 114.69 120.65 115.54 120.06C116.2 119.59 116.9 119.17 117.62 118.8C118.32 118.44 119.2 118.04 120.08 117.65C120.38 116.34 120.84 115.06 121.44 113.85C121.68 113.37 121.94 112.91 122.24 112.46C122.48 112.1 122.74 111.76 123.03 111.45C123.58 110.78 124.29 110.26 125.08 109.93C126.06 109.62 126.84 109.49 127.65 110.22C127.94 110.55 128.1 110.97 128.12 111.41C128.12 113 127.74 114.43 127.12 116.07C126.81 116.86 126.46 117.63 126.05 118.37C125.56 119.23 125.02 120.05 124.42 120.83C122.97 122.73 121.27 124.42 119.37 125.86C117.49 127.28 115.54 128.29 114.2 128.69C113.68 128.86 113.13 128.95 112.59 128.97C112.14 128.97 111.7 128.91 111.27 128.79C110.35 128.5 109.53 127.96 108.9 127.22C108.57 126.83 108.3 126.4 108.08 125.93C107.68 125.05 107.51 124.08 107.61 123.11C107.75 122.03 108.02 120.97 108.75 119.15C109.78 116.65 110.94 114.2 112.24 111.83C113.83 108.94 115.82 105.72 117.74 102.92C119.43 100.46 121.25 98.09 123.19 95.81C124.59 94.16 126.09 92.58 127.67 91.1C128.8 90.04 129.99 89.05 131.24 88.13C132.15 87.47 133.11 86.87 134.1 86.34C134.85 85.94 135.63 85.59 136.42 85.29C138.29 84.59 139.99 84.55 141.9 84.57C140.44 85.36 139.05 86.25 137.72 87.24C135.56 88.81 133.64 90.69 132.04 92.83C131.49 93.59 130.99 94.39 130.57 95.2301C130.23 95.9001 129.96 96.61 129.75 97.33C129.58 97.91 129.46 98.5 129.39 99.09C129.34 99.47 129.34 99.8501 129.39 100.23C129.43 100.51 129.5 100.79 129.62 101.05C129.73 101.27 129.86 101.48 130.03 101.67C130.2 101.86 130.4 102.01 130.63 102.14C130.89 102.28 131.16 102.38 131.45 102.45C131.8 102.53 132.15 102.57 132.5 102.57C133.38 102.54 134.24 102.33 135.03 101.95C135.6 101.69 136.15 101.37 136.67 101.01C137.35 100.55 137.99 100.03 138.58 99.47C139.29 98.79 139.96 98.07 140.57 97.31C141.22 96.5 141.82 95.65 142.36 94.76C143.29 93.25 144 91.6201 144.48 89.9101C144.66 89.2501 144.78 88.5901 144.84 87.9101C144.84 87.7501 144.86 87.59 144.86 87.27C144.86 86.95 144.84 86.48 144.84 86.14C144.84 85.89 144.84 85.65 144.87 85.4C146.52 85.37 148.17 85.56 149.77 85.96C151.32 86.35 152.75 86.96 154.83 88.19C157.4 89.76 159.87 91.49 162.22 93.36L167.14 88.54C165.6 87.29 163.99 86.14 162.31 85.09C161.07 84.31 159.76 83.64 158.41 83.08C157.41 82.68 156.38 82.36 155.33 82.14C153.97 81.85 152.57 81.79 151.19 81.95C150.45 82.03 149.71 82.18 148.99 82.38C147.89 82.68 146.25 83.19 144.62 83.75C143.83 83.25 143.01 82.81 142.16 82.43C141.68 82.21 141.16 82.05 140.64 81.97C139.01 81.72 137.52 81.9 135.51 82.44C133.7 82.97 131.94 83.66 130.26 84.52C127.88 85.73 125.59 87.12 123.41 88.67C120.87 90.49 118.45 92.47 116.18 94.61C113.98 96.68 111.92 98.88 110.02 101.22C108.39 103.21 106.89 105.31 105.55 107.51C104.45 109.29 103.49 111.15 102.66 113.07C101.98 114.65 101.42 116.28 100.98 117.94C100.63 119.27 100.38 120.62 100.24 121.98C100.13 122.92 100.14 123.86 100.27 124.8C100.38 125.61 100.61 126.4 100.93 127.16C101.6 128.69 102.71 129.99 104.12 130.89C104.87 131.35 105.67 131.71 106.52 131.95C108.3 132.46 110.2 132.44 111.97 131.9C113.17 131.55 114.33 131.08 115.43 130.5C118.01 129.18 120.91 126.96 123.15 124.56C125.19 122.42 126.87 119.97 128.14 117.31C128.63 116.25 129.03 115.15 129.35 114.03H129.3V114.02ZM142.73 86.04C142.62 87.01 142.42 87.98 142.14 88.92C141.8 90.09 141.39 91.24 140.91 92.36C140.45 93.42 139.93 94.45 139.35 95.44C138.9 96.19 138.41 96.92 137.87 97.6C136.69 99.07 135.69 99.87 134.63 100.34C133.52 100.79 132.51 100.85 131.62 100.31C131.34 100.11 131.13 99.83 131.03 99.51C130.85 98.4701 131.17 97.58 131.63 96.45C131.86 95.94 132.13 95.44 132.44 94.97C132.85 94.32 133.31 93.7 133.8 93.11C134.48 92.3 135.22 91.54 136 90.83C137 89.91 138.05 89.05 139.15 88.27C140.29 87.45 141.49 86.72 142.73 86.07V86.04ZM94.21 111.55C93.7 112.15 93.15 112.72 92.57 113.24C92.35 113.44 92.12 113.62 91.87 113.78C91.55 114 91.15 114.1 90.76 114.05C90.46 114.03 90.23 113.77 90.25 113.47C90.23 113.26 90.28 113.04 90.39 112.85C90.5 112.62 90.68 112.21 91.21 111.24C91.74 110.27 92.59 108.7 93.47 107.16L101.12 94.81H96.23L95.32 95.86C94.74 95.52 94.14 95.23 93.51 94.97C93.16 94.82 92.78 94.72 92.4 94.67C92.06 94.62 91.72 94.59 91.37 94.6C90.22 94.61 89.08 94.93 87.69 95.7C87.04 96.08 86.42 96.49 85.82 96.94C85.06 97.49 84.15 98.21 82.44 100.03C80.73 101.85 78.22 104.77 76.14 107.14C74.06 109.51 72.41 111.34 71.25 112.53C70.5 113.31 69.67 114.01 68.79 114.62C68.34 114.94 67.87 115.22 67.38 115.46C67.04 115.63 66.69 115.76 66.32 115.84C65.49 116.03 64.62 116.01 64 115.6C63.71 115.38 63.51 115.07 63.45 114.71C63.28 113.83 63.45 113.13 63.65 112.27C63.8 111.68 63.99 111.1 64.22 110.54C64.53 109.76 64.89 109.01 65.3 108.28C65.84 107.3 66.44 106.34 67.09 105.43C68.61 103.28 70.35 101.29 72.28 99.5C72.91 98.92 73.58 98.38 74.28 97.9C74.64 97.65 75.03 97.44 75.44 97.27C75.65 97.18 75.88 97.13 76.11 97.12C76.37 97.11 76.62 97.18 76.83 97.33C77.12 97.58 77.15 97.74 77.19 98.13C77.19 98.35 77.19 98.5801 77.17 98.8001C76.73 98.8601 76.3 98.96 75.88 99.08C75.59 99.17 75.31 99.2801 75.04 99.4101C74.85 99.5101 74.66 99.62 74.48 99.74C73.4 100.53 73.2 101.52 73.23 102.17C73.32 102.52 73.52 102.83 73.8 103.05C74.65 103.77 75.78 103.3 76.93 102.02C77.15 101.77 77.36 101.5 77.55 101.22C78.11 100.44 78.51 99.56 78.76 98.63C79.05 97.4 79.01 95.96 77.48 94.89C76.94 94.54 76.31 94.37 75.67 94.39C75.2 94.39 74.73 94.44 74.27 94.54C73.73 94.66 73.19 94.82 72.67 95.02C72.09 95.25 71.44 95.54 70.22 96.46C69 97.38 67.21 98.9401 65.8 100.08C64.74 100.95 63.63 101.74 62.46 102.44C61.71 102.89 60.92 103.27 60.1 103.58C59.41 103.85 58.7 104.06 57.97 104.22C58.39 103.34 58.78 102.44 59.07 101.67C59.31 101.04 59.52 100.4 59.7 99.75C59.81 99.36 59.89 98.96 59.93 98.56C60 97.89 59.91 97.21 59.68 96.57C59.58 96.31 59.45 96.07 59.29 95.85C58.99 95.44 58.58 95.12 58.11 94.92C56.97 94.45 55.98 94.53 54.76 94.81C54.03 95 53.31 95.26 52.62 95.58C51.67 96.03 50.76 96.55 49.89 97.15C48.77 97.92 47.71 98.76 46.72 99.68C45.61 100.71 44.56 101.8 43.58 102.97C41.86 105 40.43 107.26 39.31 109.67C38.91 110.54 38.59 111.45 38.33 112.37C38.14 113.08 37.99 113.81 37.91 114.54C37.86 115.03 37.86 115.53 37.91 116.02C37.95 116.39 38.03 116.76 38.16 117.11C38.27 117.43 38.43 117.73 38.64 118C38.84 118.26 39.08 118.49 39.35 118.68C39.65 118.88 39.98 119.03 40.32 119.13C40.73 119.24 41.15 119.3 41.57 119.3C42.08 119.3 42.59 119.23 43.09 119.12C43.67 118.99 44.24 118.8 44.79 118.55C45.47 118.24 46.13 117.87 46.75 117.44C47.62 116.84 48.44 116.18 49.21 115.46C50.4 114.34 51.52 113.14 52.55 111.87C53.88 110.25 55.49 108.1 57 105.9L60.74 105.06C59.64 106.96 58.61 108.9 58.01 110.14C57.41 111.38 57.25 111.91 57.12 112.49C56.71 114.29 56.59 116.13 57.46 117.56C57.73 118 58.07 118.39 58.48 118.7C58.92 119.04 59.42 119.29 59.95 119.45C60.56 119.63 61.19 119.72 61.82 119.71C63.51 119.7 65.01 119.34 67.02 118.13C67.91 117.58 68.76 116.97 69.54 116.28C70.6 115.38 71.94 114.13 73.23 112.79C73.11 113.94 73.05 115.1 73.04 115.85C73.02 116.31 73.06 116.76 73.15 117.21C73.2 117.44 73.26 117.66 73.34 117.88C73.41 118.04 73.49 118.19 73.58 118.34C73.84 118.72 74.22 119 74.66 119.13C76.02 119.47 77.11 119.29 78.5 118.69C79.12 118.41 79.71 118.07 80.26 117.68C81.11 117.08 81.93 116.43 82.71 115.74C82.67 116.17 82.64 116.6 82.65 117.03C82.65 117.28 82.68 117.52 82.73 117.76C82.77 118.03 82.88 118.29 83.05 118.51C83.53 119.07 84.04 119.16 84.69 119.25C85 119.28 85.31 119.3 85.62 119.3C86.92 119.29 88.24 118.87 89.82 117.89C90.78 117.28 91.68 116.57 92.5 115.78C93.63 114.7 94.67 113.53 95.61 112.29C96.81 110.72 97.92 109.07 98.92 107.36L97.92 107.15C96.54 108.85 95.12 110.51 94.22 111.54H94.21V111.55ZM51.02 111.34C50.01 112.63 49.57 113.03 49.22 113.35C48.94 113.6 48.64 113.84 48.33 114.05C48.11 114.2 47.88 114.32 47.64 114.43C46.65 114.84 45.53 114.9 44.84 113.89C44.61 113.47 44.53 112.99 44.61 112.52C44.66 112.09 44.77 111.66 44.92 111.25C45.18 110.52 45.5 109.82 45.87 109.14C46.46 108.06 47.12 107.02 47.85 106.03C48.78 104.75 49.78 103.52 50.83 102.34C51.26 102.92 51.74 103.47 52.24 103.98C52.59 104.34 52.99 104.65 53.44 104.89C54.01 105.19 54.59 105.46 55.2 105.68C53.66 107.88 52.05 110.05 51.03 111.33H51.02V111.34ZM57.76 99.88C57.73 100.2 57.68 100.51 57.61 100.82C57.51 101.21 57.38 101.59 57.2 101.95C56.96 102.49 56.57 103.26 56.15 104.04C55.65 103.88 55.17 103.69 54.69 103.47C54.37 103.32 54.07 103.14 53.78 102.94C53.58 102.8 53.39 102.64 53.23 102.46C53.1 102.33 52.98 102.18 52.87 102.03C52.16 100.82 52.22 99.58 53.56 98.33C53.77 98.14 53.99 97.98 54.22 97.83C54.46 97.67 54.71 97.54 54.98 97.44C55.77 97.16 56.51 96.88 57.2 97.42C57.95 98.29 57.81 99.05 57.77 99.89L57.76 99.88ZM85.62 110.3C85.17 110.95 84.71 111.57 84.3 112.07C83.97 112.48 83.62 112.87 83.25 113.24C83.01 113.48 82.76 113.71 82.49 113.92C82.2 114.15 81.86 114.33 81.51 114.44C81.01 114.58 80.47 114.44 80.11 114.06C79.71 113.58 79.67 113.29 79.71 112.75C79.75 112.43 79.82 112.11 79.92 111.81C80.08 111.3 80.27 110.79 80.5 110.31C80.87 109.52 81.29 108.75 81.75 108C82.33 107.07 83.09 105.95 84.01 104.76C84.93 103.57 85.96 102.34 86.91 101.31C87.7 100.45 88.53 99.6401 89.41 98.8701C89.9 98.43 90.42 98.03 90.97 97.68C91.24 97.5 91.52 97.35 91.82 97.24C92.17 97.09 92.56 97.09 92.91 97.24C93.5 97.61 93.24 98.28 93.19 98.63C93.1 98.88 92.98 99.12 92.83 99.34C92.56 99.78 92.05 100.55 91.55 101.32L85.63 110.31L85.62 110.3Z" fill="#010101"/>
</g>
<defs>
<clipPath id="clip0_142_2174">
<rect width="212" height="212" fill="white"/>
</clipPath>
</defs>
</svg>
