<svg width="212" height="212" viewBox="0 0 212 212" fill="none" xmlns="http://www.w3.org/2000/svg">
<g clip-path="url(#clip0_142_2179)">
<path d="M206 0H6C2.68629 0 0 2.68629 0 6V206C0 209.314 2.68629 212 6 212H206C209.314 212 212 209.314 212 206V6C212 2.68629 209.314 0 206 0Z" fill="#F5F5F5"/>
<path d="M30.6 123.49H37.37V124.91H32.25V127.37H36.99V128.71H32.25V131.47H37.47V132.89H30.61V123.48H30.6V123.49Z" fill="black"/>
<path d="M38.7699 123.49H40.7299L42.8599 126.81L45.0899 123.49H46.9299L43.8199 128.02L47.1499 132.9H45.1499L42.8099 129.3L40.4199 132.9H38.5399L41.8699 128.02L38.7599 123.49H38.7699Z" fill="black"/>
<path d="M54.6499 126.48C54.3699 125.4 53.6699 124.6 52.2999 124.6C50.2799 124.6 49.4399 126.38 49.4399 128.18C49.4399 129.98 50.2799 131.77 52.2999 131.77C53.7599 131.77 54.5699 130.67 54.6999 129.3H56.2999C56.1699 131.56 54.5699 133.11 52.2999 133.11C49.4799 133.11 47.7899 130.87 47.7899 128.17C47.7899 125.47 49.4799 123.24 52.2999 123.24C54.4199 123.25 56.0999 124.43 56.2899 126.46H54.6499V126.48Z" fill="black"/>
<path d="M58.6699 123.49H65.4399V124.91H60.3199V127.37H65.0699V128.71H60.3199V131.47H65.5399V132.89H58.6699V123.48V123.49Z" fill="black"/>
<path d="M68.03 123.49H74.8V124.91H69.68V127.37H74.42V128.71H69.68V131.47H74.9V132.89H68.04V123.48L68.03 123.49Z" fill="black"/>
<path d="M77.39 123.49H81.29C84.19 123.49 85.44 125.6 85.44 128.19C85.44 130.78 84.19 132.9 81.29 132.9H77.39V123.49ZM79.04 131.56H80.66C83.24 131.56 83.79 130.08 83.79 128.19C83.79 126.3 83.23 124.83 80.66 124.83H79.04V131.55V131.56Z" fill="black"/>
<path d="M93.8 129.21L90.26 123.49H92.17L94.67 127.71L97.12 123.49H98.96L95.45 129.21V132.91H93.8V129.21Z" fill="black"/>
<path d="M108.32 128.19C108.32 130.88 106.63 133.13 103.81 133.13C100.99 133.13 99.2999 130.89 99.2999 128.19C99.2999 125.49 100.99 123.26 103.81 123.26C106.63 123.26 108.32 125.51 108.32 128.19ZM100.95 128.19C100.95 130 101.79 131.78 103.81 131.78C105.83 131.78 106.67 130 106.67 128.19C106.67 126.38 105.83 124.61 103.81 124.61C101.79 124.61 100.95 126.39 100.95 128.19Z" fill="black"/>
<path d="M110.3 123.49H111.95V128.97C111.95 130.24 112.03 131.7 114.16 131.7C116.29 131.7 116.37 130.24 116.37 128.97V123.49H118.02V129.52C118.02 131.93 116.48 133.13 114.16 133.13C111.84 133.13 110.3 131.93 110.3 129.52V123.49Z" fill="black"/>
<path d="M120.58 123.49H125.07C127.12 123.49 128.18 124.44 128.18 126.03C128.18 127.84 126.93 128.3 126.63 128.4V128.43C127.2 128.51 128.02 128.93 128.02 130.42C128.02 131.51 128.18 132.51 128.54 132.9H126.78C126.53 132.49 126.53 131.97 126.53 131.51C126.53 129.78 126.17 129.02 124.66 129.02H122.23V132.9H120.58V123.49ZM122.23 127.77H124.93C125.97 127.77 126.53 127.25 126.53 126.27C126.53 125.07 125.75 124.83 124.9 124.83H122.23V127.77Z" fill="black"/>
<path d="M134.11 123.49H135.83L138.19 130.94H138.22L140.63 123.49H142.31L139.09 132.9H137.26L134.12 123.49H134.11Z" fill="black"/>
<path d="M144 123.49H145.64V132.9H144V123.49Z" fill="black"/>
<path d="M149.34 129.76C149.34 131.21 150.41 131.78 151.72 131.78C153.17 131.78 153.71 131.07 153.71 130.36C153.71 129.65 153.31 129.34 152.93 129.2C152.27 128.95 151.41 128.78 150.12 128.42C148.51 127.98 148.04 127.01 148.04 126.03C148.04 124.15 149.77 123.25 151.48 123.25C153.45 123.25 155.09 124.29 155.09 126.26H153.44C153.36 125.04 152.54 124.59 151.41 124.59C150.65 124.59 149.69 124.87 149.69 125.82C149.69 126.48 150.13 126.85 150.81 127.04C150.96 127.08 153.04 127.62 153.52 127.76C154.6 128.06 155.35 129.04 155.35 130.16C155.35 132.27 153.48 133.11 151.61 133.11C149.46 133.11 147.72 132.08 147.68 129.75H149.34V129.76Z" fill="black"/>
<path d="M157.6 123.49H159.24V132.9H157.6V123.49Z" fill="black"/>
<path d="M170.41 128.19C170.41 130.88 168.72 133.13 165.9 133.13C163.08 133.13 161.39 130.89 161.39 128.19C161.39 125.49 163.07 123.26 165.9 123.26C168.73 123.26 170.41 125.51 170.41 128.19ZM163.04 128.19C163.04 130 163.88 131.78 165.9 131.78C167.92 131.78 168.76 130 168.76 128.19C168.76 126.38 167.92 124.61 165.9 124.61C163.88 124.61 163.04 126.39 163.04 128.19Z" fill="black"/>
<path d="M172.56 123.49H174.29L178.59 130.42H178.62V123.49H180.18V132.9H178.45L174.17 125.98H174.13V132.9H172.57V123.49H172.56Z" fill="black"/>
<path d="M134.15 81.38C124.01 81.38 118.16 88.98 118.16 99.41C118.16 109.84 124.01 117.44 134.15 117.44C144.29 117.44 150.14 109.83 150.14 99.41C150.14 88.99 144.29 81.38 134.15 81.38ZM134.15 111.37C127.71 111.37 125.23 105.44 125.23 99.41C125.23 93.38 127.71 87.44 134.15 87.44C140.59 87.44 143.07 93.38 143.07 99.41C143.07 105.44 140.59 111.37 134.15 111.37Z" fill="black"/>
<path d="M30.6 82.39H56.01V88.46H37.67V96.01H54.77V101.92H37.67V110.36H56.01V116.43H30.6V82.39Z" fill="black"/>
<path d="M59.0399 116.43H66.1099V106.22H72.5099C81.1599 106.22 86.9699 101.96 86.9699 94.31C86.9699 86.66 81.1599 82.4 72.5099 82.4H59.0399V116.43ZM72.5099 100.16H66.1099V88.46H72.5099C76.9499 88.46 79.9099 90.4 79.9099 94.31C79.9099 98.22 76.9599 100.16 72.5099 100.16Z" fill="black"/>
<path d="M160.07 82.39H152.81V116.43H159.74V102.64C159.74 98.87 159.6 95.52 159.48 92.57C160.3 94.27 162.78 99.39 163.93 101.32L172.95 116.44H180.2V82.4H173.27V95.84C173.27 99.61 173.41 103.31 173.53 106.26C172.71 104.56 170.23 99.44 169.08 97.51L160.07 82.39Z" fill="black"/>
<path d="M94.9999 105.17C94.9999 109.74 98.7999 111.52 102.84 111.52C105.49 111.52 109.77 110.75 109.77 107.24C109.77 103.53 104.53 102.83 99.4799 101.48C94.1799 100.08 89.0899 98.08 89.0899 91.78C89.0899 84.75 95.7299 81.38 101.93 81.38C109.09 81.38 115.68 84.51 115.68 92.45H108.62C108.38 88.31 105.21 87.25 101.6 87.25C99.1899 87.25 96.1599 88.26 96.1599 91.15C96.1599 93.8 97.8899 94.21 106.5 96.42C109 97.05 116.84 98.56 116.84 106.36C116.84 112.67 111.89 117.39 102.55 117.39C94.9499 117.39 87.8399 113.63 87.9299 105.16H94.9999V105.17Z" fill="black"/>
</g>
<defs>
<clipPath id="clip0_142_2179">
<rect width="212" height="212" fill="white"/>
</clipPath>
</defs>
</svg>
