<svg fill="none" height="212" viewBox="0 0 212 212" width="212" xmlns="http://www.w3.org/2000/svg" xmlns:xlink="http://www.w3.org/1999/xlink"><clipPath id="a"><path d="m0 0h212v212h-212z"/></clipPath><g clip-path="url(#a)"><path d="m206 0h-200c-3.31371 0-6 2.68629-6 6v200c0 3.314 2.68629 6 6 6h200c3.314 0 6-2.686 6-6v-200c0-3.31371-2.686-6-6-6z" fill="#f5f5f5"/><g fill="#000"><path d="m30.6 123.49h6.77v1.42h-5.12v2.46h4.74v1.34h-4.74v2.76h5.22v1.42h-6.86v-9.41h-.01z"/><path d="m38.7699 123.49h1.96l2.13 3.32 2.23-3.32h1.84l-3.11 4.53 3.33 4.88h-2l-2.34-3.6-2.39 3.6h-1.88l3.33-4.88-3.11-4.53z"/><path d="m54.6499 126.48c-.28-1.08-.98-1.88-2.35-1.88-2.02 0-2.86 1.78-2.86 3.58s.84 3.59 2.86 3.59c1.46 0 2.27-1.1 2.4-2.47h1.6c-.13 2.26-1.73 3.81-4 3.81-2.82 0-4.51-2.24-4.51-4.94s1.69-4.93 4.51-4.93c2.12.01 3.8 1.19 3.99 3.22h-1.64z"/><path d="m58.6699 123.49h6.77v1.42h-5.12v2.46h4.75v1.34h-4.75v2.76h5.22v1.42h-6.87v-9.41z"/><path d="m68.03 123.49h6.77v1.42h-5.12v2.46h4.74v1.34h-4.74v2.76h5.22v1.42h-6.86v-9.41z"/><path d="m77.39 123.49h3.9c2.9 0 4.15 2.11 4.15 4.7s-1.25 4.71-4.15 4.71h-3.9zm1.65 8.07h1.62c2.58 0 3.13-1.48 3.13-3.37s-.56-3.36-3.13-3.36h-1.62v6.72z"/><path d="m93.8 129.21-3.54-5.72h1.91l2.5 4.22 2.45-4.22h1.84l-3.51 5.72v3.7h-1.65z"/><path d="m108.32 128.19c0 2.69-1.69 4.94-4.51 4.94s-4.5101-2.24-4.5101-4.94 1.6901-4.93 4.5101-4.93 4.51 2.25 4.51 4.93zm-7.37 0c0 1.81.84 3.59 2.86 3.59s2.86-1.78 2.86-3.59-.84-3.58-2.86-3.58-2.86 1.78-2.86 3.58z"/><path d="m110.3 123.49h1.65v5.48c0 1.27.08 2.73 2.21 2.73s2.21-1.46 2.21-2.73v-5.48h1.65v6.03c0 2.41-1.54 3.61-3.86 3.61s-3.86-1.2-3.86-3.61z"/><path d="m120.58 123.49h4.49c2.05 0 3.11.95 3.11 2.54 0 1.81-1.25 2.27-1.55 2.37v.03c.57.08 1.39.5 1.39 1.99 0 1.09.16 2.09.52 2.48h-1.76c-.25-.41-.25-.93-.25-1.39 0-1.73-.36-2.49-1.87-2.49h-2.43v3.88h-1.65zm1.65 4.28h2.7c1.04 0 1.6-.52 1.6-1.5 0-1.2-.78-1.44-1.63-1.44h-2.67z"/><path d="m134.11 123.49h1.72l2.36 7.45h.03l2.41-7.45h1.68l-3.22 9.41h-1.83l-3.14-9.41z"/><path d="m144 123.49h1.64v9.41h-1.64z"/><path d="m149.34 129.76c0 1.45 1.07 2.02 2.38 2.02 1.45 0 1.99-.71 1.99-1.42s-.4-1.02-.78-1.16c-.66-.25-1.52-.42-2.81-.78-1.61-.44-2.08-1.41-2.08-2.39 0-1.88 1.73-2.78 3.44-2.78 1.97 0 3.61 1.04 3.61 3.01h-1.65c-.08-1.22-.9-1.67-2.03-1.67-.76 0-1.72.28-1.72 1.23 0 .66.44 1.03 1.12 1.22.15.04 2.23.58 2.71.72 1.08.3 1.83 1.28 1.83 2.4 0 2.11-1.87 2.95-3.74 2.95-2.15 0-3.89-1.03-3.93-3.36h1.66z"/><path d="m157.6 123.49h1.64v9.41h-1.64z"/><path d="m170.41 128.19c0 2.69-1.69 4.94-4.51 4.94s-4.51-2.24-4.51-4.94 1.68-4.93 4.51-4.93 4.51 2.25 4.51 4.93zm-7.37 0c0 1.81.84 3.59 2.86 3.59s2.86-1.78 2.86-3.59-.84-3.58-2.86-3.58-2.86 1.78-2.86 3.58z"/><path d="m172.56 123.49h1.73l4.3 6.93h.03v-6.93h1.56v9.41h-1.73l-4.28-6.92h-.04v6.92h-1.56v-9.41z"/><path d="m134.15 81.38c-10.14 0-15.99 7.6-15.99 18.03s5.85 18.03 15.99 18.03 15.99-7.61 15.99-18.03-5.85-18.03-15.99-18.03zm0 29.99c-6.44 0-8.92-5.93-8.92-11.96s2.48-11.97 8.92-11.97 8.92 5.94 8.92 11.97-2.48 11.96-8.92 11.96z"/><path d="m30.6 82.39h25.41v6.07h-18.34v7.55h17.1v5.91h-17.1v8.44h18.34v6.07h-25.41z"/><path d="m59.0399 116.43h7.07v-10.21h6.4c8.65 0 14.46-4.26 14.46-11.91s-5.81-11.91-14.46-11.91h-13.47zm13.47-16.27h-6.4v-11.7h6.4c4.44 0 7.4 1.94 7.4 5.85s-2.95 5.85-7.4 5.85z"/><path d="m160.07 82.39h-7.26v34.04h6.93v-13.79c0-3.77-.14-7.12-.26-10.07.82 1.7 3.3 6.82 4.45 8.75l9.02 15.12h7.25v-34.04h-6.93v13.44c0 3.77.14 7.47.26 10.42-.82-1.7-3.3-6.82-4.45-8.75z"/><path d="m94.9999 105.17c0 4.57 3.8 6.35 7.8401 6.35 2.65 0 6.93-.77 6.93-4.28 0-3.71-5.24-4.41-10.2901-5.76-5.3-1.4-10.39-3.4-10.39-9.7 0-7.03 6.64-10.4 12.8401-10.4 7.16 0 13.75 3.13 13.75 11.07h-7.06c-.24-4.14-3.41-5.2-7.02-5.2-2.4101 0-5.4401 1.01-5.4401 3.9 0 2.65 1.73 3.06 10.3401 5.27 2.5.63 10.34 2.14 10.34 9.94 0 6.31-4.95 11.03-14.29 11.03-7.6001 0-14.7101-3.76-14.6201-12.23h7.07z"/></g></g></svg>