<svg fill="none" height="212" viewBox="0 0 212 212" width="212" xmlns="http://www.w3.org/2000/svg" xmlns:xlink="http://www.w3.org/1999/xlink"><clipPath id="a"><path d="m0 0h212v212h-212z"/></clipPath><g clip-path="url(#a)"><path d="m206 0h-200c-3.31371 0-6 2.68629-6 6v200c0 3.314 2.68629 6 6 6h200c3.314 0 6-2.686 6-6v-200c0-3.31371-2.686-6-6-6z" fill="#f5f5f5"/><g fill="#000"><path d="m87.12 103.59c6.16 0 9.24-1.59 9.24-4.85v-5.53c0-3.26-3.08-4.85-9.24-4.85h-7.4c-6.16 0-9.24 1.59-9.24 4.85v5.53c0 3.26 3.08 4.85 9.24 4.85zm0-2.83h-7.4c-3.45 0-5.08-.59-5.08-1.79v-5.97c0-1.2 1.64-1.79 5.08-1.79h7.4c3.45 0 5.08.59 5.08 1.79v5.97c0 1.2-1.63 1.79-5.08 1.79z"/><path d="m166.4 103.59c6.16 0 9.24-1.59 9.24-4.85v-5.53c0-3.26-3.08-4.85-9.24-4.85h-7.4c-6.16 0-9.24 1.59-9.24 4.85v5.53c0 3.26 3.08 4.85 9.24 4.85zm0-2.83h-7.4c-3.45 0-5.08-.59-5.08-1.79v-5.97c0-1.2 1.64-1.79 5.08-1.79h7.4c3.45 0 5.08.59 5.08 1.79v5.97c0 1.2-1.64 1.79-5.08 1.79z"/><path d="m66.21 98.67v-3.82c0-.83-.51-1.21-1.54-1.21h-9.02c-.86.04-1.52.76-1.48 1.62.04.8.68 1.44 1.48 1.48h6.17v2.06c0 .62-.81 1.21-2.15 1.58-.95.24-1.93.35-2.91.31h-9.93c-3.96 0-5.94-.66-5.94-1.97v-9.71c0-1.31 2.37-1.92 7.09-1.92h2.79c1.07 0 1.6-.48 1.6-1.44s-.54-1.43-1.6-1.43h-3.96c-2.39 0-4.59.26-6.55.94-2.23.77-3.76 2.12-3.76 3.86v9.72c0 1.81 1.23 3.12 3.68 3.95 1.78.6 3.98.9 6.59.91h9.97c2.43 0 4.5-.33 6.19-1 2.18-.86 3.26-2.16 3.26-3.92h.02z"/><path d="m126.96 85.04c-1.74-.52-3.86-.82-6.34-.82h-18.66c-.69 0-1.25.56-1.25 1.25v16.85c0 .85.53 1.27 1.54 1.27h1.3c1.02 0 1.54-.42 1.54-1.27v-5.67h15.52c2.64 0 4.68-.29 6.54-.91 2.4-.88 3.62-2.28 3.62-4.2v-3.03c0-1.53-1.26-2.7-3.82-3.48zm-.57 6.73c0 1.56-1.95 2.02-5.77 2.02h-15.52v-6.7h15.52c3.82 0 5.77.45 5.77 2.01v2.66z"/><path d="m145.31 88.36c-3.83 0-5.45-.07-7.72.86-2.13.87-3.04 2.42-3.04 3.83v9.33c0 .81.5 1.21 1.47 1.21h1.24c.97 0 1.47-.4 1.47-1.21v-9.33c0-1.3 1.61-1.86 4.82-1.86h1.79c1.05 0 1.54-.48 1.54-1.42s-.52-1.42-1.57-1.42"/><path d="m66.7 108.37h-30.19v19.76h30.19z"/><path d="m103.02 108.37h-30.19v19.76h30.19z"/><path d="m139.33 108.37h-30.19v19.76h30.19z"/><path d="m175.65 108.37h-30.19v19.76h30.19z"/></g></g></svg>