<svg width="212" height="212" viewBox="0 0 212 212" fill="none" xmlns="http://www.w3.org/2000/svg">
<g clip-path="url(#clip0_142_14)">
<path d="M206 0H6C2.68629 0 0 2.68629 0 6V206C0 209.314 2.68629 212 6 212H206C209.314 212 212 209.314 212 206V6C212 2.68629 209.314 0 206 0Z" fill="#F5F5F5"/>
<path d="M87.12 103.59C93.28 103.59 96.36 102 96.36 98.74V93.21C96.36 89.95 93.28 88.36 87.12 88.36H79.72C73.56 88.36 70.48 89.95 70.48 93.21V98.74C70.48 102 73.56 103.59 79.72 103.59H87.12ZM87.12 100.76H79.72C76.27 100.76 74.64 100.17 74.64 98.97V93C74.64 91.8 76.28 91.21 79.72 91.21H87.12C90.57 91.21 92.2 91.8 92.2 93V98.97C92.2 100.17 90.57 100.76 87.12 100.76Z" fill="black"/>
<path d="M166.4 103.59C172.56 103.59 175.64 102 175.64 98.74V93.21C175.64 89.95 172.56 88.36 166.4 88.36H159C152.84 88.36 149.76 89.95 149.76 93.21V98.74C149.76 102 152.84 103.59 159 103.59H166.4ZM166.4 100.76H159C155.55 100.76 153.92 100.17 153.92 98.97V93C153.92 91.8 155.56 91.21 159 91.21H166.4C169.85 91.21 171.48 91.8 171.48 93V98.97C171.48 100.17 169.84 100.76 166.4 100.76Z" fill="black"/>
<path d="M66.21 98.67V94.85C66.21 94.02 65.7 93.64 64.67 93.64H55.65C54.79 93.68 54.13 94.4 54.17 95.26C54.21 96.06 54.85 96.7 55.65 96.74H61.82V98.8C61.82 99.42 61.01 100.01 59.67 100.38C58.72 100.62 57.74 100.73 56.76 100.69H46.83C42.87 100.69 40.89 100.03 40.89 98.72V89.01C40.89 87.7 43.26 87.09 47.98 87.09H50.77C51.84 87.09 52.37 86.61 52.37 85.65C52.37 84.69 51.83 84.22 50.77 84.22H46.81C44.42 84.22 42.22 84.48 40.26 85.16C38.03 85.93 36.5 87.28 36.5 89.02V98.74C36.5 100.55 37.73 101.86 40.18 102.69C41.96 103.29 44.16 103.59 46.77 103.6H56.74C59.17 103.6 61.24 103.27 62.93 102.6C65.11 101.74 66.19 100.44 66.19 98.68H66.21V98.67Z" fill="black"/>
<path d="M126.96 85.04C125.22 84.52 123.1 84.22 120.62 84.22H101.96C101.27 84.22 100.71 84.78 100.71 85.47V102.32C100.71 103.17 101.24 103.59 102.25 103.59H103.55C104.57 103.59 105.09 103.17 105.09 102.32V96.65H120.61C123.25 96.65 125.29 96.36 127.15 95.74C129.55 94.86 130.77 93.46 130.77 91.54V88.51C130.77 86.98 129.51 85.81 126.95 85.03L126.96 85.04ZM126.39 91.77C126.39 93.33 124.44 93.79 120.62 93.79H105.1V87.09H120.62C124.44 87.09 126.39 87.54 126.39 89.1V91.76V91.77Z" fill="black"/>
<path d="M145.31 88.36C141.48 88.36 139.86 88.29 137.59 89.22C135.46 90.09 134.55 91.64 134.55 93.05V102.38C134.55 103.19 135.05 103.59 136.02 103.59H137.26C138.23 103.59 138.73 103.19 138.73 102.38V93.05C138.73 91.75 140.34 91.19 143.55 91.19H145.34C146.39 91.19 146.88 90.71 146.88 89.77C146.88 88.83 146.36 88.35 145.31 88.35" fill="black"/>
<path d="M66.7 108.37H36.51V128.13H66.7V108.37Z" fill="black"/>
<path d="M103.02 108.37H72.83V128.13H103.02V108.37Z" fill="black"/>
<path d="M139.33 108.37H109.14V128.13H139.33V108.37Z" fill="black"/>
<path d="M175.65 108.37H145.46V128.13H175.65V108.37Z" fill="black"/>
</g>
<defs>
<clipPath id="clip0_142_14">
<rect width="212" height="212" fill="white"/>
</clipPath>
</defs>
</svg>
