<svg fill="none" height="212" viewBox="0 0 212 212" width="212" xmlns="http://www.w3.org/2000/svg" xmlns:xlink="http://www.w3.org/1999/xlink"><clipPath id="a"><path d="m0 0h212v212h-212z"/></clipPath><g clip-path="url(#a)"><path d="m206 0h-200c-3.31371 0-6 2.68629-6 6v200c0 3.314 2.68629 6 6 6h200c3.314 0 6-2.686 6-6v-200c0-3.31371-2.686-6-6-6z" fill="#f5f5f5"/><path d="m42.1 79.6149 7.3604 64.9621h102.5456l19.994-97.4432z" fill="#010101"/><path d="m67.7333 131.37c.0366 2.075-.1831 3.772-1.5868 5.395-1.4281 1.624-3.491 2.563-5.6637 2.563-4.3699.037-7.9464-3.491-7.983-7.86-.0366-4.37 3.491-7.947 7.8609-7.983h.2197c2.6854 0 4.8581 1.196 6.4816 3.308l-1.2329 1.159c-1.2816-1.806-3.0027-2.881-5.2609-2.881-3.491 0-6.2497 2.942-6.2497 6.397 0 1.623.647 3.173 1.7822 4.321 1.123 1.123 2.7464 1.953 4.3454 1.953 2.661 0 5.4563-1.953 5.4563-4.797h-4.553v-1.587h6.3839z" fill="#fff"/><path d="m72.8722 139.06h-1.7089v-15.307h2.2094c2.9051 0 5.6027.769 5.6027 4.224 0 2.355-1.477 4.028-3.8328 4.223l4.8703 6.86h-2.0872l-4.6263-6.726h-.4272zm0-8.215h.5249c1.9286 0 3.8816-.366 3.8816-2.746 0-2.515-1.8431-2.747-3.906-2.747h-.5127v5.493z" fill="#fff"/><path d="m98.3713 131.431c0 4.406-3.6131 7.897-7.9829 7.897-4.3699 0-7.983-3.491-7.983-7.897 0-4.407 3.5765-7.983 7.983-7.983s7.9829 3.576 7.9829 7.983zm-14.257-.024c0 3.454 2.8074 6.335 6.2741 6.335 3.4666 0 6.274-2.869 6.274-6.335 0-3.467-2.8074-6.275-6.274-6.275-3.4667 0-6.2741 2.808-6.2741 6.275z" fill="#fff"/><path d="m113.373 127.11c-1.221-1.282-2.905-2.014-4.675-2.027-3.406 0-6.177 2.967-6.177 6.336s2.783 6.335 6.213 6.335c1.722 0 3.418-.806 4.627-2.027v2.112c-1.331.964-2.93 1.489-4.566 1.502-4.321 0-7.983-3.516-7.983-7.861.013-4.407 3.577-7.971 7.983-7.983 1.648-.025 3.26.5 4.566 1.501v2.112z" fill="#fff"/><path d="m117.254 123.753h7.935v1.587h-6.226v4.553h6.042v1.587h-6.042v6.005h6.226v1.587h-7.935z" fill="#fff"/><path d="m130.804 139.06h-1.709v-15.307h2.209c2.905 0 5.603.769 5.603 4.224 0 2.355-1.477 4.028-3.845 4.223l4.87 6.86h-2.087l-4.626-6.726h-.428v6.726zm0-8.215h.524c1.929 0 3.882-.366 3.882-2.746 0-2.515-1.843-2.759-3.894-2.759h-.512z" fill="#fff"/><path d="m139.324 123.753h1.965l3.894 6.824 3.893-6.824h1.966l-5.017 8.74v6.579h-1.709v-6.579l-5.017-8.74z" fill="#fff"/><path d="m152.262 163.289h-101.7641v.867h101.7641z" fill="#010101"/><path d="m50.4979 100.183h103.4851" stroke="#fff" stroke-width=".71"/><path d="m66.8789 112.572c.0244 3.93-3.1493 7.129-7.0797 7.153-3.9305.024-7.1285-3.149-7.1529-7.08-.0245-3.93 3.1492-7.128 7.0796-7.153h.0367c3.906-.024 7.0919 3.137 7.1163 7.043zm-12.7068-.024c0 3.076 2.5023 5.651 5.5905 5.651 3.1248.037 5.6759-2.478 5.7125-5.59.0367-3.113-2.4778-5.676-5.5905-5.713-3.1248-.037-5.6759 2.478-5.7125 5.591z" fill="#fff"/><path d="m70.4674 107.14v4.053h4.5408v1.416h-4.5408v6.774h-1.5257v-13.659h6.213v1.416z" fill="#fff"/><path d="m84.7001 107.14v4.053h4.5408v1.416h-4.5408v6.774h-1.5258v-13.659h6.2131v1.416z" fill="#fff"/><path d="m105.378 112.572c.024 3.93-3.149 7.129-7.0799 7.153-3.9305.024-7.1285-3.149-7.1529-7.08-.0245-3.93 3.1492-7.128 7.0797-7.153h.0366c3.9065-.024 7.0915 3.137 7.1165 7.043zm-12.707-.024c0 3.1 2.4901 5.627 5.5905 5.651 3.1005 0 5.5905-2.563 5.5905-5.651.061-3.089-2.405-5.64-5.4929-5.701-3.0882-.061-5.6393 2.405-5.7003 5.493v.208z" fill="#fff"/><path d="m121.002 112.572c.024 3.93-3.149 7.129-7.08 7.153-3.93.024-7.128-3.149-7.153-7.08-.024-3.93 3.149-7.128 7.08-7.153h.036c3.907-.024 7.092 3.137 7.117 7.043zm-12.719-.024c0 3.088 2.502 5.651 5.59 5.651 3.125.037 5.676-2.478 5.713-5.59.036-3.125-2.478-5.676-5.591-5.713-3.124-.037-5.676 2.478-5.712 5.591z" fill="#fff"/><path d="m123.065 105.724h2.563c2.051 0 3.711.269 5.322 1.648 1.562 1.343 2.258 3.174 2.258 5.2s-.732 3.747-2.221 5.09c-1.636 1.453-3.259 1.721-5.396 1.721h-2.526v-13.646zm2.624 12.243c1.672 0 3.064-.232 4.309-1.416 2.221-2.148 2.27-5.676.134-7.885-.061-.073-.134-.134-.207-.207-1.245-1.099-2.625-1.319-4.236-1.319h-1.099v10.827z" fill="#fff"/><path d="m147.868 117.455c-1.208 1.086-2.661 2.16-4.358 2.16-2.087 0-3.979-1.562-3.979-3.735 0-2.283 1.648-3.369 3.345-4.492l.158-.11c-.61-.854-1.355-1.77-1.355-2.893 0-1.721 1.282-2.893 2.991-2.893 1.538 0 2.893 1.087 2.893 2.686s-1.233 2.514-2.405 3.405l2.881 3.675 1.538-1.795 1.098.903-1.733 2.027 2.319 2.99h-1.916l-1.465-1.916zm-4.59-4.614c-1.037.708-2.258 1.538-2.258 2.929 0 1.282 1.123 2.466 2.405 2.466 1.379 0 2.563-1.062 3.552-1.917l-3.039-3.906-.647.44zm1.136-2.454c.781-.598 1.708-1.123 1.708-2.209 0-.83-.683-1.392-1.489-1.392-.805 0-1.489.647-1.501 1.465v.037c0 .683.452 1.196.83 1.733l.329.452.123-.098z" fill="#fff"/><g fill="#010101"><path d="m54.0622 149.215 3.3201 7.666 3.3323-7.666 1.8554 9.656h-1.0498l-1.1718-6.177h-.0244l-2.9417 6.555-2.9295-6.555h-.0245l-1.1718 6.177h-1.0375l1.8554-9.656z"/><path d="m66.1709 156.271-1.0986 2.588h-1.1108l4.2112-9.57 4.1014 9.57h-1.123l-1.0742-2.588zm1.9774-4.602-1.5624 3.662h3.0882z"/><path d="m74.4224 149.338 7.1285 7.458v-7.068h1.0131v9.546l-7.1285-7.446v7.031h-1.0131z"/><path d="m86.9096 156.271-1.0986 2.588h-1.1108l4.2112-9.57 4.1013 9.57h-1.123l-1.0741-2.588zm1.9774-4.602-1.5624 3.662h3.0882z"/><path d="m103.596 154.281c.024 1.233-.11 2.258-.94 3.222-.855.965-2.088 1.526-3.3815 1.526-2.6122.037-4.7483-2.063-4.7849-4.663-.0366-2.612 2.0629-4.748 4.6628-4.784h.1709c1.5987 0 2.8927.72 3.8697 1.977l-.733.696c-.769-1.074-1.794-1.721-3.1367-1.721-2.0873 0-3.7351 1.757-3.7351 3.82 0 .965.3784 1.88 1.0497 2.576.6714.671 1.6357 1.159 2.5878 1.159 1.5863 0 3.2593-1.159 3.2593-2.856h-2.71v-.94h3.821z"/><path d="m106.11 149.728h4.736v.94h-3.723v2.71h3.601v.94h-3.601v3.589h3.723v.939h-4.736v-9.13z"/><path d="m114.862 149.215 3.32 7.666 3.332-7.666 1.856 9.656h-1.038l-1.172-6.177h-.024l-2.942 6.555-2.929-6.555h-.025l-1.171 6.177h-1.038l1.855-9.656z"/><path d="m125.604 149.728h4.736v.94h-3.723v2.71h3.613v.94h-3.613v3.589h3.723v.939h-4.736v-9.13z"/><path d="m133.22 149.338 7.129 7.458v-7.068h1.013v9.546l-7.128-7.446v7.031h-1.014z"/><path d="m146.757 158.859h-1.013v-8.191h-2.197v-.94h5.456v.94h-2.234v8.191z"/></g><path d="m54.8921 95.886h-1.5258v-13.6467h1.5258z" fill="#fff"/><path d="m59.7502 81.6533 10.644 11.1566v-10.5707h1.5136v14.2693l-10.644-11.1322v10.5218h-1.5258v-14.2326h.0122z" fill="#fff"/><path d="m82.9302 84.9003c-.5493-.9399-1.1963-1.4892-2.3559-1.4892s-2.2581.8666-2.2581 2.1239c0 1.1718 1.2084 1.7211 2.1361 2.1361l.9032.4028c1.77.7812 3.2714 1.6601 3.2714 3.845 0 2.3803-1.9164 4.2112-4.2967 4.2112-2.1971 0-3.8206-1.4159-4.26-3.5276l1.4892-.415c.1953 1.3915 1.2694 2.5389 2.7342 2.5389s2.8075-1.123 2.8075-2.661-1.2451-2.1361-2.5146-2.7098l-.83-.3662c-1.599-.7202-2.9661-1.538-2.9661-3.491 0-2.1239 1.7943-3.4788 3.8206-3.4788 1.4891-.0244 2.8562.8056 3.5276 2.1239l-1.2084.7812z" fill="#fff"/><path d="m92.4756 95.886h-1.5136v-12.243h-3.2957v-1.4159h8.1416v1.4159h-3.3323z" fill="#fff"/><path d="m100.91 95.886h-1.5256v-13.6467h1.5256z" fill="#fff"/><path d="m109.296 95.886h-1.526v-12.243h-3.296v-1.4159h8.154v1.4159h-3.332z" fill="#fff"/><path d="m117.67 90.3687c0 1.0131-.037 2.1727.598 3.0394.598.83 1.757 1.3061 2.746 1.3061s2.002-.4517 2.686-1.2085c.732-.8666.671-2.0629.671-3.137v-8.1294h1.526v8.5444c0 1.4892-.11 2.661-1.197 3.784-.952 1.0009-2.282 1.5624-3.674 1.5624-1.318 0-2.575-.4883-3.527-1.3915-1.197-1.1352-1.343-2.3803-1.343-3.9427v-8.5444h1.526v8.1294z" fill="#fff"/><path d="m134.197 95.886h-1.526v-12.243h-3.296v-1.4159h8.154v1.4159h-3.332z" fill="#fff"/><path d="m141.081 82.2393h7.08v1.4159h-5.554v4.0525h5.395v1.4159h-5.395v5.3586h5.554v1.416h-7.08v-13.6467z" fill="#fff"/></g></svg>