<svg width="212" height="212" viewBox="0 0 212 212" fill="none" xmlns="http://www.w3.org/2000/svg">
<g clip-path="url(#clip0_142_2411)">
<path d="M206 0H6C2.68629 0 0 2.68629 0 6V206C0 209.314 2.68629 212 6 212H206C209.314 212 212 209.314 212 206V6C212 2.68629 209.314 0 206 0Z" fill="#F5F5F5"/>
<path d="M178.51 76.6201H36.73V136.43H178.51V76.6201Z" fill="black"/>
<path d="M48.97 122.61C48.26 122.61 47.69 122.61 47.22 122.59V123.89C47.67 123.89 48.19 123.87 48.8 123.87C49.15 123.87 49.15 124.08 49.15 124.27V124.39C49.15 124.56 49.15 124.79 48.8 124.79C48.16 124.79 47.67 124.77 47.22 124.77V126.9C47.22 127.16 47.1 127.28 46.87 127.28H46.49C46.21 127.28 46.06 127.21 46.06 126.9V122.01C46.06 121.67 46.3 121.66 46.49 121.66H48.97C49.16 121.66 49.35 121.71 49.35 122.01V122.25C49.33 122.42 49.3 122.63 48.97 122.63" fill="white"/>
<path d="M51.03 127.26H50.72C50.41 127.26 50.27 127.21 50.27 126.88V121.85C50.27 121.57 50.39 121.5 50.65 121.5H51.03C51.21 121.5 51.36 121.63 51.37 121.81V126.89C51.37 127.13 51.32 127.27 51.03 127.27" fill="white"/>
<path d="M53.36 122.63H53.02C52.71 122.63 52.57 122.58 52.57 122.25V121.97C52.57 121.69 52.69 121.59 52.95 121.59H53.35C53.54 121.59 53.69 121.74 53.69 121.93V122.25C53.71 122.49 53.62 122.63 53.35 122.63M53.35 127.26H53.01C52.7 127.26 52.56 127.21 52.56 126.88V123.59C52.56 123.31 52.68 123.21 52.94 123.21H53.34C53.53 123.21 53.68 123.36 53.68 123.55V126.87C53.71 127.11 53.62 127.25 53.36 127.25H53.35V127.26Z" fill="white"/>
<path d="M59.95 127.26H59.64C59.33 127.26 59.19 127.21 59.19 126.88V124.71C59.21 124.51 59.19 124.31 59.14 124.12C59.12 124.03 59.07 124 59 124C58.72 124 58.39 124.26 58.16 124.45V126.88C58.16 127.12 58.09 127.26 57.82 127.26H57.51C57.2 127.26 57.06 127.21 57.06 126.88V124.71C57.08 124.51 57.06 124.31 57.01 124.12C56.99 124.03 56.94 124 56.87 124C56.59 124 56.26 124.26 56.03 124.45V126.88C56.03 127.12 55.96 127.26 55.69 127.26H55.24C54.96 127.26 54.9 127.14 54.9 126.88V123.59C54.9 123.31 55.02 123.24 55.28 123.24H55.66C55.85 123.24 55.87 123.31 55.94 123.5C56.3 123.27 56.72 123.14 57.15 123.12C57.49 123.1 57.81 123.27 57.98 123.57C58.37 123.3 58.83 123.14 59.3 123.12C60.01 123.12 60.29 123.64 60.29 124.3V126.9C60.27 127.11 60.22 127.25 59.94 127.25" fill="white"/>
<path d="M62.98 127.35C62.44 127.35 62.03 127.33 61.75 127.3C61.56 127.28 61.51 127.28 61.51 126.92C61.49 126.78 61.51 126.63 61.56 126.49C61.58 126.42 61.65 126.4 61.75 126.4C62.19 126.46 62.63 126.49 63.07 126.49C63.42 126.49 63.5 126.44 63.5 126.18C63.5 126.04 63.5 125.94 63.45 125.9C63.33 125.78 62.55 125.64 62.01 125.38C61.58 125.17 61.4 124.93 61.4 124.43C61.4 123.98 61.49 123.67 61.71 123.48C62.02 123.17 62.51 123.14 63.34 123.14C63.55 123.14 63.77 123.14 63.98 123.16C64.29 123.18 64.41 123.25 64.41 123.56C64.41 123.68 64.41 123.8 64.39 123.91C64.34 124.02 64.23 124.09 64.11 124.08C63.92 124.08 63.57 124.01 62.98 124.01C62.55 124.01 62.48 124.03 62.48 124.35C62.48 124.44 62.48 124.47 62.53 124.52C62.62 124.64 63.33 124.83 63.62 124.9C64.28 125.11 64.61 125.33 64.61 126.08C64.61 127.07 64.23 127.33 63 127.33" fill="white"/>
<path d="M70.54 127.26H68.15C67.87 127.26 67.72 127.19 67.72 126.88V121.99C67.72 121.65 67.96 121.64 68.15 121.64H68.53C68.84 121.64 68.88 121.81 68.88 121.99V126.31C69.35 126.31 69.87 126.29 70.56 126.29C70.91 126.29 70.94 126.5 70.94 126.69V126.93C70.93 127.13 70.75 127.28 70.55 127.27H70.53" fill="white"/>
<path d="M74.67 127.26H74.2C74.03 127.26 73.94 127.19 73.94 126.95C73.56 127.21 73.12 127.35 72.66 127.35C71.83 127.35 71.43 126.92 71.43 126.1C71.43 125.13 72.07 124.87 72.82 124.78C73.18 124.74 73.54 124.71 73.91 124.71C73.93 124.5 73.91 124.29 73.84 124.1C73.77 123.96 73.62 123.88 73.46 123.89C73.05 123.92 72.64 123.97 72.23 124.06C72.18 124.06 72.14 124.08 72.06 124.08C71.87 124.1 71.75 124.03 71.75 123.82V123.58C71.72 123.42 71.83 123.26 71.99 123.23C72.45 123.12 72.91 123.07 73.38 123.06C73.72 123.06 74.3 123.11 74.61 123.44C74.85 123.72 74.95 123.96 74.95 124.81V126.84C75.02 127.15 74.95 127.27 74.67 127.27M73.97 125.48C73.83 125.48 73.69 125.46 73.54 125.46C72.74 125.46 72.5 125.55 72.5 126C72.5 126.34 72.59 126.57 72.81 126.57C73.23 126.57 73.63 126.41 73.94 126.14V125.48H73.97Z" fill="white"/>
<path d="M79.22 127.26H78.75C78.58 127.26 78.49 127.19 78.49 126.95C78.11 127.21 77.67 127.35 77.21 127.35C76.38 127.35 75.98 126.92 75.98 126.1C75.98 125.13 76.62 124.87 77.37 124.78C77.73 124.74 78.09 124.71 78.46 124.71C78.48 124.5 78.46 124.29 78.39 124.1C78.32 123.96 78.17 123.88 78.01 123.89C77.6 123.92 77.19 123.97 76.78 124.06C76.73 124.06 76.69 124.08 76.61 124.08C76.42 124.1 76.3 124.03 76.3 123.82V123.58C76.27 123.42 76.38 123.26 76.54 123.23C77 123.12 77.46 123.07 77.93 123.06C78.27 123.06 78.85 123.11 79.16 123.44C79.4 123.72 79.5 123.96 79.5 124.81V126.84C79.55 127.15 79.48 127.27 79.22 127.27M78.49 125.48C78.35 125.48 78.21 125.46 78.06 125.46C77.26 125.46 77.02 125.55 77.02 126C77.02 126.34 77.11 126.57 77.33 126.57C77.75 126.57 78.15 126.41 78.46 126.14V125.48H78.49Z" fill="white"/>
<path d="M84.13 127.26H83.61C83.42 127.26 83.35 127.24 83.27 127.09L82.49 125.93L81.69 127.11C81.62 127.23 81.52 127.25 81.35 127.25H80.83C80.71 127.25 80.55 127.23 80.55 127.01C80.55 126.89 80.74 126.67 80.81 126.58L81.9 125.21L80.91 123.89C80.67 123.58 80.65 123.49 80.65 123.44C80.65 123.25 80.82 123.2 80.96 123.2H81.36C81.64 123.2 81.71 123.25 81.88 123.54L82.49 124.46L83.1 123.54C83.29 123.26 83.36 123.2 83.67 123.2H84.07C84.19 123.2 84.35 123.25 84.35 123.44C84.35 123.49 84.33 123.58 84.09 123.89L83.1 125.21L84.26 126.68C84.35 126.78 84.41 126.89 84.45 127.02C84.41 127.17 84.27 127.27 84.11 127.26" fill="white"/>
<path d="M90.32 122.61C89.61 122.61 89.04 122.61 88.57 122.59V123.89C89.02 123.89 89.54 123.87 90.15 123.87C90.5 123.87 90.5 124.08 90.5 124.27V124.39C90.5 124.56 90.5 124.79 90.15 124.79C89.51 124.79 89.02 124.77 88.57 124.77V126.9C88.57 127.16 88.45 127.28 88.22 127.28H87.84C87.56 127.28 87.41 127.21 87.41 126.9V122.01C87.41 121.67 87.65 121.66 87.84 121.66H90.32C90.51 121.66 90.7 121.71 90.7 122.01V122.25C90.68 122.42 90.65 122.63 90.32 122.63" fill="white"/>
<path d="M94.64 127.26H94.17C94 127.26 93.91 127.19 93.91 126.95C93.53 127.21 93.09 127.35 92.63 127.35C91.8 127.35 91.4 126.92 91.4 126.1C91.4 125.13 92.04 124.87 92.79 124.78C93.15 124.74 93.51 124.71 93.88 124.71C93.9 124.5 93.88 124.29 93.81 124.1C93.74 123.96 93.59 123.88 93.43 123.89C93.02 123.92 92.61 123.97 92.2 124.06C92.15 124.06 92.11 124.08 92.03 124.08C91.84 124.1 91.72 124.03 91.72 123.82V123.58C91.69 123.42 91.8 123.26 91.96 123.23C92.42 123.12 92.88 123.07 93.35 123.06C93.69 123.06 94.27 123.11 94.58 123.44C94.84 123.72 94.92 123.96 94.92 124.81V126.84C94.97 127.15 94.9 127.27 94.64 127.27M93.91 125.48C93.77 125.48 93.63 125.46 93.48 125.46C92.68 125.46 92.44 125.55 92.44 126C92.44 126.34 92.53 126.57 92.75 126.57C93.17 126.57 93.57 126.41 93.88 126.14V125.48H93.91Z" fill="white"/>
<path d="M96.91 127.26H96.6C96.29 127.26 96.15 127.21 96.15 126.88V121.85C96.15 121.57 96.27 121.5 96.53 121.5H96.91C97.09 121.5 97.24 121.63 97.25 121.81V126.89C97.25 127.13 97.18 127.27 96.91 127.27" fill="white"/>
<path d="M101.5 125.58H99.42C99.42 126.01 99.44 126.34 99.7 126.45C99.87 126.51 100.04 126.54 100.22 126.54C100.57 126.54 100.92 126.48 101.26 126.4C101.36 126.37 101.46 126.36 101.57 126.35C101.69 126.35 101.78 126.49 101.81 126.61C101.83 126.7 101.84 126.8 101.83 126.89C101.86 127.07 101.74 127.24 101.56 127.26H101.52C101.09 127.33 100.66 127.37 100.22 127.38C99.58 127.38 99.11 127.24 98.83 126.98C98.48 126.64 98.36 126.11 98.36 125.28C98.36 124.55 98.43 124.05 98.7 123.67C98.97 123.29 99.43 123.13 100.19 123.13C100.9 123.13 101.32 123.3 101.58 123.65C101.84 124 101.89 124.55 101.89 125.09C101.87 125.52 101.8 125.56 101.51 125.56M100.82 124.68C100.82 124.16 100.75 123.95 100.16 123.95C99.57 123.95 99.43 124.16 99.43 124.78V124.85H100.82V124.68Z" fill="white"/>
<path d="M105.21 124.1C104.8 124.08 104.39 124.2 104.05 124.44V126.9C104.05 127.14 103.98 127.28 103.71 127.28H103.37C103.06 127.28 102.92 127.23 102.92 126.9V123.6C102.92 123.32 103.04 123.25 103.3 123.25H103.7C103.86 123.25 104 123.37 104.01 123.53C104.32 123.36 104.7 123.15 105.12 123.15C105.31 123.15 105.5 123.22 105.5 123.43V123.71C105.5 123.92 105.45 124.09 105.19 124.09" fill="white"/>
<path d="M109.36 127.26H108.89C108.72 127.26 108.65 127.19 108.65 126.95C108.27 127.21 107.83 127.35 107.37 127.35C106.54 127.35 106.14 126.92 106.14 126.1C106.14 125.13 106.78 124.87 107.53 124.78C107.89 124.74 108.25 124.71 108.62 124.71C108.64 124.5 108.62 124.29 108.55 124.1C108.48 123.96 108.33 123.88 108.17 123.89C107.76 123.92 107.35 123.97 106.94 124.06C106.89 124.06 106.85 124.08 106.77 124.08C106.58 124.1 106.46 124.03 106.46 123.82V123.58C106.43 123.42 106.54 123.26 106.7 123.23C107.16 123.12 107.62 123.07 108.09 123.06C108.43 123.06 109.01 123.11 109.32 123.44C109.56 123.72 109.66 123.96 109.66 124.81V126.84C109.68 127.15 109.61 127.27 109.35 127.27M108.63 125.48C108.49 125.48 108.35 125.46 108.2 125.46C107.4 125.46 107.16 125.55 107.16 126C107.16 126.34 107.25 126.57 107.47 126.57C107.89 126.57 108.29 126.41 108.6 126.14V125.48H108.63Z" fill="white"/>
<path d="M137.01 100.72L147.79 85.8102H142.59L134.32 97.4102L125.93 85.8102H120.38L131.68 100.74L121 115.53L106.51 83.7202L91.95 115.53L77.46 83.7502L63.8 113.62H50.73V85.8002H46.05V117.77H66.68L70.93 108.44H83.76L88.01 117.77H95.69L99.94 108.44H112.77L117.02 117.77H124.39L134.27 104.4L144.69 117.77H150.43L136.99 100.71M77.46 104.39H72.78L77.44 94.1302L82.02 104.39H77.46ZM106.5 104.39H101.83L106.49 94.1302L111.07 104.39H106.5Z" fill="white"/>
</g>
<defs>
<clipPath id="clip0_142_2411">
<rect width="212" height="212" fill="white"/>
</clipPath>
</defs>
</svg>
