<svg fill="none" height="212" viewBox="0 0 212 212" width="212" xmlns="http://www.w3.org/2000/svg" xmlns:xlink="http://www.w3.org/1999/xlink"><clipPath id="a"><path d="m0 0h212v212h-212z"/></clipPath><g clip-path="url(#a)"><path d="m206 0h-200c-3.31371 0-6 2.68629-6 6v200c0 3.314 2.68629 6 6 6h200c3.314 0 6-2.686 6-6v-200c0-3.31371-2.686-6-6-6z" fill="#f5f5f5"/><path d="m178.51 76.6201h-141.78v59.8099h141.78z" fill="#000"/><g fill="#fff"><path d="m48.97 122.61c-.71 0-1.28 0-1.75-.02v1.3c.45 0 .97-.02 1.58-.02.35 0 .35.21.35.4v.12c0 .17 0 .4-.35.4-.64 0-1.13-.02-1.58-.02v2.13c0 .26-.12.38-.35.38h-.38c-.28 0-.43-.07-.43-.38v-4.89c0-.34.24-.35.43-.35h2.48c.19 0 .38.05.38.35v.24c-.02.17-.05.38-.38.38"/><path d="m51.03 127.26h-.31c-.31 0-.45-.05-.45-.38v-5.03c0-.28.12-.35.38-.35h.38c.18 0 .33.13.34.31v5.08c0 .24-.05.38-.34.38"/><path d="m53.36 122.63h-.34c-.31 0-.45-.05-.45-.38v-.28c0-.28.12-.38.38-.38h.4c.19 0 .34.15.34.34v.32c.02.24-.07.38-.34.38m0 4.63h-.34c-.31 0-.45-.05-.45-.38v-3.29c0-.28.12-.38.38-.38h.4c.19 0 .34.15.34.34v3.32c.03.24-.06.38-.32.38h-.01z"/><path d="m59.95 127.26h-.31c-.31 0-.45-.05-.45-.38v-2.17c.02-.2 0-.4-.05-.59-.02-.09-.07-.12-.14-.12-.28 0-.61.26-.84.45v2.43c0 .24-.07.38-.34.38h-.31c-.31 0-.45-.05-.45-.38v-2.17c.02-.2 0-.4-.05-.59-.02-.09-.07-.12-.14-.12-.28 0-.61.26-.84.45v2.43c0 .24-.07.38-.34.38h-.45c-.28 0-.34-.12-.34-.38v-3.29c0-.28.12-.35.38-.35h.38c.19 0 .21.07.28.26.36-.23.78-.36 1.21-.38.34-.02.66.15.83.45.39-.27.85-.43 1.32-.45.71 0 .99.52.99 1.18v2.6c-.02.21-.07.35-.35.35"/><path d="m62.98 127.35c-.54 0-.95-.02-1.23-.05-.19-.02-.24-.02-.24-.38-.02-.14 0-.29.05-.43.02-.07.09-.09.19-.09.44.06.88.09 1.32.09.35 0 .43-.05.43-.31 0-.14 0-.24-.05-.28-.12-.12-.9-.26-1.44-.52-.43-.21-.61-.45-.61-.95 0-.45.09-.76.31-.95.31-.31.8-.34 1.63-.34.21 0 .43 0 .64.02.31.02.43.09.43.4 0 .12 0 .24-.02.35-.05.11-.16.18-.28.17-.19 0-.54-.07-1.13-.07-.43 0-.5.02-.5.34 0 .09 0 .12.05.17.09.12.8.31 1.09.38.66.21.99.43.99 1.18 0 .99-.38 1.25-1.61 1.25"/><path d="m70.54 127.26h-2.39c-.28 0-.43-.07-.43-.38v-4.89c0-.34.24-.35.43-.35h.38c.31 0 .35.17.35.35v4.32c.47 0 .99-.02 1.68-.02.35 0 .38.21.38.4v.24c-.01.2-.19.35-.39.34h-.02"/><path d="m74.67 127.26h-.47c-.17 0-.26-.07-.26-.31-.38.26-.82.4-1.28.4-.83 0-1.23-.43-1.23-1.25 0-.97.64-1.23 1.39-1.32.36-.04.72-.07 1.09-.07.02-.21 0-.42-.07-.61-.07-.14-.22-.22-.38-.21-.41.03-.82.08-1.23.17-.05 0-.09.02-.17.02-.19.02-.31-.05-.31-.26v-.24c-.03-.16.08-.32.24-.35.46-.11.92-.16 1.39-.17.34 0 .92.05 1.23.38.24.28.34.52.34 1.37v2.03c.07.31 0 .43-.28.43m-.7-1.79c-.14 0-.28-.02-.43-.02-.8 0-1.04.09-1.04.54 0 .34.09.57.31.57.42 0 .82-.16 1.13-.43v-.66z"/><path d="m79.22 127.26h-.47c-.17 0-.26-.07-.26-.31-.38.26-.82.4-1.28.4-.83 0-1.23-.43-1.23-1.25 0-.97.64-1.23 1.39-1.32.36-.04.72-.07 1.09-.07.02-.21 0-.42-.07-.61-.07-.14-.22-.22-.38-.21-.41.03-.82.08-1.23.17-.05 0-.09.02-.17.02-.19.02-.31-.05-.31-.26v-.24c-.03-.16.08-.32.24-.35.46-.11.92-.16 1.39-.17.34 0 .92.05 1.23.38.24.28.34.52.34 1.37v2.03c.05.31-.02.43-.28.43m-.73-1.79c-.14 0-.28-.02-.43-.02-.8 0-1.04.09-1.04.54 0 .34.09.57.31.57.42 0 .82-.16 1.13-.43v-.66z"/><path d="m84.13 127.26h-.52c-.19 0-.26-.02-.34-.17l-.78-1.16-.8 1.18c-.07.12-.17.14-.34.14h-.52c-.12 0-.28-.02-.28-.24 0-.12.19-.34.26-.43l1.09-1.37-.99-1.32c-.24-.31-.26-.4-.26-.45 0-.19.17-.24.31-.24h.4c.28 0 .35.05.52.34l.61.92.61-.92c.19-.28.26-.34.57-.34h.4c.12 0 .28.05.28.24 0 .05-.02.14-.26.45l-.99 1.32 1.16 1.47c.09.1.15.21.19.34-.04.15-.18.25-.34.24"/><path d="m90.32 122.61c-.71 0-1.28 0-1.75-.02v1.3c.45 0 .97-.02 1.58-.02.35 0 .35.21.35.4v.12c0 .17 0 .4-.35.4-.64 0-1.13-.02-1.58-.02v2.13c0 .26-.12.38-.35.38h-.38c-.28 0-.43-.07-.43-.38v-4.89c0-.34.24-.35.43-.35h2.48c.19 0 .38.05.38.35v.24c-.02.17-.05.38-.38.38"/><path d="m94.64 127.26h-.47c-.17 0-.26-.07-.26-.31-.38.26-.82.4-1.28.4-.83 0-1.23-.43-1.23-1.25 0-.97.64-1.23 1.39-1.32.36-.04.72-.07 1.09-.07.02-.21 0-.42-.07-.61-.07-.14-.22-.22-.38-.21-.41.03-.82.08-1.23.17-.05 0-.09.02-.17.02-.19.02-.31-.05-.31-.26v-.24c-.03-.16.08-.32.24-.35.46-.11.92-.16 1.39-.17.34 0 .92.05 1.23.38.26.28.34.52.34 1.37v2.03c.05.31-.02.43-.28.43m-.73-1.79c-.14 0-.28-.02-.43-.02-.8 0-1.04.09-1.04.54 0 .34.09.57.31.57.42 0 .82-.16 1.13-.43v-.66z"/><path d="m96.91 127.26h-.31c-.31 0-.45-.05-.45-.38v-5.03c0-.28.12-.35.38-.35h.38c.18 0 .33.13.34.31v5.08c0 .24-.07.38-.34.38"/><path d="m101.5 125.58h-2.08c0 .43.02.76.28.87.17.06.34.09.52.09.35 0 .7-.06 1.04-.14.1-.03.2-.04.31-.05.12 0 .21.14.24.26.02.09.03.19.02.28.03.18-.09.35-.27.37h-.04c-.43.07-.86.11-1.3.12-.64 0-1.11-.14-1.39-.4-.35-.34-.47-.87-.47-1.7 0-.73.07-1.23.34-1.61s.73-.54 1.49-.54c.71 0 1.13.17 1.39.52s.31.9.31 1.44c-.02.43-.09.47-.38.47m-.69-.88c0-.52-.07-.73-.66-.73s-.73.21-.73.83v.07h1.39z"/><path d="m105.21 124.1c-.41-.02-.82.1-1.16.34v2.46c0 .24-.07.38-.34.38h-.34c-.31 0-.45-.05-.45-.38v-3.3c0-.28.12-.35.38-.35h.4c.16 0 .3.12.31.28.31-.17.69-.38 1.11-.38.19 0 .38.07.38.28v.28c0 .21-.05.38-.31.38"/><path d="m109.36 127.26h-.47c-.17 0-.24-.07-.24-.31-.38.26-.82.4-1.28.4-.83 0-1.23-.43-1.23-1.25 0-.97.64-1.23 1.39-1.32.36-.04.72-.07 1.09-.07.02-.21 0-.42-.07-.61-.07-.14-.22-.22-.38-.21-.41.03-.82.08-1.23.17-.05 0-.09.02-.17.02-.19.02-.31-.05-.31-.26v-.24c-.03-.16.08-.32.24-.35.46-.11.92-.16 1.39-.17.34 0 .92.05 1.23.38.24.28.34.52.34 1.37v2.03c.02.31-.05.43-.31.43m-.72-1.79c-.14 0-.28-.02-.43-.02-.8 0-1.04.09-1.04.54 0 .34.09.57.31.57.42 0 .82-.16 1.13-.43v-.66z"/><path d="m137.01 100.72 10.78-14.9098h-5.2l-8.27 11.6-8.39-11.6h-5.55l11.3 14.9298-10.68 14.79-14.49-31.8098-14.56 31.8098-14.49-31.7798-13.66 29.8698h-13.07v-27.8198h-4.68v31.9698h20.63l4.25-9.33h12.83l4.25 9.33h7.68l4.25-9.33h12.83l4.25 9.33h7.37l9.88-13.37 10.42 13.37h5.74l-13.44-17.06m-59.53 3.68h-4.68l4.66-10.2598 4.58 10.2598zm29.04 0h-4.67l4.66-10.2598 4.58 10.2598z"/></g></g></svg>