<svg fill="none" height="212" viewBox="0 0 212 212" width="212" xmlns="http://www.w3.org/2000/svg" xmlns:xlink="http://www.w3.org/1999/xlink"><clipPath id="a"><path d="m0 0h212v212h-212z"/></clipPath><g clip-path="url(#a)"><path d="m206 0h-200c-3.31371 0-6 2.68629-6 6v200c0 3.314 2.68629 6 6 6h200c3.314 0 6-2.686 6-6v-200c0-3.31371-2.686-6-6-6z" fill="#f5f5f5"/><g fill="#010101"><path d="m118.38 102.62c2.24 5.01-13.79 2.38-22.7001 6.37-8.9 3.99-7.3 13.07-9.54 8.06-2.85-6.37 3.27-12.34 12.06-16.27.8-.35 1.6-.68 2.3901-.96.53-.47.66-1.1.29-1.93-2.2401-5-11.2701-5.83-20.1701-1.84-6.69 3-11.84 7.16-12.66 11.8-2.4-.02-8.08-.96-4.44-9.73 1.34-2.9 4.29-7.58 10.42-10.19 8.98-3.82 23.15-1.36 20.91-6.36s-11.27-5.83-20.17-1.84c-3.34 1.49-6.41 3.88-8.82 6.53-.06-.06-3.45-3.15-1.85-6.04 1.72-3.11 5.18-5.28 9.3-6.49 9.36-2.75 21.94-.47 19.7-5.48s-11.27-5.83-20.17-1.85c-1.67.75-3.27 1.64-4.79 2.67-1.15-1.8-2.38-3.81-1.98-5.8 1.09-5.49 11.82-1.82 13.45-8.54 1.62-6.72 10.36-7.89 14.97-4.22 8.3001-.44 19.2801-1.6 23.6201 2.19 6.83 5.97 15.94 5.04 23.46 8.57-.18 5.89 6.06 12.9-.05 17.63.62 2.42 8.3 1.53 10.23.93-.31 3.44-8.49 4.37-11.37 5.49 2.03 1.37 2.14 3.32-.23 4.91-2.34 2.09-.41 3.23-.08 6.41.29 2.84-.27 5.37-2.62 7.45-2.02 2.24-6.91 3.69-11.45.89-2-1.23-4.35-2.59-8.38-3.54.27.35.5.74.69 1.15m-21.0501-41.14c0 2.88-.19 1.05-.14 4.88 0 0 .38 1.84.78 5.71 1.31 12.98 12.5801 29.4 36.3301 24.97l.22-.1-.1-1.96-.28-.19c-3.58-.75-21.3-5-20.39-15.68-.07-1.33.36-2.64 1.19-3.68 3.17-5.06 7.95-7.27 13.84-7.09l8.38 1.03c1.8-3.03-4.09-3.22-1.29-5.81-3.03-1.8-8.92-1.98-10.8-.41-.41 1.5 1.15 2.88-.8 3.47-3.44-.31-1.77-5.78-6.14-5.07l.67 3.4c-2.52-1.34-7.43-1.57-8.08-4.48 1.91-1.08 3.82-1.67 5.71-3.24-6.58-4.06-20.7101-.87-22.1601-1.84-2.63-1.76-8-2.54-8.26.98-.23 3.2 2.4 3.78 6.83 4.56l4.48.53v.02zm33.4401 26.36c2.39-1.11 6.3-1.31 7.12-4.29-5.43-.7-10.87-1.88-16.15.35 2.09 2.34 5.56 3.14 9.02 3.94m-9.33-9.42c5.86-1.81 12.47-1.03 16.95.2l-.28-.48c-1.59-2.37-3.13-4.8-6.63-5.04-2.93.15-3.67.27-7.6 3.11l-2.44 2.2z"/><path d="m42.1799 126.83c-.18-1.56-1.03-2.81-2.81-2.81-1.29 0-2.46.67-2.46 2.32 0 1.56 1.56 2.5 3.8 4.17 2.37 1.76 3.13 2.9 3.13 4.75 0 2.66-2.72 4.13-5.4 4.13-1.31 0-2.6-.24-3.82-.71-.11-.06-.17-.19-.16-.31v-3.21h.58c.24 2.48 1.87 3.46 3.59 3.46 1.56.03 2.85-1.2 2.88-2.76v-.07c0-1.45-.78-2.64-4.13-4.85-1.21-.8-2.7-1.67-2.7-4.11 0-2.01 2.23-3.59 4.8-3.59.96 0 2.23.11 3.13.42.11.03.17.14.15.24v2.92h-.58z"/><path d="m48.45 133.96-1.03 2.99c-.29.87.14 1.61 1.12 1.61v.57h-4.06v-.57c.6 0 1.25-.38 1.61-1.12.96-1.96 3.57-9.26 5.42-14.19h1.25c1.52 4.49 3.8 11.36 4.55 13.35.49 1.25.85 1.96 1.81 1.96v.57h-5.2v-.57c1.41 0 1.54-.74 1.18-1.72l-.96-2.88h-5.7zm5.4-.85-2.37-7.26h-.04l-2.66 7.26z"/><path d="m64.72 133.96-1.03 2.99c-.29.87.13 1.61 1.12 1.61v.57h-4.06v-.57c.6 0 1.25-.38 1.61-1.12.96-1.96 3.57-9.26 5.42-14.19h1.25c1.53 4.49 3.8 11.36 4.56 13.35.49 1.25.85 1.96 1.81 1.96v.57h-5.2v-.57c1.41 0 1.54-.74 1.18-1.72l-.96-2.88zm5.41-.85-2.37-7.26h-.04l-2.66 7.26z"/><path d="m77.3799 138.55c2.01-.24 1.92-.13 1.92-2.21v-10.04c0-2.08.09-1.97-1.92-2.21v-.57h6v.57c-2.01.24-1.91.13-1.91 2.21v10.4c0 1.56.87 1.72 2.87 1.72 3.23 0 3.1-.92 4.13-3.3h.56l-.67 4.01h-10.98z"/><path d="m95.4999 131.05h2.12c1.41 0 2.01-.56 2.06-1.94h.5701v4.78h-.5701c-.07-1.32-.56-2.12-2.06-2.12h-2.12v4.58c0 2.08-.09 1.96 1.92 2.21v.57h-6.01v-.57c2.01-.25 1.91-.13 1.91-2.21v-10.05c0-2.07.09-1.96-1.91-2.21v-.57h9.9701v3.59h-.57c-.29-1.65-.67-2.88-2.2801-2.88h-3.04v6.82z"/><path d="m103.69 138.55c2.01-.24 1.92-.13 1.92-2.21v-10.04c0-2.08.09-1.97-1.92-2.21v-.57h9.98v3.59h-.57c-.22-1.65-.67-2.88-2.28-2.88h-3.04v6.38h1.88c1.41 0 2.01-.56 2.05-1.94h.57v4.75h-.57c-.04-1.32-.56-2.1-2.05-2.1h-1.88v5.04c0 1.9.87 2.05 2.88 2.05 3.25 0 3.08-.92 4.11-3.3h.57l-.67 4.01h-10.98v-.58z"/><path d="m117.75 138.55c2.01-.24 1.92-.13 1.92-2.21v-10.04c0-2.08.09-1.97-1.92-2.21v-.57h6.01v.57c-2.01.24-1.92.13-1.92 2.21v10.4c0 1.56.87 1.72 2.87 1.72 3.24 0 3.1-.92 4.13-3.3h.56l-.67 4.01h-10.97v-.58z"/><path d="m131.35 123.51h7.41c5.4 0 8.17 2.77 8.17 7.36s-3.28 8.26-8.82 8.26h-6.76v-.57c2.01-.25 1.91-.13 1.91-2.21v-10.05c0-2.07.09-1.97-1.91-2.21zm4.08 12.45c0 2.43.56 2.46 2.67 2.46 3.52 0 6.27-1.88 6.27-7.5 0-4.24-2.28-6.69-6.56-6.69h-2.38z"/><path d="m148.56 138.55c2.01-.24 1.92-.13 1.92-2.21v-10.04c0-2.08.09-1.97-1.92-2.21v-.57h9.98v3.59h-.57c-.22-1.65-.67-2.88-2.28-2.88h-3.04v6.38h1.87c1.41 0 2.01-.56 2.06-1.94h.57v4.75h-.57c-.05-1.32-.56-2.1-2.06-2.1h-1.87v5.04c0 1.9.87 2.05 2.88 2.05 3.24 0 3.08-.92 4.11-3.3h.57l-.67 4.01h-10.97v-.58h-.01z"/><path d="m176.37 139.13c-3.55-4.2-7.23-8.6-10.87-12.88v9.87c.02.41.06.81.13 1.21.11.8.87 1.11 2.34 1.23v.57h-5.47v-.57c1.07-.11 1.81-.42 1.92-1.23.07-.4.12-.8.13-1.21v-10.51c-.62-.8-1.32-1.52-2.59-1.52v-.57h4.06c3.33 4.04 6.79 8.15 10.11 12.19h.04v-9.2c-.02-.4-.06-.81-.13-1.2-.11-.8-.87-1.12-2.34-1.23v-.57h5.47v.57c-1.05.11-1.81.42-1.91 1.23-.07.4-.12.8-.13 1.2v12.61h-.77.01z"/><path d="m50.8799 162.14c2.01-.24 1.92-.13 1.92-2.21v-10.04c0-2.08.09-1.97-1.92-2.21v-.57h6.01v.57c-2.01.24-1.92.13-1.92 2.21v10.4c0 1.56.87 1.72 2.87 1.72 3.23 0 3.1-.92 4.13-3.3h.56l-.67 4.01h-10.97v-.57h-.01z"/><path d="m64.48 162.14c2.01-.24 1.92-.13 1.92-2.21v-10.04c0-2.08.09-1.97-1.92-2.21v-.57h9.98v3.59h-.57c-.22-1.65-.67-2.88-2.28-2.88h-3.04v6.38h1.88c1.41 0 2.01-.56 2.05-1.94h.57v4.75h-.57c-.05-1.32-.56-2.1-2.05-2.1h-1.88v5.04c0 1.9.87 2.06 2.88 2.06 3.24 0 3.08-.92 4.11-3.3h.57l-.67 4.01h-10.98z"/><path d="m77.8199 155.2c0-4.82 3.75-8.37 8.39-8.37s7.66 4.17 7.66 7.61c0 4.71-3.5299 8.55-8.4599 8.55-4.26 0-7.5901-3.46-7.5901-7.79zm13.51-.09c0-5.34-2.8799-7.5-5.6-7.5-3.79 0-5.35 3.39-5.35 6.43 0 5.4 2.77 8.17 5.65 8.17 4.15 0 5.31-4.11 5.31-7.1"/><path d="m96.1299 154.82c0-3.44 2.9-7.99 8.9301-7.99 2.16 0 3.19.4 4.28.76.62.2.87.51.87.87v2.88h-.57c-.06-1.78-1.2-3.73-4.75-3.73-4.67 0-6.1801 3.22-6.2001 7.03-.02 3.53 1.7601 7.57 6.3001 7.57 2.79 0 3.04-1.03 3.04-2.77v-1.36c0-2.08.09-1.97-2.37-2.21v-.57h6.44v.57c-2.01.24-1.91.13-1.91 2.21v3.88c-1.7.67-3.52 1.02-5.35 1.03-4.58 0-8.7101-2.19-8.7101-8.17z"/><path d="m116.55 157.54-1.02 2.99c-.29.87.13 1.61 1.12 1.61v.57h-4.07v-.57c.6 0 1.25-.38 1.61-1.12.96-1.96 3.57-9.26 5.42-14.2h1.25c1.53 4.49 3.8 11.36 4.55 13.35.49 1.25.85 1.96 1.81 1.96v.57h-5.2v-.57c1.41 0 1.54-.74 1.18-1.72l-.96-2.88h-5.7zm5.4-.84-2.37-7.26h-.05l-2.66 7.26z"/><path d="m142.51 162.72c-3.55-4.2-7.23-8.6-10.87-12.88v9.87c.02.4.06.81.13 1.21.11.8.87 1.12 2.35 1.23v.57h-5.47v-.57c1.07-.11 1.81-.42 1.92-1.23.07-.4.12-.8.13-1.21v-10.51c-.62-.8-1.32-1.52-2.59-1.52v-.57h4.06c3.33 4.04 6.79 8.15 10.11 12.19h.05v-9.17c-.02-.4-.06-.81-.14-1.2-.11-.8-.87-1.12-2.34-1.23v-.57h5.48v.57c-1.05.11-1.81.42-1.91 1.23-.07.4-.12.8-.13 1.2v12.61z"/><path d="m146.37 154.82c0-3.44 2.9-7.99 8.93-7.99 2.16 0 3.19.4 4.28.76.63.2.87.51.87.87v2.88h-.57c-.06-1.78-1.2-3.73-4.75-3.73-4.67 0-6.18 3.22-6.21 7.03-.02 3.53 1.76 7.57 6.3 7.57 2.79 0 3.04-1.03 3.04-2.77v-1.36c0-2.08.09-1.97-2.37-2.21v-.57h6.44v.57c-2.01.24-1.91.13-1.91 2.21v3.88c-1.7.67-3.52 1.02-5.35 1.03-4.57 0-8.7-2.19-8.7-8.17z"/></g></g></svg>