<svg fill="none" height="212" viewBox="0 0 212 212" width="212" xmlns="http://www.w3.org/2000/svg" xmlns:xlink="http://www.w3.org/1999/xlink"><clipPath id="a"><path d="m0 0h212v212h-212z"/></clipPath><mask id="b" height="91" maskUnits="userSpaceOnUse" width="91" x="61" y="49"><path d="m106.85 139.99c24.875 0 45.04-20.165 45.04-45.0401 0-24.8749-20.165-45.04-45.04-45.04-24.8749 0-45.04 20.1651-45.04 45.04 0 24.8751 20.1651 45.0401 45.04 45.0401z" fill="#fff"/></mask><g clip-path="url(#a)"><path d="m206 0h-200c-3.31371 0-6 2.68629-6 6v200c0 3.314 2.68629 6 6 6h200c3.314 0 6-2.686 6-6v-200c0-3.31371-2.686-6-6-6z" fill="#f5f5f5"/><g fill="#010101"><g mask="url(#b)"><path d="m138.49 98.0701c-7.44 6.8199-9.5 11.7799-18.81 20.8799-3.92 3.84-6.25 5.26-11.57 3.92-.62-.16-1.57-.76-2.07-1.18-.79-.68-1.03-1.78-1.19-2.81-1.02-7.18.49-14.49 4.28-20.6799l-26.42 15.5999c-.71.42-1.68.83-2.31.28-.38-.33-.45-.89-.49-1.4-.44-7.56 1.96-15.0199 6.74-20.8999-8.78 5.35-15.78 13.1899-20.11 22.5099-.1.21-.19.41-.29.63 7.59 15.61 23.43 25.52 40.78 25.52 25.04 0 45.33-20.3 45.33-45.3299 0-3.04-.3-6.06-.9-9.04-1.75 1.18-6.2 5.77-12.99 12z"/><path d="m109.43 61.92c1.69 6.18-.14 13.2-4.64 17.76-3.75 3.8-9.63 6.96-9.33 12.3 3.72.62 7.47-1.06 10.38-3.43s5.18-5.43 7.71-8.21c6.23-6.81 14.06-11.95 22.78-14.95 1.29 6.94-.51 14.1-4.93 19.6-2.27 2.79-5.16 5.05-7.27 7.96-2.1 2.91-3.34 6.88-1.75 10.11 7.66-6.04 13.82-11.8 21.48-17.84 1.56-1.24 3.91-3.24 6.21-4.37-5.98-18.05-22.97-31.07-43.03-31.07-25.04 0-45.33 20.29-45.33 45.33 0 3.76.46 7.51 1.39 11.15 2.16-5.85 6.22-10.81 10.46-15.39 10.5-11.32 22.58-21.07 35.87-28.95z"/></g><path d="m53.3 161.45v-9.74h1.03c.22-.02.42.13.45.36l.13 1c.34-.43.75-.79 1.21-1.09.47-.28 1.01-.43 1.56-.41.58-.03 1.15.17 1.59.55.43.4.73.91.88 1.48.13-.33.31-.64.54-.91.21-.25.47-.46.75-.63.27-.17.57-.29.88-.37s.63-.11.95-.11c.47 0 .93.07 1.37.24.39.16.74.4 1.02.72.29.34.51.73.64 1.16.15.51.23 1.04.22 1.57v6.2h-1.72v-6.21c0-.76-.17-1.34-.5-1.73-.37-.41-.9-.63-1.45-.59-.27 0-.55.05-.8.15s-.48.25-.67.44c-.2.21-.36.45-.46.73-.12.32-.18.67-.17 1.01v6.2h-1.72v-6.2c0-.78-.16-1.37-.47-1.75-.34-.4-.85-.61-1.38-.58-.42 0-.82.12-1.17.34-.38.25-.72.56-.99.93v7.25h-1.72z"/><path d="m73.69 151.56c.55 0 1.1.09 1.62.29.49.19.92.48 1.29.85.38.39.67.86.85 1.37.21.6.32 1.23.31 1.86.02.18-.01.37-.08.54-.08.1-.2.15-.33.13h-6.51c0 .55.09 1.09.25 1.61.13.42.35.81.64 1.14.26.3.59.54.96.68.4.16.82.23 1.25.23.38 0 .75-.04 1.11-.15.28-.09.54-.19.8-.32.19-.1.38-.21.56-.32.11-.09.25-.14.39-.15.13 0 .25.06.33.16l.48.62c-.22.26-.47.49-.76.67-.3.19-.61.35-.95.47s-.69.22-1.05.27c-.35.06-.71.09-1.07.09-.64 0-1.27-.11-1.86-.34-.56-.22-1.06-.56-1.47-1-.43-.47-.76-1.03-.97-1.63-.24-.72-.36-1.47-.34-2.23 0-.65.1-1.29.31-1.9.2-.57.5-1.09.9-1.53s.89-.79 1.44-1.02c.6-.26 1.25-.38 1.9-.37zm.04 1.26c-.83 0-1.48.24-1.95.72-.51.55-.82 1.24-.89 1.98h5.33c0-.37-.05-.74-.17-1.09-.1-.32-.27-.61-.49-.86-.22-.24-.49-.43-.78-.56-.33-.14-.69-.2-1.05-.2z"/><path d="m87.48 161.45c-.22.02-.42-.14-.46-.36l-.15-1.18c-.4.49-.88.9-1.43 1.22-.56.31-1.2.47-1.84.46-.52 0-1.04-.1-1.52-.32-.46-.22-.86-.54-1.16-.95-.34-.47-.59-1-.74-1.56-.18-.7-.27-1.42-.26-2.14 0-.68.09-1.36.29-2.01.17-.58.45-1.13.83-1.61.36-.45.81-.82 1.32-1.07.55-.27 1.15-.4 1.76-.39.53 0 1.05.09 1.53.3.43.21.82.49 1.14.85v-5.4h1.71v14.16zm-3.34-1.24c.52 0 1.03-.12 1.48-.39.45-.29.84-.65 1.16-1.09v-4.71c-.27-.38-.62-.68-1.03-.89-.39-.18-.82-.26-1.25-.26-.9 0-1.6.32-2.09.97s-.73 1.57-.73 2.77c0 .55.05 1.09.16 1.63.09.4.25.78.48 1.12.2.28.47.5.79.64.33.14.68.21 1.03.21z"/><path d="m93.96 148.65c0 .16-.03.32-.1.47-.07.14-.16.27-.27.38-.23.23-.54.36-.87.36-.16 0-.32-.03-.47-.1-.14-.06-.27-.15-.38-.26s-.2-.24-.26-.38c-.06-.15-.1-.31-.1-.47s.03-.32.1-.48c.06-.15.15-.28.26-.39s.24-.2.38-.26c.15-.07.31-.1.47-.1s.32.03.48.1c.15.06.28.15.39.26s.2.25.27.39c.07.15.1.31.1.48zm-.37 3.06v9.74h-1.71v-9.74z"/><path d="m103.18 161.45c-.13 0-.27-.02-.38-.08-.11-.08-.18-.19-.21-.32l-.19-.91c-.24.22-.49.43-.76.62-.24.18-.49.34-.76.47s-.56.22-.86.29c-.33.07-.67.11-1.01.1-.36 0-.72-.05-1.07-.16-.32-.1-.62-.26-.87-.48s-.45-.49-.59-.8c-.15-.36-.23-.75-.22-1.15 0-.39.11-.78.32-1.11.26-.4.61-.73 1.03-.95.58-.32 1.21-.54 1.86-.68.92-.2 1.86-.3 2.81-.3v-.76c0-.76-.17-1.33-.49-1.72s-.81-.58-1.43-.58c-.36 0-.72.04-1.06.16-.26.09-.51.21-.74.36-.21.13-.39.25-.54.36-.13.1-.28.15-.45.16-.11 0-.21-.03-.3-.09-.08-.06-.15-.14-.21-.23l-.32-.55c.5-.49 1.09-.89 1.74-1.16.66-.26 1.36-.4 2.07-.39.5 0 .99.08 1.45.27.41.17.77.42 1.07.75.3.34.52.73.65 1.16.15.49.23.99.22 1.5v6.23h-.76zm-3.68-1.04c.28 0 .56-.03.83-.09.24-.06.48-.14.71-.26.22-.12.44-.25.63-.41.21-.17.41-.36.59-.55v-2.03c-.68.02-1.35.08-2.02.19-.47.07-.92.2-1.36.39-.3.12-.56.32-.76.57-.15.21-.24.47-.24.73 0 .23.04.45.13.67.08.18.19.33.34.46.15.12.32.21.51.26.21.06.42.09.63.09v-.02z"/><path d="m107.61 161.45v-8.28l-1.08-.12c-.12-.03-.23-.08-.33-.15-.09-.07-.14-.18-.13-.29v-.7h1.54v-.94c0-.51.07-1.01.24-1.49.14-.41.37-.78.67-1.1.3-.3.66-.53 1.05-.68.44-.16.91-.24 1.39-.23.41 0 .82.06 1.2.19l-.04.86c0 .14-.11.25-.24.25h-.01c-.16 0-.37.02-.63.02s-.54.04-.8.12c-.23.07-.45.2-.62.38-.19.19-.32.43-.4.68-.1.34-.15.69-.14 1.05v.89h2.81v1.24h-2.74v8.31h-1.74z"/><path d="m115.91 151.71v6.23c0 .74.17 1.31.5 1.71.34.41.85.61 1.54.61.49 0 .98-.12 1.41-.36.46-.25.88-.59 1.22-.99v-7.2h1.71v9.74h-1.02c-.22.02-.42-.14-.46-.36l-.13-1.05c-.41.45-.89.84-1.42 1.13-.56.29-1.18.44-1.81.43-.48 0-.96-.08-1.41-.26-.4-.17-.75-.42-1.03-.75-.29-.34-.5-.74-.62-1.16-.14-.49-.21-1-.21-1.51v-6.21z"/><path d="m131.27 153.32c-.07.13-.21.21-.36.21-.12 0-.23-.04-.33-.11-.12-.07-.27-.15-.45-.24-.2-.1-.41-.18-.63-.24-.28-.08-.57-.11-.87-.11-.26 0-.53.03-.78.11-.21.07-.41.17-.59.3-.16.12-.28.27-.38.45-.09.17-.13.36-.13.55 0 .23.07.45.22.62.16.18.36.33.57.43.26.13.53.24.81.32.3.09.61.19.93.3s.62.22.93.35c.29.12.56.28.81.48.24.19.43.43.57.71.15.31.22.66.21 1.01 0 .42-.08.85-.24 1.24-.16.38-.4.72-.71.99-.34.29-.73.52-1.15.66-.51.17-1.04.25-1.58.24-.63 0-1.26-.1-1.85-.33-.51-.2-.99-.49-1.4-.85l.41-.65c.05-.08.11-.14.18-.19.08-.05.17-.07.27-.07.13 0 .26.05.37.14.13.09.28.19.47.3.21.12.43.22.67.3.32.1.65.14.98.13.3 0 .59-.04.88-.13.23-.08.44-.2.62-.35.16-.14.29-.31.37-.51s.12-.41.12-.62c0-.24-.06-.48-.21-.67-.16-.19-.35-.34-.57-.45-.26-.13-.53-.24-.81-.33-.31-.09-.62-.19-.93-.29s-.62-.22-.93-.35c-.29-.13-.57-.29-.81-.5-.24-.2-.44-.45-.57-.74-.15-.33-.23-.7-.22-1.06 0-.76.33-1.48.9-1.98.32-.27.69-.48 1.09-.62.47-.16.97-.24 1.47-.23.59 0 1.18.09 1.73.3.49.19.94.47 1.32.83l-.39.65z"/><path d="m136.68 148.65c0 .16-.03.32-.1.47-.07.14-.16.27-.27.38-.23.23-.54.36-.87.36-.16 0-.32-.03-.47-.1-.14-.06-.27-.15-.38-.26s-.2-.24-.26-.38c-.06-.15-.1-.31-.1-.47s.03-.32.1-.48c.06-.15.15-.28.26-.39s.24-.2.38-.26c.15-.06.31-.1.47-.1s.32.03.48.1c.15.06.28.15.39.26s.2.25.27.39c.07.15.1.31.1.48zm-.37 3.06v9.74h-1.71v-9.74z"/><path d="m143.81 151.56c.66 0 1.31.11 1.92.36.55.23 1.05.57 1.46 1.01.42.46.73 1 .93 1.58.43 1.35.43 2.8 0 4.15-.2.58-.51 1.12-.93 1.58-.41.44-.91.78-1.46 1.01-1.24.47-2.62.47-3.86 0-.56-.22-1.06-.57-1.47-1.01-.42-.45-.73-.99-.93-1.58-.43-1.35-.43-2.8 0-4.15.2-.59.51-1.13.93-1.58.41-.44.91-.78 1.47-1.01.62-.25 1.27-.37 1.94-.36zm0 8.69c.96 0 1.68-.32 2.15-.97.47-.64.71-1.54.71-2.7s-.24-2.06-.71-2.71c-.48-.65-1.19-.97-2.15-.97-.44 0-.87.07-1.27.25-.36.16-.67.41-.9.72-.25.35-.44.74-.54 1.16-.12.51-.18 1.03-.18 1.55 0 1.15.24 2.05.72 2.7s1.2.97 2.18.97z"/><path d="m151.18 161.45v-9.74h1.03c.22-.02.42.14.45.36l.13 1.06c.41-.46.89-.84 1.42-1.14.56-.3 1.18-.44 1.82-.43.48 0 .96.08 1.41.26.39.17.74.42 1.02.75.28.34.49.74.62 1.17.15.49.21 1 .21 1.51v6.2h-1.72v-6.2c0-.74-.17-1.31-.51-1.72s-.85-.62-1.53-.62c-.5 0-.99.12-1.43.37-.46.26-.86.59-1.21.99v7.18h-1.72z"/></g></g></svg>