<svg fill="none" height="212" viewBox="0 0 212 212" width="212" xmlns="http://www.w3.org/2000/svg" xmlns:xlink="http://www.w3.org/1999/xlink"><clipPath id="a"><path d="m0 0h212v212h-212z"/></clipPath><g clip-path="url(#a)"><path d="m206 0h-200c-3.31371 0-6 2.68629-6 6v200c0 3.314 2.68629 6 6 6h200c3.314 0 6-2.686 6-6v-200c0-3.31371-2.686-6-6-6z" fill="#f5f5f5"/><g clip-rule="evenodd" fill="#000" fill-rule="evenodd"><path d="m181.9 87.68c-6.68-1.06-14.42-1.06-16.69-1.06-16.54.3-31.56 2.28-31.56 19.42 0 14.11 8.34 19.88 34.29 19.88 6.83 0 7.59 0 14.57-.91v-5.91c-4.05.74-8.17 1.09-12.29 1.06-6.98 0-19.87-.3-19.87-13.96 0-10.02 4.7-14.11 17.6-14.42 6.07-.15 10.32.61 13.96 1.36v-5.47h-.01z"/><path d="m86.3 87.6799v27.6201c0 5.31 4.4 9.26 11.84 9.26.15 0 5.76.15 14.42.3 6.22 0 15.48-.15 18.82-.3v-5.76h-24.58c-3.49 0-4.55-2.28-4.55-3.49v-7.75h25.65v-5.3h-25.65v-9.1101h28.38v-5.46h-44.33z"/><path d="m31.98 87.6799v36.4201h7.28v-25.8001l19.27 21.0901c2.43 2.73 4.86 4.86 8.04 4.86h13.51v-36.5701h-7.29v26.7101l-20.94-22.7601c-1.97-2.13-4.4-3.95-7.89-3.95h-11.99z"/></g></g></svg>