<svg width="212" height="212" viewBox="0 0 212 212" fill="none" xmlns="http://www.w3.org/2000/svg">
<g clip-path="url(#clip0_142_2215)">
<path d="M206 0H6C2.68629 0 0 2.68629 0 6V206C0 209.314 2.68629 212 6 212H206C209.314 212 212 209.314 212 206V6C212 2.68629 209.314 0 206 0Z" fill="#F5F5F5"/>
<path fill-rule="evenodd" clip-rule="evenodd" d="M181.9 87.68C175.22 86.62 167.48 86.62 165.21 86.62C148.67 86.92 133.65 88.9 133.65 106.04C133.65 120.15 141.99 125.92 167.94 125.92C174.77 125.92 175.53 125.92 182.51 125.01V119.1C178.46 119.84 174.34 120.19 170.22 120.16C163.24 120.16 150.35 119.86 150.35 106.2C150.35 96.18 155.05 92.09 167.95 91.78C174.02 91.63 178.27 92.39 181.91 93.14V87.67H181.9V87.68Z" fill="black"/>
<path fill-rule="evenodd" clip-rule="evenodd" d="M86.3 87.6799V115.3C86.3 120.61 90.7 124.56 98.14 124.56C98.29 124.56 103.9 124.71 112.56 124.86C118.78 124.86 128.04 124.71 131.38 124.56V118.8H106.8C103.31 118.8 102.25 116.52 102.25 115.31V107.56H127.9V102.26H102.25V93.1499H130.63V87.6899H86.3V87.6799Z" fill="black"/>
<path fill-rule="evenodd" clip-rule="evenodd" d="M31.98 87.6799V124.1H39.26V98.2999L58.53 119.39C60.96 122.12 63.39 124.25 66.57 124.25H80.08V87.6799H72.79V114.39L51.85 91.6299C49.88 89.4999 47.45 87.6799 43.96 87.6799H31.97H31.98Z" fill="black"/>
</g>
<defs>
<clipPath id="clip0_142_2215">
<rect width="212" height="212" fill="white"/>
</clipPath>
</defs>
</svg>
