<svg fill="none" height="212" viewBox="0 0 212 212" width="212" xmlns="http://www.w3.org/2000/svg" xmlns:xlink="http://www.w3.org/1999/xlink"><clipPath id="a"><path d="m0 0h212v212h-212z"/></clipPath><g clip-path="url(#a)"><path d="m206 0h-200c-3.31371 0-6 2.68629-6 6v200c0 3.314 2.68629 6 6 6h200c3.314 0 6-2.686 6-6v-200c0-3.31371-2.686-6-6-6z" fill="#f5f5f5"/><g fill="#000"><path d="m88.85 106.27c0 5.3 3.92 9.2 10.47 9.2 2.76 0 5.37-.44 8.07-1.7l2.45 3.35c-3.39 1.79-6.65 2.73-11.65 2.73-10.45 0-18.13-5.03-18.13-13.58 0-8.5399 7.68-13.5799 18.13-13.5799 5.02 0 7.89.74 11.43 2.25l-2.51 3.85c-2.68-1.42-5-1.72-7.76-1.72-6.55 0-10.47 3.8899-10.47 9.1899"/><path d="m128.73 115.62c-5.57 0-8.64-4.18-8.64-9.36s3.07-9.3599 8.64-9.3599 8.64 4.1799 8.64 9.3599-3.08 9.36-8.64 9.36zm0-22.9399c-10.12 0-17.42 5.04-17.42 13.5799 0 8.54 7.3 13.59 17.42 13.59s17.42-5.03 17.42-13.59c0-8.5599-7.3-13.5799-17.42-13.5799z"/><path d="m172.45 108.24v10.93h8.36v-25.7999h-8.36v9.8299h-12.78v-9.8299h-8.35v25.7999h8.35v-10.93z"/><path d="m74.99 93.3701h-8.8v25.7899h8.8z"/><path d="m40.94 105.18v2.46c4.28 3.35 8.13 7.22 11.45 11.52h9.86c-3.43-4.03-8.69-8.82-12.57-11.22 4.55-.19 9.62-2.03 9.62-7.25 0-6.7-7.15-7.92-14.39-7.92-5.92 0-11.37.27-14.63.54v25.86h8.21v-21.97c2.14-.24 4.3-.36 6.45-.34 4.23 0 6.37 1.4 6.37 3.84 0 2.08-.88 4.58-10.38 4.49h.01z"/></g></g></svg>