<svg fill="none" height="212" viewBox="0 0 212 212" width="212" xmlns="http://www.w3.org/2000/svg" xmlns:xlink="http://www.w3.org/1999/xlink"><clipPath id="a"><path d="m0 0h212v212h-212z"/></clipPath><g clip-path="url(#a)"><path d="m206 0h-200c-3.31371 0-6 2.68629-6 6v200c0 3.314 2.68629 6 6 6h200c3.314 0 6-2.686 6-6v-200c0-3.31371-2.686-6-6-6z" fill="#f5f5f5"/><g fill="#000"><path d="m71.7001 119.12h-2.18c-2.17 0-4.77-.93-4.77-5.39v-1.84h4.57v1.95c0 .75.3 1.04 1.08 1.04h.63c.55 0 .89-.17.89-1.04v-4.51c0-.5-.12-.61-.12-.61-.28-.23-.58-.43-.89-.61l-3.35-1.88c-.59-.3-1.16-.65-1.68-1.06-.41-.34-.71-.78-.88-1.28-.18-.6-.27-1.22-.25-1.85v-5.43c0-3.31 1.65-5.06 4.77-5.06h2.22c3.12 0 4.77 1.75 4.77 5.06v3.1h-4.58v-2.84c0-.78-.29-1.08-1.04-1.08h-.56c-.6 0-1.01.18-1.01 1.08v4.4c0 .5.12.61.12.62.28.23.58.43.89.61l3.34 1.8c.57.31 1.11.65 1.64 1.02.36.27.66.62.86 1.02.22.42.32 1.1.32 2.14v5.66c0 3.26-1.66 4.99-4.81 4.99"/><path d="m85.69 119.12h-4.57v-27.59h4.57z"/><path d="m106.92 119.12h-4.59l.27-12.47-1.62 7.67h-3.5699l-1.62-7.67.27 12.48h-4.59v-27.59h4.85l2.87 13.65 2.8799-13.65h4.85v27.59z"/><path d="m118.53 119.12h-2.18c-2.17 0-4.77-.94-4.77-5.39v-1.84h4.57v1.95c0 .75.3 1.04 1.08 1.04h.63c.55 0 .9-.17.9-1.04v-4.51c0-.5-.12-.61-.12-.62-.28-.23-.58-.43-.89-.61l-3.35-1.88c-.59-.3-1.16-.65-1.68-1.06-.41-.34-.71-.78-.88-1.28-.18-.6-.27-1.22-.25-1.85v-5.43c0-3.31 1.66-5.06 4.77-5.06h2.23c3.12 0 4.77 1.75 4.77 5.06v3.1h-4.58v-2.84c0-.78-.29-1.08-1.04-1.08h-.56c-.6 0-1.01.18-1.01 1.08v4.4c0 .5.12.61.12.62.28.23.58.43.89.61l3.34 1.8c.57.31 1.11.65 1.64 1.02.36.27.66.62.86 1.02.22.42.31 1.1.31 2.14v5.66c0 3.26-1.66 4.99-4.81 4.99"/><path d="m134.83 119.12h-2.3c-3.12 0-4.76-1.74-4.76-5.02v-17.54c0-3.29 1.65-5.02 4.76-5.02h2.3c3.12 0 4.77 1.74 4.77 5.02v3.51h-4.57v-3.25c0-.75-.3-1.04-1.08-1.04h-.7c-.54 0-.89.18-.89 1.04v17.02c0 .87.34 1.04.89 1.04h.89c.54 0 .89-.18.89-1.04v-1.95h4.57v2.21c0 3.29-1.66 5.02-4.77 5.02z"/><path d="m156.04 119.12h-4.57v-9.73h-3.05v9.73h-4.57v-22.53c0-3.31 1.65-5.06 4.76-5.06h2.66c3.12 0 4.77 1.75 4.77 5.06zm-7.62-13.97h3.05v-8.33c0-.75-.29-1.04-1.04-1.04h-.96c-.75 0-1.04.29-1.04 1.04v8.33z"/><path d="m171.09 119.12h-9.46v-27.59h4.57v23.35h4.89z"/><path d="m184.61 119.12h-9.83v-27.59h9.83v4.24h-5.25v7.04h4.66v4.24h-4.66v7.82h5.25v4.24z"/><path d="m41.67 103.75c-4.62 4.29-11.17 6.43-13.37 7.07v3.13c4.2-.8 10.13-2.4 15.34-5.54 3.06-1.9 8.7401-5.89 12.29-11.12l-.02-5.69h-5.63c-.58 1.33-3.3299 7.26-8.6 12.15"/><path d="m44.37 109.6c-5.5 3.31-11.74 4.97-16.07 5.77v3.08h.05c1.54-.14 10.08-1.07 16.77-4.31 5.2-2.48 9.9101-6.7 10.81-7.53v-6.99c-3.67 4.67-8.71 8.2-11.56 9.98z"/><path d="m40.7201 102.73c4.47-4.1599 7.12-9.2099 8.02-11.1399l-15.8001-.02c-2.56 0-4.64 2.08-4.64 4.64v13.1499c2.4-.73 8.3101-2.82 12.4201-6.63z"/><path d="m45.7301 115.39c-4.21 2.03-9.01 3.18-12.53 3.8h18.1c2.56 0 4.64-2.08 4.64-4.64v-6.08c-1.86 1.62-5.82 4.82-10.2 6.91"/></g></g></svg>