<svg width="212" height="212" viewBox="0 0 212 212" fill="none" xmlns="http://www.w3.org/2000/svg">
<g clip-path="url(#clip0_142_2327)">
<path d="M206 0H6C2.68629 0 0 2.68629 0 6V206C0 209.314 2.68629 212 6 212H206C209.314 212 212 209.314 212 206V6C212 2.68629 209.314 0 206 0Z" fill="#F5F5F5"/>
<path d="M174.42 109.45H176.69L177.5 107.11H166.77C166.77 110.79 166.87 111.96 170.56 111.96C172.84 111.96 174.43 111.99 174.43 109.45M166.77 104.5H174.42C174.42 100.98 173.9 100.72 170.55 100.72C167 100.72 166.76 101.47 166.76 104.5M180.87 90.5H142.35V114.88H138.25L138.41 112.31H138.28C137.24 114.56 135.35 115.09 132.94 115.09C126.59 115.09 126.4 111.09 126.4 105.84C126.4 100.59 127.08 97.6 132.94 97.6C135.02 97.6 137.21 97.99 138.08 100.07H138.24V90.49H116.81C116.81 90.49 114.44 90.49 113.67 92.73L111.77 98.23C112.88 97.81 114.32 97.59 116.23 97.59C123.26 97.59 124.21 99.64 124.21 107.1H112.46C112.46 110.78 112.56 111.95 116.24 111.95C118.52 111.95 120.11 111.98 120.11 109.44H124.21C124.21 114.81 121.12 115.07 116.23 115.07C110.26 115.07 108.63 113.32 108.39 108.01L104.41 119.53C104.41 119.53 103.64 121.77 106 121.77H147.65C146.04 121.03 145.09 119.55 145.24 116.64H149.09C149.09 118.98 149.97 119.34 152.28 119.34C155.76 119.34 156.51 118.62 156.51 115.69V112.44H156.41C155.33 114.67 153.14 115.07 151.07 115.07C145.21 115.07 144.52 111.85 144.52 106.83C144.52 101.81 144.72 97.58 151.07 97.58C153.48 97.58 155.37 98.1 156.41 100.35H156.54L156.38 97.78H160.48V114.84C160.48 118.82 159.65 120.83 157.39 121.76H170.06C170.06 121.76 172.42 121.76 173.2 119.52L174.84 114.78C173.64 115.02 172.2 115.06 170.55 115.06C164 115.06 162.67 112.98 162.67 106.37C162.67 100.25 163.65 97.58 170.55 97.58C176.62 97.58 178.15 99.12 178.46 104.33L182.47 92.7C182.47 92.7 183.24 90.46 180.88 90.46M138.18 105.82C138.18 102.17 137.69 100.71 134.14 100.71C131.31 100.71 130.49 101.52 130.49 105.82C130.49 109.69 130.39 111.95 134.14 111.95C138.34 111.95 138.18 109.9 138.18 105.82ZM116.24 100.71C112.69 100.71 112.46 101.46 112.46 104.49H120.11C120.11 100.97 119.59 100.71 116.24 100.71ZM156.38 105.84C156.38 102.19 155.83 100.73 152.28 100.73C149.45 100.73 148.63 101.54 148.63 105.84C148.63 109.71 148.63 111.97 152.28 111.97C156.38 111.97 156.38 109.92 156.38 105.84Z" fill="#010101"/>
<path d="M92.87 97.79V114.88H96.97V104.33C96.91 102.12 97.62 100.72 100.06 100.72C101.98 100.72 102.14 101.73 102.14 103.46V104.34H105.98V102.97C105.98 99.74 105.1 97.59 101.49 97.59C99.51 97.59 97.75 98.14 96.93 100.03H96.77L96.87 97.78H92.86H92.87V97.79ZM84.99 114.89H89.09V104.18C89.09 98.45 86.81 97.6 81.34 97.6C77.43 97.6 74.02 97.79 74.02 102.78H78.12C78.12 100.57 79.55 100.4 81.34 100.4C84.77 100.4 84.99 101.38 84.99 104.14V106.35H84.86C83.88 104.43 81.83 104.4 79.75 104.4C75.52 104.4 73.37 105.54 73.37 109.64C73.37 114.26 75.88 115.08 79.75 115.08C81.73 115.08 84.24 115.02 85.06 112.74H85.16L85 114.89H84.99ZM81.21 107.2C83.23 107.2 84.99 107.26 84.99 109.64C84.99 112.02 83.4 112.28 81.21 112.28C78.44 112.28 77.47 112.05 77.47 109.64C77.47 107.23 79.13 107.2 81.21 107.2ZM69.92 90.47H65.82V114.89H69.92V90.47ZM54.29 100.72C57.94 100.72 58.23 101.76 58.23 106.39C58.23 111.02 57.94 111.96 54.29 111.96C50.64 111.96 50.35 110.95 50.35 106.39C50.35 101.83 50.64 100.72 54.29 100.72ZM54.29 97.6C47.16 97.6 46.25 99.72 46.25 106.36C46.25 113 47.16 115.08 54.29 115.08C61.42 115.08 62.33 112.96 62.33 106.36C62.33 99.76 61.42 97.6 54.29 97.6ZM43.19 102.45C43.19 97.66 39.19 97.6 35.83 97.6C31.43 97.6 28.05 97.7 28.05 102.39C28.05 106.75 29.19 107.6 35.47 107.7C39.6 107.76 39.7 108.51 39.7 110.01C39.7 112.35 38.27 112.29 35.83 112.29C32.8 112.29 32.22 112 32.15 109.52H28.05C28.05 115.09 31.18 115.09 35.83 115.09C40.16 115.09 43.81 114.63 43.81 110.01C43.81 104.48 40.23 104.77 36.19 104.57C32.61 104.41 32.15 104.34 32.15 102.65C32.15 100.4 33.65 100.4 35.83 100.4C38.01 100.4 39.09 100.4 39.09 102.45H43.19Z" fill="#010101"/>
</g>
<defs>
<clipPath id="clip0_142_2327">
<rect width="212" height="212" fill="white"/>
</clipPath>
</defs>
</svg>
