<svg fill="none" height="212" viewBox="0 0 212 212" width="212" xmlns="http://www.w3.org/2000/svg" xmlns:xlink="http://www.w3.org/1999/xlink"><clipPath id="a"><path d="m0 0h212v212h-212z"/></clipPath><g clip-path="url(#a)"><path d="m206 0h-200c-3.31371 0-6 2.68629-6 6v200c0 3.314 2.68629 6 6 6h200c3.314 0 6-2.686 6-6v-200c0-3.31371-2.686-6-6-6z" fill="#f5f5f5"/><g fill="#010101"><path d="m174.42 109.45h2.27l.81-2.34h-10.73c0 3.68.1 4.85 3.79 4.85 2.28 0 3.87.03 3.87-2.51m-7.66-4.95h7.65c0-3.52-.52-3.78-3.87-3.78-3.55 0-3.79.75-3.79 3.78m14.11-14h-38.52v24.38h-4.1l.16-2.57h-.13c-1.04 2.25-2.93 2.78-5.34 2.78-6.35 0-6.54-4-6.54-9.25s.68-8.24 6.54-8.24c2.08 0 4.27.39 5.14 2.47h.16v-9.58h-21.43s-2.37 0-3.14 2.24l-1.9 5.5c1.11-.42 2.55-.64 4.46-.64 7.03 0 7.98 2.05 7.98 9.51h-11.75c0 3.68.1 4.85 3.78 4.85 2.28 0 3.87.03 3.87-2.51h4.1c0 5.37-3.09 5.63-7.98 5.63-5.97 0-7.6-1.75-7.84-7.06l-3.98 11.52s-.77 2.24 1.59 2.24h41.65c-1.61-.74-2.56-2.22-2.41-5.13h3.85c0 2.34.88 2.7 3.19 2.7 3.48 0 4.23-.72 4.23-3.65v-3.25h-.1c-1.08 2.23-3.27 2.63-5.34 2.63-5.86 0-6.55-3.22-6.55-8.24s.2-9.25 6.55-9.25c2.41 0 4.3.52 5.34 2.77h.13l-.16-2.57h4.1v17.06c0 3.98-.83 5.99-3.09 6.92h12.67s2.36 0 3.14-2.24l1.64-4.74c-1.2.24-2.64.28-4.29.28-6.55 0-7.88-2.08-7.88-8.69 0-6.12.98-8.79 7.88-8.79 6.07 0 7.6 1.54 7.91 6.75l4.01-11.63s.77-2.24-1.59-2.24m-42.7 15.36c0-3.65-.49-5.11-4.04-5.11-2.83 0-3.65.81-3.65 5.11 0 3.87-.1 6.13 3.65 6.13 4.2 0 4.04-2.05 4.04-6.13zm-21.94-5.11c-3.55 0-3.78.75-3.78 3.78h7.65c0-3.52-.52-3.78-3.87-3.78zm40.14 5.13c0-3.65-.55-5.11-4.1-5.11-2.83 0-3.65.81-3.65 5.11 0 3.87 0 6.13 3.65 6.13 4.1 0 4.1-2.05 4.1-6.13z"/><path d="m92.87 97.79v17.09h4.1v-10.55c-.06-2.21.65-3.61 3.09-3.61 1.92 0 2.08 1.01 2.08 2.74v.88h3.84v-1.37c0-3.23-.88-5.38-4.49-5.38-1.98 0-3.74.55-4.56 2.44h-.16l.1-2.25h-4.01.01zm-7.88 17.1h4.1v-10.71c0-5.73-2.28-6.58-7.75-6.58-3.91 0-7.32.19-7.32 5.18h4.1c0-2.21 1.43-2.38 3.22-2.38 3.43 0 3.65.98 3.65 3.74v2.21h-.13c-.98-1.92-3.03-1.95-5.11-1.95-4.23 0-6.38 1.14-6.38 5.24 0 4.62 2.51 5.44 6.38 5.44 1.98 0 4.49-.06 5.31-2.34h.1l-.16 2.15zm-3.78-7.69c2.02 0 3.78.06 3.78 2.44s-1.59 2.64-3.78 2.64c-2.77 0-3.74-.23-3.74-2.64s1.66-2.44 3.74-2.44zm-11.29-16.73h-4.1v24.42h4.1zm-15.63 10.25c3.65 0 3.94 1.04 3.94 5.67s-.29 5.57-3.94 5.57-3.94-1.01-3.94-5.57.29-5.67 3.94-5.67zm0-3.12c-7.13 0-8.04 2.12-8.04 8.76s.91 8.72 8.04 8.72 8.04-2.12 8.04-8.72-.91-8.76-8.04-8.76zm-11.1 4.85c0-4.79-4-4.85-7.36-4.85-4.4 0-7.78.1-7.78 4.79 0 4.36 1.14 5.21 7.42 5.31 4.13.06 4.23.81 4.23 2.31 0 2.34-1.43 2.28-3.87 2.28-3.03 0-3.61-.29-3.68-2.77h-4.1c0 5.57 3.13 5.57 7.78 5.57 4.33 0 7.98-.46 7.98-5.08 0-5.53-3.58-5.24-7.62-5.44-3.58-.16-4.04-.23-4.04-1.92 0-2.25 1.5-2.25 3.68-2.25s3.26 0 3.26 2.05z"/></g></g></svg>